<mxfile host="app.diagrams.net" agent="Mozilla/5.0 (Windows NT 10.0; Win64; x64) AppleWebKit/537.36 (KHTML, like Gecko) Chrome/139.0.0.0 Safari/537.36" version="28.2.0">
  <diagram name="Page-1" id="uAb-ncTJf2eY7pdTzjl4">
    <mxGraphModel dx="4618" dy="1445" grid="1" gridSize="10" guides="1" tooltips="1" connect="1" arrows="1" fold="1" page="1" pageScale="1" pageWidth="850" pageHeight="1100" math="0" shadow="0">
      <root>
        <mxCell id="0" />
        <mxCell id="1" parent="0" />
        <mxCell id="Ep49lHUHMITaR3YVPtm_-188" style="edgeStyle=orthogonalEdgeStyle;rounded=0;orthogonalLoop=1;jettySize=auto;html=1;entryX=0.5;entryY=0;entryDx=0;entryDy=0;" edge="1" parent="1" source="Ep49lHUHMITaR3YVPtm_-1" target="Ep49lHUHMITaR3YVPtm_-2">
          <mxGeometry relative="1" as="geometry" />
        </mxCell>
        <mxCell id="Ep49lHUHMITaR3YVPtm_-189" style="edgeStyle=orthogonalEdgeStyle;rounded=0;orthogonalLoop=1;jettySize=auto;html=1;entryX=0.5;entryY=0;entryDx=0;entryDy=0;" edge="1" parent="1" source="Ep49lHUHMITaR3YVPtm_-1" target="Ep49lHUHMITaR3YVPtm_-3">
          <mxGeometry relative="1" as="geometry" />
        </mxCell>
        <mxCell id="Ep49lHUHMITaR3YVPtm_-1" value="html" style="ellipse;whiteSpace=wrap;html=1;aspect=fixed;fillColor=#dae8fc;strokeColor=#6c8ebf;" vertex="1" parent="1">
          <mxGeometry x="-190" y="45" width="80" height="80" as="geometry" />
        </mxCell>
        <mxCell id="Ep49lHUHMITaR3YVPtm_-191" style="edgeStyle=orthogonalEdgeStyle;rounded=0;orthogonalLoop=1;jettySize=auto;html=1;entryX=0.5;entryY=0;entryDx=0;entryDy=0;" edge="1" parent="1" source="Ep49lHUHMITaR3YVPtm_-2" target="Ep49lHUHMITaR3YVPtm_-6">
          <mxGeometry relative="1" as="geometry" />
        </mxCell>
        <mxCell id="Ep49lHUHMITaR3YVPtm_-192" style="edgeStyle=orthogonalEdgeStyle;rounded=0;orthogonalLoop=1;jettySize=auto;html=1;entryX=0.5;entryY=0;entryDx=0;entryDy=0;" edge="1" parent="1" source="Ep49lHUHMITaR3YVPtm_-2" target="Ep49lHUHMITaR3YVPtm_-7">
          <mxGeometry relative="1" as="geometry" />
        </mxCell>
        <mxCell id="Ep49lHUHMITaR3YVPtm_-193" style="edgeStyle=orthogonalEdgeStyle;rounded=0;orthogonalLoop=1;jettySize=auto;html=1;entryX=0.5;entryY=0;entryDx=0;entryDy=0;" edge="1" parent="1" source="Ep49lHUHMITaR3YVPtm_-2" target="Ep49lHUHMITaR3YVPtm_-8">
          <mxGeometry relative="1" as="geometry" />
        </mxCell>
        <mxCell id="Ep49lHUHMITaR3YVPtm_-194" style="edgeStyle=orthogonalEdgeStyle;rounded=0;orthogonalLoop=1;jettySize=auto;html=1;entryX=0.5;entryY=0;entryDx=0;entryDy=0;" edge="1" parent="1" source="Ep49lHUHMITaR3YVPtm_-2" target="Ep49lHUHMITaR3YVPtm_-9">
          <mxGeometry relative="1" as="geometry" />
        </mxCell>
        <mxCell id="Ep49lHUHMITaR3YVPtm_-2" value="head" style="ellipse;whiteSpace=wrap;html=1;aspect=fixed;fillColor=#fff2cc;strokeColor=#d6b656;" vertex="1" parent="1">
          <mxGeometry x="-1380" y="185" width="80" height="80" as="geometry" />
        </mxCell>
        <mxCell id="Ep49lHUHMITaR3YVPtm_-179" style="edgeStyle=orthogonalEdgeStyle;rounded=0;orthogonalLoop=1;jettySize=auto;html=1;entryX=0.5;entryY=0;entryDx=0;entryDy=0;" edge="1" parent="1" source="Ep49lHUHMITaR3YVPtm_-3" target="Ep49lHUHMITaR3YVPtm_-11">
          <mxGeometry relative="1" as="geometry" />
        </mxCell>
        <mxCell id="Ep49lHUHMITaR3YVPtm_-180" style="edgeStyle=orthogonalEdgeStyle;rounded=0;orthogonalLoop=1;jettySize=auto;html=1;entryX=0.5;entryY=0;entryDx=0;entryDy=0;" edge="1" parent="1" source="Ep49lHUHMITaR3YVPtm_-3" target="Ep49lHUHMITaR3YVPtm_-917">
          <mxGeometry relative="1" as="geometry">
            <mxPoint x="8460" y="434.9999999999998" as="targetPoint" />
          </mxGeometry>
        </mxCell>
        <mxCell id="Ep49lHUHMITaR3YVPtm_-181" style="edgeStyle=orthogonalEdgeStyle;rounded=0;orthogonalLoop=1;jettySize=auto;html=1;entryX=0.5;entryY=0;entryDx=0;entryDy=0;" edge="1" parent="1" source="Ep49lHUHMITaR3YVPtm_-3" target="Ep49lHUHMITaR3YVPtm_-925">
          <mxGeometry relative="1" as="geometry">
            <mxPoint x="8600" y="434.9999999999998" as="targetPoint" />
          </mxGeometry>
        </mxCell>
        <mxCell id="Ep49lHUHMITaR3YVPtm_-182" style="edgeStyle=orthogonalEdgeStyle;rounded=0;orthogonalLoop=1;jettySize=auto;html=1;entryX=0.5;entryY=0;entryDx=0;entryDy=0;" edge="1" parent="1" source="Ep49lHUHMITaR3YVPtm_-3" target="Ep49lHUHMITaR3YVPtm_-933">
          <mxGeometry relative="1" as="geometry">
            <mxPoint x="8730" y="434.9999999999998" as="targetPoint" />
            <Array as="points">
              <mxPoint x="8880" y="220" />
              <mxPoint x="8880" y="310" />
              <mxPoint x="8870" y="310" />
            </Array>
          </mxGeometry>
        </mxCell>
        <mxCell id="Ep49lHUHMITaR3YVPtm_-3" value="body" style="ellipse;whiteSpace=wrap;html=1;aspect=fixed;fillColor=#fff2cc;strokeColor=#d6b656;" vertex="1" parent="1">
          <mxGeometry x="960" y="180" width="80" height="80" as="geometry" />
        </mxCell>
        <mxCell id="Ep49lHUHMITaR3YVPtm_-4" value="meta" style="ellipse;whiteSpace=wrap;html=1;aspect=fixed;" vertex="1" parent="1">
          <mxGeometry x="-1680" y="335" width="80" height="80" as="geometry" />
        </mxCell>
        <mxCell id="Ep49lHUHMITaR3YVPtm_-6" value="meta" style="ellipse;whiteSpace=wrap;html=1;aspect=fixed;" vertex="1" parent="1">
          <mxGeometry x="-1550" y="335" width="80" height="80" as="geometry" />
        </mxCell>
        <mxCell id="Ep49lHUHMITaR3YVPtm_-7" value="meta" style="ellipse;whiteSpace=wrap;html=1;aspect=fixed;" vertex="1" parent="1">
          <mxGeometry x="-1425" y="335" width="80" height="80" as="geometry" />
        </mxCell>
        <mxCell id="Ep49lHUHMITaR3YVPtm_-8" value="title" style="ellipse;whiteSpace=wrap;html=1;aspect=fixed;" vertex="1" parent="1">
          <mxGeometry x="-1320" y="335" width="80" height="80" as="geometry" />
        </mxCell>
        <mxCell id="Ep49lHUHMITaR3YVPtm_-9" value="style" style="ellipse;whiteSpace=wrap;html=1;aspect=fixed;" vertex="1" parent="1">
          <mxGeometry x="-1190" y="335" width="80" height="80" as="geometry" />
        </mxCell>
        <mxCell id="Ep49lHUHMITaR3YVPtm_-43" style="edgeStyle=orthogonalEdgeStyle;rounded=0;orthogonalLoop=1;jettySize=auto;html=1;entryX=0.5;entryY=0;entryDx=0;entryDy=0;" edge="1" parent="1" source="Ep49lHUHMITaR3YVPtm_-10" target="Ep49lHUHMITaR3YVPtm_-19">
          <mxGeometry relative="1" as="geometry" />
        </mxCell>
        <mxCell id="Ep49lHUHMITaR3YVPtm_-44" style="edgeStyle=orthogonalEdgeStyle;rounded=0;orthogonalLoop=1;jettySize=auto;html=1;entryX=0.5;entryY=0;entryDx=0;entryDy=0;" edge="1" parent="1" source="Ep49lHUHMITaR3YVPtm_-10" target="Ep49lHUHMITaR3YVPtm_-20">
          <mxGeometry relative="1" as="geometry" />
        </mxCell>
        <mxCell id="Ep49lHUHMITaR3YVPtm_-45" style="edgeStyle=orthogonalEdgeStyle;rounded=0;orthogonalLoop=1;jettySize=auto;html=1;entryX=0.5;entryY=0;entryDx=0;entryDy=0;" edge="1" parent="1" source="Ep49lHUHMITaR3YVPtm_-10" target="Ep49lHUHMITaR3YVPtm_-21">
          <mxGeometry relative="1" as="geometry" />
        </mxCell>
        <mxCell id="Ep49lHUHMITaR3YVPtm_-46" style="edgeStyle=orthogonalEdgeStyle;rounded=0;orthogonalLoop=1;jettySize=auto;html=1;entryX=0.5;entryY=0;entryDx=0;entryDy=0;" edge="1" parent="1" source="Ep49lHUHMITaR3YVPtm_-10" target="Ep49lHUHMITaR3YVPtm_-18">
          <mxGeometry relative="1" as="geometry" />
        </mxCell>
        <mxCell id="Ep49lHUHMITaR3YVPtm_-47" style="edgeStyle=orthogonalEdgeStyle;rounded=0;orthogonalLoop=1;jettySize=auto;html=1;entryX=0.5;entryY=0;entryDx=0;entryDy=0;" edge="1" parent="1" source="Ep49lHUHMITaR3YVPtm_-10" target="Ep49lHUHMITaR3YVPtm_-22">
          <mxGeometry relative="1" as="geometry" />
        </mxCell>
        <mxCell id="Ep49lHUHMITaR3YVPtm_-10" value="div" style="ellipse;whiteSpace=wrap;html=1;aspect=fixed;" vertex="1" parent="1">
          <mxGeometry x="-915" y="495" width="80" height="80" as="geometry" />
        </mxCell>
        <mxCell id="Ep49lHUHMITaR3YVPtm_-73" style="edgeStyle=orthogonalEdgeStyle;rounded=0;orthogonalLoop=1;jettySize=auto;html=1;" edge="1" parent="1" source="Ep49lHUHMITaR3YVPtm_-11" target="Ep49lHUHMITaR3YVPtm_-61">
          <mxGeometry relative="1" as="geometry" />
        </mxCell>
        <mxCell id="Ep49lHUHMITaR3YVPtm_-74" style="edgeStyle=orthogonalEdgeStyle;rounded=0;orthogonalLoop=1;jettySize=auto;html=1;entryX=0.5;entryY=0;entryDx=0;entryDy=0;exitX=0.5;exitY=1;exitDx=0;exitDy=0;" edge="1" parent="1" source="Ep49lHUHMITaR3YVPtm_-11" target="Ep49lHUHMITaR3YVPtm_-729">
          <mxGeometry relative="1" as="geometry">
            <mxPoint x="3550" y="440" as="sourcePoint" />
            <mxPoint x="7230" y="444.9999999999998" as="targetPoint" />
          </mxGeometry>
        </mxCell>
        <mxCell id="Ep49lHUHMITaR3YVPtm_-75" style="edgeStyle=orthogonalEdgeStyle;rounded=0;orthogonalLoop=1;jettySize=auto;html=1;entryX=0.5;entryY=0;entryDx=0;entryDy=0;exitX=0.5;exitY=1;exitDx=0;exitDy=0;" edge="1" parent="1" source="Ep49lHUHMITaR3YVPtm_-11" target="Ep49lHUHMITaR3YVPtm_-876">
          <mxGeometry relative="1" as="geometry">
            <mxPoint x="3550" y="440" as="sourcePoint" />
            <mxPoint x="8050" y="379.9999999999998" as="targetPoint" />
            <Array as="points">
              <mxPoint x="2140" y="440" />
              <mxPoint x="2890" y="440" />
              <mxPoint x="2890" y="460" />
              <mxPoint x="4130" y="460" />
              <mxPoint x="4130" y="405" />
            </Array>
          </mxGeometry>
        </mxCell>
        <mxCell id="Ep49lHUHMITaR3YVPtm_-11" value="main" style="ellipse;whiteSpace=wrap;html=1;aspect=fixed;fillColor=#e1d5e7;strokeColor=#9673a6;" vertex="1" parent="1">
          <mxGeometry x="2100" y="330" width="80" height="80" as="geometry" />
        </mxCell>
        <mxCell id="Ep49lHUHMITaR3YVPtm_-17" style="edgeStyle=orthogonalEdgeStyle;rounded=0;orthogonalLoop=1;jettySize=auto;html=1;entryX=0.5;entryY=0;entryDx=0;entryDy=0;" edge="1" parent="1" source="Ep49lHUHMITaR3YVPtm_-16" target="Ep49lHUHMITaR3YVPtm_-10">
          <mxGeometry relative="1" as="geometry" />
        </mxCell>
        <mxCell id="Ep49lHUHMITaR3YVPtm_-16" value="header" style="ellipse;whiteSpace=wrap;html=1;aspect=fixed;fillColor=#e1d5e7;strokeColor=#9673a6;" vertex="1" parent="1">
          <mxGeometry x="-915" y="325" width="80" height="80" as="geometry" />
        </mxCell>
        <mxCell id="Ep49lHUHMITaR3YVPtm_-29" style="edgeStyle=orthogonalEdgeStyle;rounded=0;orthogonalLoop=1;jettySize=auto;html=1;entryX=0.5;entryY=0;entryDx=0;entryDy=0;" edge="1" parent="1" source="Ep49lHUHMITaR3YVPtm_-18" target="Ep49lHUHMITaR3YVPtm_-23">
          <mxGeometry relative="1" as="geometry" />
        </mxCell>
        <mxCell id="Ep49lHUHMITaR3YVPtm_-18" value="h1" style="ellipse;whiteSpace=wrap;html=1;aspect=fixed;" vertex="1" parent="1">
          <mxGeometry x="-1060" y="665" width="80" height="80" as="geometry" />
        </mxCell>
        <mxCell id="Ep49lHUHMITaR3YVPtm_-30" style="edgeStyle=orthogonalEdgeStyle;rounded=0;orthogonalLoop=1;jettySize=auto;html=1;entryX=0.5;entryY=0;entryDx=0;entryDy=0;" edge="1" parent="1" source="Ep49lHUHMITaR3YVPtm_-19" target="Ep49lHUHMITaR3YVPtm_-24">
          <mxGeometry relative="1" as="geometry" />
        </mxCell>
        <mxCell id="Ep49lHUHMITaR3YVPtm_-19" value="p" style="ellipse;whiteSpace=wrap;html=1;aspect=fixed;" vertex="1" parent="1">
          <mxGeometry x="-915" y="655" width="80" height="80" as="geometry" />
        </mxCell>
        <mxCell id="Ep49lHUHMITaR3YVPtm_-31" style="edgeStyle=orthogonalEdgeStyle;rounded=0;orthogonalLoop=1;jettySize=auto;html=1;entryX=0.5;entryY=0;entryDx=0;entryDy=0;" edge="1" parent="1" source="Ep49lHUHMITaR3YVPtm_-20" target="Ep49lHUHMITaR3YVPtm_-25">
          <mxGeometry relative="1" as="geometry" />
        </mxCell>
        <mxCell id="Ep49lHUHMITaR3YVPtm_-20" value="nav" style="ellipse;whiteSpace=wrap;html=1;aspect=fixed;fontStyle=1" vertex="1" parent="1">
          <mxGeometry x="-780" y="665" width="80" height="80" as="geometry" />
        </mxCell>
        <mxCell id="Ep49lHUHMITaR3YVPtm_-42" style="edgeStyle=orthogonalEdgeStyle;rounded=0;orthogonalLoop=1;jettySize=auto;html=1;entryX=0.5;entryY=0;entryDx=0;entryDy=0;" edge="1" parent="1" source="Ep49lHUHMITaR3YVPtm_-21" target="Ep49lHUHMITaR3YVPtm_-37">
          <mxGeometry relative="1" as="geometry" />
        </mxCell>
        <mxCell id="Ep49lHUHMITaR3YVPtm_-21" value="nav" style="ellipse;whiteSpace=wrap;html=1;aspect=fixed;" vertex="1" parent="1">
          <mxGeometry x="-650" y="665" width="80" height="80" as="geometry" />
        </mxCell>
        <mxCell id="Ep49lHUHMITaR3YVPtm_-22" value="a" style="ellipse;whiteSpace=wrap;html=1;aspect=fixed;" vertex="1" parent="1">
          <mxGeometry x="-1180" y="655" width="80" height="80" as="geometry" />
        </mxCell>
        <mxCell id="Ep49lHUHMITaR3YVPtm_-23" value="span" style="ellipse;whiteSpace=wrap;html=1;aspect=fixed;" vertex="1" parent="1">
          <mxGeometry x="-1060" y="795" width="80" height="80" as="geometry" />
        </mxCell>
        <mxCell id="Ep49lHUHMITaR3YVPtm_-24" value="strong" style="ellipse;whiteSpace=wrap;html=1;aspect=fixed;" vertex="1" parent="1">
          <mxGeometry x="-920" y="795" width="80" height="80" as="geometry" />
        </mxCell>
        <mxCell id="Ep49lHUHMITaR3YVPtm_-32" style="edgeStyle=orthogonalEdgeStyle;rounded=0;orthogonalLoop=1;jettySize=auto;html=1;entryX=0.5;entryY=0;entryDx=0;entryDy=0;" edge="1" parent="1" source="Ep49lHUHMITaR3YVPtm_-25" target="Ep49lHUHMITaR3YVPtm_-27">
          <mxGeometry relative="1" as="geometry" />
        </mxCell>
        <mxCell id="Ep49lHUHMITaR3YVPtm_-33" style="edgeStyle=orthogonalEdgeStyle;rounded=0;orthogonalLoop=1;jettySize=auto;html=1;entryX=0.5;entryY=0;entryDx=0;entryDy=0;" edge="1" parent="1" source="Ep49lHUHMITaR3YVPtm_-25" target="Ep49lHUHMITaR3YVPtm_-28">
          <mxGeometry relative="1" as="geometry" />
        </mxCell>
        <mxCell id="Ep49lHUHMITaR3YVPtm_-34" style="edgeStyle=orthogonalEdgeStyle;rounded=0;orthogonalLoop=1;jettySize=auto;html=1;entryX=0.5;entryY=0;entryDx=0;entryDy=0;" edge="1" parent="1" source="Ep49lHUHMITaR3YVPtm_-25" target="Ep49lHUHMITaR3YVPtm_-26">
          <mxGeometry relative="1" as="geometry">
            <Array as="points">
              <mxPoint x="-740" y="905" />
              <mxPoint x="-875" y="905" />
            </Array>
          </mxGeometry>
        </mxCell>
        <mxCell id="Ep49lHUHMITaR3YVPtm_-25" value="ul" style="ellipse;whiteSpace=wrap;html=1;aspect=fixed;" vertex="1" parent="1">
          <mxGeometry x="-780" y="805" width="80" height="80" as="geometry" />
        </mxCell>
        <mxCell id="Ep49lHUHMITaR3YVPtm_-26" value="li" style="ellipse;whiteSpace=wrap;html=1;aspect=fixed;" vertex="1" parent="1">
          <mxGeometry x="-915" y="955" width="80" height="80" as="geometry" />
        </mxCell>
        <mxCell id="Ep49lHUHMITaR3YVPtm_-27" value="li" style="ellipse;whiteSpace=wrap;html=1;aspect=fixed;" vertex="1" parent="1">
          <mxGeometry x="-775" y="955" width="80" height="80" as="geometry" />
        </mxCell>
        <mxCell id="Ep49lHUHMITaR3YVPtm_-28" value="li" style="ellipse;whiteSpace=wrap;html=1;aspect=fixed;" vertex="1" parent="1">
          <mxGeometry x="-635" y="965" width="80" height="80" as="geometry" />
        </mxCell>
        <mxCell id="Ep49lHUHMITaR3YVPtm_-35" style="edgeStyle=orthogonalEdgeStyle;rounded=0;orthogonalLoop=1;jettySize=auto;html=1;entryX=0.5;entryY=0;entryDx=0;entryDy=0;" edge="1" parent="1" source="Ep49lHUHMITaR3YVPtm_-37" target="Ep49lHUHMITaR3YVPtm_-38">
          <mxGeometry relative="1" as="geometry" />
        </mxCell>
        <mxCell id="Ep49lHUHMITaR3YVPtm_-36" style="edgeStyle=orthogonalEdgeStyle;rounded=0;orthogonalLoop=1;jettySize=auto;html=1;entryX=0.5;entryY=0;entryDx=0;entryDy=0;" edge="1" parent="1" source="Ep49lHUHMITaR3YVPtm_-37" target="Ep49lHUHMITaR3YVPtm_-39">
          <mxGeometry relative="1" as="geometry" />
        </mxCell>
        <mxCell id="Ep49lHUHMITaR3YVPtm_-41" style="edgeStyle=orthogonalEdgeStyle;rounded=0;orthogonalLoop=1;jettySize=auto;html=1;entryX=0.5;entryY=0;entryDx=0;entryDy=0;" edge="1" parent="1" source="Ep49lHUHMITaR3YVPtm_-37" target="Ep49lHUHMITaR3YVPtm_-40">
          <mxGeometry relative="1" as="geometry" />
        </mxCell>
        <mxCell id="Ep49lHUHMITaR3YVPtm_-37" value="ol" style="ellipse;whiteSpace=wrap;html=1;aspect=fixed;" vertex="1" parent="1">
          <mxGeometry x="-425" y="815" width="80" height="80" as="geometry" />
        </mxCell>
        <mxCell id="Ep49lHUHMITaR3YVPtm_-38" value="li" style="ellipse;whiteSpace=wrap;html=1;aspect=fixed;" vertex="1" parent="1">
          <mxGeometry x="-420" y="965" width="80" height="80" as="geometry" />
        </mxCell>
        <mxCell id="Ep49lHUHMITaR3YVPtm_-39" value="li" style="ellipse;whiteSpace=wrap;html=1;aspect=fixed;" vertex="1" parent="1">
          <mxGeometry x="-280" y="975" width="80" height="80" as="geometry" />
        </mxCell>
        <mxCell id="Ep49lHUHMITaR3YVPtm_-40" value="li" style="ellipse;whiteSpace=wrap;html=1;aspect=fixed;" vertex="1" parent="1">
          <mxGeometry x="-520" y="965" width="80" height="80" as="geometry" />
        </mxCell>
        <mxCell id="Ep49lHUHMITaR3YVPtm_-99" style="edgeStyle=orthogonalEdgeStyle;rounded=0;orthogonalLoop=1;jettySize=auto;html=1;entryX=0.5;entryY=0;entryDx=0;entryDy=0;" edge="1" parent="1" source="Ep49lHUHMITaR3YVPtm_-58" target="Ep49lHUHMITaR3YVPtm_-95">
          <mxGeometry relative="1" as="geometry" />
        </mxCell>
        <mxCell id="Ep49lHUHMITaR3YVPtm_-58" value="header" style="ellipse;whiteSpace=wrap;html=1;aspect=fixed;" vertex="1" parent="1">
          <mxGeometry x="205" y="965" width="80" height="80" as="geometry" />
        </mxCell>
        <mxCell id="Ep49lHUHMITaR3YVPtm_-151" style="edgeStyle=orthogonalEdgeStyle;rounded=0;orthogonalLoop=1;jettySize=auto;html=1;entryX=0.5;entryY=0;entryDx=0;entryDy=0;exitX=0.5;exitY=1;exitDx=0;exitDy=0;" edge="1" parent="1" source="Ep49lHUHMITaR3YVPtm_-59" target="Ep49lHUHMITaR3YVPtm_-96">
          <mxGeometry relative="1" as="geometry">
            <mxPoint x="695" y="1100" as="sourcePoint" />
          </mxGeometry>
        </mxCell>
        <mxCell id="Ep49lHUHMITaR3YVPtm_-152" style="edgeStyle=orthogonalEdgeStyle;rounded=0;orthogonalLoop=1;jettySize=auto;html=1;exitX=0.5;exitY=1;exitDx=0;exitDy=0;" edge="1" parent="1" source="Ep49lHUHMITaR3YVPtm_-59" target="Ep49lHUHMITaR3YVPtm_-110">
          <mxGeometry relative="1" as="geometry">
            <mxPoint x="695" y="1100" as="sourcePoint" />
            <Array as="points" />
          </mxGeometry>
        </mxCell>
        <mxCell id="Ep49lHUHMITaR3YVPtm_-59" value="div" style="ellipse;whiteSpace=wrap;html=1;aspect=fixed;" vertex="1" parent="1">
          <mxGeometry x="865" y="1010" width="80" height="80" as="geometry" />
        </mxCell>
        <mxCell id="Ep49lHUHMITaR3YVPtm_-60" value="h2" style="ellipse;whiteSpace=wrap;html=1;aspect=fixed;" vertex="1" parent="1">
          <mxGeometry x="60" y="780" width="80" height="80" as="geometry" />
        </mxCell>
        <mxCell id="Ep49lHUHMITaR3YVPtm_-76" style="edgeStyle=orthogonalEdgeStyle;rounded=0;orthogonalLoop=1;jettySize=auto;html=1;entryX=0.5;entryY=0;entryDx=0;entryDy=0;" edge="1" parent="1" source="Ep49lHUHMITaR3YVPtm_-61" target="Ep49lHUHMITaR3YVPtm_-60">
          <mxGeometry relative="1" as="geometry">
            <Array as="points">
              <mxPoint x="100" y="570" />
            </Array>
          </mxGeometry>
        </mxCell>
        <mxCell id="Ep49lHUHMITaR3YVPtm_-77" style="edgeStyle=orthogonalEdgeStyle;rounded=0;orthogonalLoop=1;jettySize=auto;html=1;entryX=0.5;entryY=0;entryDx=0;entryDy=0;" edge="1" parent="1" source="Ep49lHUHMITaR3YVPtm_-61" target="Ep49lHUHMITaR3YVPtm_-70">
          <mxGeometry relative="1" as="geometry">
            <Array as="points">
              <mxPoint x="2140" y="680" />
              <mxPoint x="1345" y="680" />
            </Array>
          </mxGeometry>
        </mxCell>
        <mxCell id="Ep49lHUHMITaR3YVPtm_-78" style="edgeStyle=orthogonalEdgeStyle;rounded=0;orthogonalLoop=1;jettySize=auto;html=1;entryX=0.5;entryY=0;entryDx=0;entryDy=0;" edge="1" parent="1" source="Ep49lHUHMITaR3YVPtm_-61">
          <mxGeometry relative="1" as="geometry">
            <mxPoint x="4020" y="885" as="targetPoint" />
          </mxGeometry>
        </mxCell>
        <mxCell id="Ep49lHUHMITaR3YVPtm_-61" value="section" style="ellipse;whiteSpace=wrap;html=1;aspect=fixed;fillColor=#d5e8d4;strokeColor=#82b366;" vertex="1" parent="1">
          <mxGeometry x="2100" y="490" width="80" height="80" as="geometry" />
        </mxCell>
        <mxCell id="Ep49lHUHMITaR3YVPtm_-234" style="edgeStyle=orthogonalEdgeStyle;rounded=0;orthogonalLoop=1;jettySize=auto;html=1;entryX=0.5;entryY=0;entryDx=0;entryDy=0;" edge="1" parent="1" source="Ep49lHUHMITaR3YVPtm_-62" target="Ep49lHUHMITaR3YVPtm_-199">
          <mxGeometry relative="1" as="geometry" />
        </mxCell>
        <mxCell id="Ep49lHUHMITaR3YVPtm_-235" style="edgeStyle=orthogonalEdgeStyle;rounded=0;orthogonalLoop=1;jettySize=auto;html=1;entryX=0.5;entryY=0;entryDx=0;entryDy=0;" edge="1" parent="1" source="Ep49lHUHMITaR3YVPtm_-62" target="Ep49lHUHMITaR3YVPtm_-200">
          <mxGeometry relative="1" as="geometry" />
        </mxCell>
        <mxCell id="Ep49lHUHMITaR3YVPtm_-62" value="section" style="ellipse;whiteSpace=wrap;html=1;aspect=fixed;" vertex="1" parent="1">
          <mxGeometry x="1775" y="1020" width="80" height="80" as="geometry" />
        </mxCell>
        <mxCell id="Ep49lHUHMITaR3YVPtm_-308" style="edgeStyle=orthogonalEdgeStyle;rounded=0;orthogonalLoop=1;jettySize=auto;html=1;entryX=0.5;entryY=0;entryDx=0;entryDy=0;" edge="1" parent="1" source="Ep49lHUHMITaR3YVPtm_-63" target="Ep49lHUHMITaR3YVPtm_-287">
          <mxGeometry relative="1" as="geometry" />
        </mxCell>
        <mxCell id="Ep49lHUHMITaR3YVPtm_-309" style="edgeStyle=orthogonalEdgeStyle;rounded=0;orthogonalLoop=1;jettySize=auto;html=1;entryX=0.5;entryY=0;entryDx=0;entryDy=0;" edge="1" parent="1" source="Ep49lHUHMITaR3YVPtm_-63" target="Ep49lHUHMITaR3YVPtm_-288">
          <mxGeometry relative="1" as="geometry" />
        </mxCell>
        <mxCell id="Ep49lHUHMITaR3YVPtm_-310" style="edgeStyle=orthogonalEdgeStyle;rounded=0;orthogonalLoop=1;jettySize=auto;html=1;entryX=0.5;entryY=0;entryDx=0;entryDy=0;" edge="1" parent="1" source="Ep49lHUHMITaR3YVPtm_-63" target="Ep49lHUHMITaR3YVPtm_-289">
          <mxGeometry relative="1" as="geometry" />
        </mxCell>
        <mxCell id="Ep49lHUHMITaR3YVPtm_-63" value="aside" style="ellipse;whiteSpace=wrap;html=1;aspect=fixed;" vertex="1" parent="1">
          <mxGeometry x="3150" y="1290" width="80" height="80" as="geometry" />
        </mxCell>
        <mxCell id="Ep49lHUHMITaR3YVPtm_-331" style="edgeStyle=orthogonalEdgeStyle;rounded=0;orthogonalLoop=1;jettySize=auto;html=1;entryX=0.5;entryY=0;entryDx=0;entryDy=0;" edge="1" parent="1" source="Ep49lHUHMITaR3YVPtm_-65" target="Ep49lHUHMITaR3YVPtm_-329">
          <mxGeometry relative="1" as="geometry" />
        </mxCell>
        <mxCell id="Ep49lHUHMITaR3YVPtm_-65" value="footer" style="ellipse;whiteSpace=wrap;html=1;aspect=fixed;" vertex="1" parent="1">
          <mxGeometry x="3640" y="1295" width="80" height="80" as="geometry" />
        </mxCell>
        <mxCell id="Ep49lHUHMITaR3YVPtm_-183" style="edgeStyle=orthogonalEdgeStyle;rounded=0;orthogonalLoop=1;jettySize=auto;html=1;entryX=0.5;entryY=0;entryDx=0;entryDy=0;" edge="1" parent="1" target="Ep49lHUHMITaR3YVPtm_-58">
          <mxGeometry relative="1" as="geometry">
            <mxPoint x="1355" y="859.9999999999995" as="sourcePoint" />
            <Array as="points">
              <mxPoint x="245" y="860" />
            </Array>
          </mxGeometry>
        </mxCell>
        <mxCell id="Ep49lHUHMITaR3YVPtm_-184" style="edgeStyle=orthogonalEdgeStyle;rounded=0;orthogonalLoop=1;jettySize=auto;html=1;entryX=0.5;entryY=0;entryDx=0;entryDy=0;" edge="1" parent="1" target="Ep49lHUHMITaR3YVPtm_-59">
          <mxGeometry relative="1" as="geometry">
            <mxPoint x="1355" y="859.9999999999995" as="sourcePoint" />
          </mxGeometry>
        </mxCell>
        <mxCell id="Ep49lHUHMITaR3YVPtm_-185" style="edgeStyle=orthogonalEdgeStyle;rounded=0;orthogonalLoop=1;jettySize=auto;html=1;entryX=0.5;entryY=0;entryDx=0;entryDy=0;exitX=0.5;exitY=1;exitDx=0;exitDy=0;" edge="1" parent="1" source="Ep49lHUHMITaR3YVPtm_-70" target="Ep49lHUHMITaR3YVPtm_-62">
          <mxGeometry relative="1" as="geometry">
            <mxPoint x="2200" y="780" as="sourcePoint" />
            <Array as="points">
              <mxPoint x="1345" y="960" />
              <mxPoint x="1800" y="960" />
              <mxPoint x="1800" y="1020" />
            </Array>
          </mxGeometry>
        </mxCell>
        <mxCell id="Ep49lHUHMITaR3YVPtm_-186" style="edgeStyle=orthogonalEdgeStyle;rounded=0;orthogonalLoop=1;jettySize=auto;html=1;" edge="1" parent="1" target="Ep49lHUHMITaR3YVPtm_-63">
          <mxGeometry relative="1" as="geometry">
            <mxPoint x="1360" y="870" as="sourcePoint" />
            <Array as="points">
              <mxPoint x="1360" y="890" />
              <mxPoint x="3190" y="890" />
            </Array>
          </mxGeometry>
        </mxCell>
        <mxCell id="Ep49lHUHMITaR3YVPtm_-187" style="edgeStyle=orthogonalEdgeStyle;rounded=0;orthogonalLoop=1;jettySize=auto;html=1;" edge="1" parent="1" target="Ep49lHUHMITaR3YVPtm_-65">
          <mxGeometry relative="1" as="geometry">
            <mxPoint x="1360" y="870" as="sourcePoint" />
            <Array as="points">
              <mxPoint x="1360" y="890" />
              <mxPoint x="3670" y="890" />
            </Array>
          </mxGeometry>
        </mxCell>
        <mxCell id="Ep49lHUHMITaR3YVPtm_-70" value="article" style="ellipse;whiteSpace=wrap;html=1;aspect=fixed;" vertex="1" parent="1">
          <mxGeometry x="1305" y="790" width="80" height="80" as="geometry" />
        </mxCell>
        <mxCell id="Ep49lHUHMITaR3YVPtm_-79" style="edgeStyle=orthogonalEdgeStyle;rounded=0;orthogonalLoop=1;jettySize=auto;html=1;" edge="1" parent="1" source="Ep49lHUHMITaR3YVPtm_-61">
          <mxGeometry relative="1" as="geometry">
            <mxPoint x="5510" y="900" as="targetPoint" />
            <Array as="points">
              <mxPoint x="5510" y="530" />
              <mxPoint x="5510" y="913" />
            </Array>
          </mxGeometry>
        </mxCell>
        <mxCell id="Ep49lHUHMITaR3YVPtm_-101" style="edgeStyle=orthogonalEdgeStyle;rounded=0;orthogonalLoop=1;jettySize=auto;html=1;entryX=0.5;entryY=0;entryDx=0;entryDy=0;" edge="1" parent="1" source="Ep49lHUHMITaR3YVPtm_-91" target="Ep49lHUHMITaR3YVPtm_-97">
          <mxGeometry relative="1" as="geometry" />
        </mxCell>
        <mxCell id="Ep49lHUHMITaR3YVPtm_-91" value="h3" style="ellipse;whiteSpace=wrap;html=1;aspect=fixed;" vertex="1" parent="1">
          <mxGeometry x="130" y="1115" width="80" height="80" as="geometry" />
        </mxCell>
        <mxCell id="Ep49lHUHMITaR3YVPtm_-95" value="p" style="ellipse;whiteSpace=wrap;html=1;aspect=fixed;" vertex="1" parent="1">
          <mxGeometry x="265" y="1105" width="80" height="80" as="geometry" />
        </mxCell>
        <mxCell id="Ep49lHUHMITaR3YVPtm_-114" style="edgeStyle=orthogonalEdgeStyle;rounded=0;orthogonalLoop=1;jettySize=auto;html=1;" edge="1" parent="1" source="Ep49lHUHMITaR3YVPtm_-96" target="Ep49lHUHMITaR3YVPtm_-111">
          <mxGeometry relative="1" as="geometry" />
        </mxCell>
        <mxCell id="Ep49lHUHMITaR3YVPtm_-115" style="edgeStyle=orthogonalEdgeStyle;rounded=0;orthogonalLoop=1;jettySize=auto;html=1;entryX=0.5;entryY=0;entryDx=0;entryDy=0;" edge="1" parent="1" source="Ep49lHUHMITaR3YVPtm_-96" target="Ep49lHUHMITaR3YVPtm_-112">
          <mxGeometry relative="1" as="geometry" />
        </mxCell>
        <mxCell id="Ep49lHUHMITaR3YVPtm_-96" value="section" style="ellipse;whiteSpace=wrap;html=1;aspect=fixed;" vertex="1" parent="1">
          <mxGeometry x="735" y="1150" width="80" height="80" as="geometry" />
        </mxCell>
        <mxCell id="Ep49lHUHMITaR3YVPtm_-97" value="span" style="ellipse;whiteSpace=wrap;html=1;aspect=fixed;" vertex="1" parent="1">
          <mxGeometry x="130" y="1235" width="80" height="80" as="geometry" />
        </mxCell>
        <mxCell id="Ep49lHUHMITaR3YVPtm_-100" style="edgeStyle=orthogonalEdgeStyle;rounded=0;orthogonalLoop=1;jettySize=auto;html=1;entryX=0.405;entryY=0.014;entryDx=0;entryDy=0;entryPerimeter=0;" edge="1" parent="1" source="Ep49lHUHMITaR3YVPtm_-58" target="Ep49lHUHMITaR3YVPtm_-91">
          <mxGeometry relative="1" as="geometry" />
        </mxCell>
        <mxCell id="Ep49lHUHMITaR3YVPtm_-156" style="edgeStyle=orthogonalEdgeStyle;rounded=0;orthogonalLoop=1;jettySize=auto;html=1;entryX=0.5;entryY=0;entryDx=0;entryDy=0;" edge="1" parent="1" source="Ep49lHUHMITaR3YVPtm_-110" target="Ep49lHUHMITaR3YVPtm_-153">
          <mxGeometry relative="1" as="geometry" />
        </mxCell>
        <mxCell id="Ep49lHUHMITaR3YVPtm_-157" style="edgeStyle=orthogonalEdgeStyle;rounded=0;orthogonalLoop=1;jettySize=auto;html=1;entryX=0.5;entryY=0;entryDx=0;entryDy=0;" edge="1" parent="1" source="Ep49lHUHMITaR3YVPtm_-110" target="Ep49lHUHMITaR3YVPtm_-154">
          <mxGeometry relative="1" as="geometry" />
        </mxCell>
        <mxCell id="Ep49lHUHMITaR3YVPtm_-110" value="section" style="ellipse;whiteSpace=wrap;html=1;aspect=fixed;" vertex="1" parent="1">
          <mxGeometry x="865" y="1140" width="80" height="80" as="geometry" />
        </mxCell>
        <mxCell id="Ep49lHUHMITaR3YVPtm_-111" value="h4" style="ellipse;whiteSpace=wrap;html=1;aspect=fixed;" vertex="1" parent="1">
          <mxGeometry x="665" y="1330" width="80" height="80" as="geometry" />
        </mxCell>
        <mxCell id="Ep49lHUHMITaR3YVPtm_-118" style="edgeStyle=orthogonalEdgeStyle;rounded=0;orthogonalLoop=1;jettySize=auto;html=1;entryX=0.5;entryY=0;entryDx=0;entryDy=0;" edge="1" parent="1" source="Ep49lHUHMITaR3YVPtm_-112" target="Ep49lHUHMITaR3YVPtm_-116">
          <mxGeometry relative="1" as="geometry" />
        </mxCell>
        <mxCell id="Ep49lHUHMITaR3YVPtm_-119" style="edgeStyle=orthogonalEdgeStyle;rounded=0;orthogonalLoop=1;jettySize=auto;html=1;entryX=0.5;entryY=0;entryDx=0;entryDy=0;" edge="1" parent="1" source="Ep49lHUHMITaR3YVPtm_-112" target="Ep49lHUHMITaR3YVPtm_-113">
          <mxGeometry relative="1" as="geometry" />
        </mxCell>
        <mxCell id="Ep49lHUHMITaR3YVPtm_-120" style="edgeStyle=orthogonalEdgeStyle;rounded=0;orthogonalLoop=1;jettySize=auto;html=1;" edge="1" parent="1" source="Ep49lHUHMITaR3YVPtm_-112" target="Ep49lHUHMITaR3YVPtm_-117">
          <mxGeometry relative="1" as="geometry">
            <Array as="points">
              <mxPoint x="815" y="1440" />
              <mxPoint x="935" y="1440" />
            </Array>
          </mxGeometry>
        </mxCell>
        <mxCell id="Ep49lHUHMITaR3YVPtm_-112" value="ul" style="ellipse;whiteSpace=wrap;html=1;aspect=fixed;" vertex="1" parent="1">
          <mxGeometry x="775" y="1330" width="80" height="80" as="geometry" />
        </mxCell>
        <mxCell id="Ep49lHUHMITaR3YVPtm_-144" style="edgeStyle=orthogonalEdgeStyle;rounded=0;orthogonalLoop=1;jettySize=auto;html=1;entryX=0.5;entryY=0;entryDx=0;entryDy=0;" edge="1" parent="1" source="Ep49lHUHMITaR3YVPtm_-113" target="Ep49lHUHMITaR3YVPtm_-121">
          <mxGeometry relative="1" as="geometry" />
        </mxCell>
        <mxCell id="Ep49lHUHMITaR3YVPtm_-113" value="li" style="ellipse;whiteSpace=wrap;html=1;aspect=fixed;" vertex="1" parent="1">
          <mxGeometry x="715" y="1490" width="80" height="80" as="geometry" />
        </mxCell>
        <mxCell id="Ep49lHUHMITaR3YVPtm_-150" style="edgeStyle=orthogonalEdgeStyle;rounded=0;orthogonalLoop=1;jettySize=auto;html=1;entryX=0.5;entryY=0;entryDx=0;entryDy=0;" edge="1" parent="1" source="Ep49lHUHMITaR3YVPtm_-116" target="Ep49lHUHMITaR3YVPtm_-147">
          <mxGeometry relative="1" as="geometry" />
        </mxCell>
        <mxCell id="Ep49lHUHMITaR3YVPtm_-116" value="li" style="ellipse;whiteSpace=wrap;html=1;aspect=fixed;" vertex="1" parent="1">
          <mxGeometry x="805" y="1490" width="80" height="80" as="geometry" />
        </mxCell>
        <mxCell id="Ep49lHUHMITaR3YVPtm_-117" value="li" style="ellipse;whiteSpace=wrap;html=1;aspect=fixed;" vertex="1" parent="1">
          <mxGeometry x="895" y="1480" width="80" height="80" as="geometry" />
        </mxCell>
        <mxCell id="Ep49lHUHMITaR3YVPtm_-145" style="edgeStyle=orthogonalEdgeStyle;rounded=0;orthogonalLoop=1;jettySize=auto;html=1;entryX=0.5;entryY=0;entryDx=0;entryDy=0;" edge="1" parent="1" source="Ep49lHUHMITaR3YVPtm_-121" target="Ep49lHUHMITaR3YVPtm_-124">
          <mxGeometry relative="1" as="geometry" />
        </mxCell>
        <mxCell id="Ep49lHUHMITaR3YVPtm_-146" style="edgeStyle=orthogonalEdgeStyle;rounded=0;orthogonalLoop=1;jettySize=auto;html=1;entryX=0.5;entryY=0;entryDx=0;entryDy=0;" edge="1" parent="1" source="Ep49lHUHMITaR3YVPtm_-121" target="Ep49lHUHMITaR3YVPtm_-123">
          <mxGeometry relative="1" as="geometry" />
        </mxCell>
        <mxCell id="Ep49lHUHMITaR3YVPtm_-121" value="ul" style="ellipse;whiteSpace=wrap;html=1;aspect=fixed;" vertex="1" parent="1">
          <mxGeometry x="645" y="1620" width="80" height="80" as="geometry" />
        </mxCell>
        <mxCell id="Ep49lHUHMITaR3YVPtm_-948" style="edgeStyle=orthogonalEdgeStyle;rounded=0;orthogonalLoop=1;jettySize=auto;html=1;entryX=0.5;entryY=0;entryDx=0;entryDy=0;" edge="1" parent="1" source="Ep49lHUHMITaR3YVPtm_-123" target="Ep49lHUHMITaR3YVPtm_-125">
          <mxGeometry relative="1" as="geometry" />
        </mxCell>
        <mxCell id="Ep49lHUHMITaR3YVPtm_-123" value="li" style="ellipse;whiteSpace=wrap;html=1;aspect=fixed;" vertex="1" parent="1">
          <mxGeometry x="625" y="1780" width="80" height="80" as="geometry" />
        </mxCell>
        <mxCell id="Ep49lHUHMITaR3YVPtm_-124" value="li" style="ellipse;whiteSpace=wrap;html=1;aspect=fixed;" vertex="1" parent="1">
          <mxGeometry x="725" y="1780" width="80" height="80" as="geometry" />
        </mxCell>
        <mxCell id="Ep49lHUHMITaR3YVPtm_-949" style="edgeStyle=orthogonalEdgeStyle;rounded=0;orthogonalLoop=1;jettySize=auto;html=1;entryX=0.5;entryY=0;entryDx=0;entryDy=0;" edge="1" parent="1" source="Ep49lHUHMITaR3YVPtm_-125" target="Ep49lHUHMITaR3YVPtm_-126">
          <mxGeometry relative="1" as="geometry" />
        </mxCell>
        <mxCell id="Ep49lHUHMITaR3YVPtm_-950" style="edgeStyle=orthogonalEdgeStyle;rounded=0;orthogonalLoop=1;jettySize=auto;html=1;entryX=0.5;entryY=0;entryDx=0;entryDy=0;" edge="1" parent="1" source="Ep49lHUHMITaR3YVPtm_-125" target="Ep49lHUHMITaR3YVPtm_-127">
          <mxGeometry relative="1" as="geometry" />
        </mxCell>
        <mxCell id="Ep49lHUHMITaR3YVPtm_-125" value="ul" style="ellipse;whiteSpace=wrap;html=1;aspect=fixed;" vertex="1" parent="1">
          <mxGeometry x="625" y="1900" width="80" height="80" as="geometry" />
        </mxCell>
        <mxCell id="Ep49lHUHMITaR3YVPtm_-951" style="edgeStyle=orthogonalEdgeStyle;rounded=0;orthogonalLoop=1;jettySize=auto;html=1;entryX=0.5;entryY=0;entryDx=0;entryDy=0;" edge="1" parent="1" source="Ep49lHUHMITaR3YVPtm_-126" target="Ep49lHUHMITaR3YVPtm_-128">
          <mxGeometry relative="1" as="geometry" />
        </mxCell>
        <mxCell id="Ep49lHUHMITaR3YVPtm_-126" value="li" style="ellipse;whiteSpace=wrap;html=1;aspect=fixed;" vertex="1" parent="1">
          <mxGeometry x="575" y="2030" width="80" height="80" as="geometry" />
        </mxCell>
        <mxCell id="Ep49lHUHMITaR3YVPtm_-127" value="li" style="ellipse;whiteSpace=wrap;html=1;aspect=fixed;" vertex="1" parent="1">
          <mxGeometry x="675" y="2030" width="80" height="80" as="geometry" />
        </mxCell>
        <mxCell id="Ep49lHUHMITaR3YVPtm_-952" style="edgeStyle=orthogonalEdgeStyle;rounded=0;orthogonalLoop=1;jettySize=auto;html=1;entryX=0.5;entryY=0;entryDx=0;entryDy=0;" edge="1" parent="1" source="Ep49lHUHMITaR3YVPtm_-128" target="Ep49lHUHMITaR3YVPtm_-129">
          <mxGeometry relative="1" as="geometry" />
        </mxCell>
        <mxCell id="Ep49lHUHMITaR3YVPtm_-953" style="edgeStyle=orthogonalEdgeStyle;rounded=0;orthogonalLoop=1;jettySize=auto;html=1;entryX=0.5;entryY=0;entryDx=0;entryDy=0;" edge="1" parent="1" source="Ep49lHUHMITaR3YVPtm_-128" target="Ep49lHUHMITaR3YVPtm_-130">
          <mxGeometry relative="1" as="geometry" />
        </mxCell>
        <mxCell id="Ep49lHUHMITaR3YVPtm_-128" value="ul" style="ellipse;whiteSpace=wrap;html=1;aspect=fixed;" vertex="1" parent="1">
          <mxGeometry x="575" y="2150" width="80" height="80" as="geometry" />
        </mxCell>
        <mxCell id="Ep49lHUHMITaR3YVPtm_-955" style="edgeStyle=orthogonalEdgeStyle;rounded=0;orthogonalLoop=1;jettySize=auto;html=1;entryX=0.5;entryY=0;entryDx=0;entryDy=0;" edge="1" parent="1" source="Ep49lHUHMITaR3YVPtm_-129" target="Ep49lHUHMITaR3YVPtm_-132">
          <mxGeometry relative="1" as="geometry" />
        </mxCell>
        <mxCell id="Ep49lHUHMITaR3YVPtm_-129" value="li" style="ellipse;whiteSpace=wrap;html=1;aspect=fixed;" vertex="1" parent="1">
          <mxGeometry x="525" y="2260" width="80" height="80" as="geometry" />
        </mxCell>
        <mxCell id="Ep49lHUHMITaR3YVPtm_-130" value="li" style="ellipse;whiteSpace=wrap;html=1;aspect=fixed;" vertex="1" parent="1">
          <mxGeometry x="625" y="2260" width="80" height="80" as="geometry" />
        </mxCell>
        <mxCell id="Ep49lHUHMITaR3YVPtm_-956" style="edgeStyle=orthogonalEdgeStyle;rounded=0;orthogonalLoop=1;jettySize=auto;html=1;entryX=0.5;entryY=0;entryDx=0;entryDy=0;" edge="1" parent="1" source="Ep49lHUHMITaR3YVPtm_-131" target="Ep49lHUHMITaR3YVPtm_-133">
          <mxGeometry relative="1" as="geometry" />
        </mxCell>
        <mxCell id="Ep49lHUHMITaR3YVPtm_-957" style="edgeStyle=orthogonalEdgeStyle;rounded=0;orthogonalLoop=1;jettySize=auto;html=1;entryX=0.5;entryY=0;entryDx=0;entryDy=0;" edge="1" parent="1" source="Ep49lHUHMITaR3YVPtm_-131" target="Ep49lHUHMITaR3YVPtm_-134">
          <mxGeometry relative="1" as="geometry" />
        </mxCell>
        <mxCell id="Ep49lHUHMITaR3YVPtm_-131" value="ul" style="ellipse;whiteSpace=wrap;html=1;aspect=fixed;" vertex="1" parent="1">
          <mxGeometry x="445" y="2400" width="80" height="80" as="geometry" />
        </mxCell>
        <mxCell id="Ep49lHUHMITaR3YVPtm_-132" value="li" style="ellipse;whiteSpace=wrap;html=1;aspect=fixed;" vertex="1" parent="1">
          <mxGeometry x="555" y="2400" width="80" height="80" as="geometry" />
        </mxCell>
        <mxCell id="Ep49lHUHMITaR3YVPtm_-959" style="edgeStyle=orthogonalEdgeStyle;rounded=0;orthogonalLoop=1;jettySize=auto;html=1;entryX=0.5;entryY=0;entryDx=0;entryDy=0;" edge="1" parent="1" source="Ep49lHUHMITaR3YVPtm_-133" target="Ep49lHUHMITaR3YVPtm_-136">
          <mxGeometry relative="1" as="geometry" />
        </mxCell>
        <mxCell id="Ep49lHUHMITaR3YVPtm_-133" value="li" style="ellipse;whiteSpace=wrap;html=1;aspect=fixed;" vertex="1" parent="1">
          <mxGeometry x="395" y="2530" width="80" height="80" as="geometry" />
        </mxCell>
        <mxCell id="Ep49lHUHMITaR3YVPtm_-134" value="li" style="ellipse;whiteSpace=wrap;html=1;aspect=fixed;" vertex="1" parent="1">
          <mxGeometry x="495" y="2530" width="80" height="80" as="geometry" />
        </mxCell>
        <mxCell id="Ep49lHUHMITaR3YVPtm_-960" style="edgeStyle=orthogonalEdgeStyle;rounded=0;orthogonalLoop=1;jettySize=auto;html=1;entryX=0.5;entryY=0;entryDx=0;entryDy=0;" edge="1" parent="1" source="Ep49lHUHMITaR3YVPtm_-135" target="Ep49lHUHMITaR3YVPtm_-137">
          <mxGeometry relative="1" as="geometry" />
        </mxCell>
        <mxCell id="Ep49lHUHMITaR3YVPtm_-961" style="edgeStyle=orthogonalEdgeStyle;rounded=0;orthogonalLoop=1;jettySize=auto;html=1;entryX=0.5;entryY=0;entryDx=0;entryDy=0;" edge="1" parent="1" source="Ep49lHUHMITaR3YVPtm_-135" target="Ep49lHUHMITaR3YVPtm_-138">
          <mxGeometry relative="1" as="geometry" />
        </mxCell>
        <mxCell id="Ep49lHUHMITaR3YVPtm_-135" value="ul" style="ellipse;whiteSpace=wrap;html=1;aspect=fixed;" vertex="1" parent="1">
          <mxGeometry x="315" y="2670" width="80" height="80" as="geometry" />
        </mxCell>
        <mxCell id="Ep49lHUHMITaR3YVPtm_-136" value="li" style="ellipse;whiteSpace=wrap;html=1;aspect=fixed;" vertex="1" parent="1">
          <mxGeometry x="425" y="2670" width="80" height="80" as="geometry" />
        </mxCell>
        <mxCell id="Ep49lHUHMITaR3YVPtm_-962" style="edgeStyle=orthogonalEdgeStyle;rounded=0;orthogonalLoop=1;jettySize=auto;html=1;entryX=0.5;entryY=0;entryDx=0;entryDy=0;" edge="1" parent="1" source="Ep49lHUHMITaR3YVPtm_-137" target="Ep49lHUHMITaR3YVPtm_-139">
          <mxGeometry relative="1" as="geometry" />
        </mxCell>
        <mxCell id="Ep49lHUHMITaR3YVPtm_-137" value="li" style="ellipse;whiteSpace=wrap;html=1;aspect=fixed;" vertex="1" parent="1">
          <mxGeometry x="265" y="2780" width="80" height="80" as="geometry" />
        </mxCell>
        <mxCell id="Ep49lHUHMITaR3YVPtm_-138" value="li" style="ellipse;whiteSpace=wrap;html=1;aspect=fixed;" vertex="1" parent="1">
          <mxGeometry x="365" y="2780" width="80" height="80" as="geometry" />
        </mxCell>
        <mxCell id="Ep49lHUHMITaR3YVPtm_-963" style="edgeStyle=orthogonalEdgeStyle;rounded=0;orthogonalLoop=1;jettySize=auto;html=1;entryX=0.5;entryY=0;entryDx=0;entryDy=0;" edge="1" parent="1" source="Ep49lHUHMITaR3YVPtm_-139" target="Ep49lHUHMITaR3YVPtm_-142">
          <mxGeometry relative="1" as="geometry" />
        </mxCell>
        <mxCell id="Ep49lHUHMITaR3YVPtm_-964" style="edgeStyle=orthogonalEdgeStyle;rounded=0;orthogonalLoop=1;jettySize=auto;html=1;entryX=0.5;entryY=0;entryDx=0;entryDy=0;" edge="1" parent="1" source="Ep49lHUHMITaR3YVPtm_-139" target="Ep49lHUHMITaR3YVPtm_-143">
          <mxGeometry relative="1" as="geometry" />
        </mxCell>
        <mxCell id="Ep49lHUHMITaR3YVPtm_-965" style="edgeStyle=orthogonalEdgeStyle;rounded=0;orthogonalLoop=1;jettySize=auto;html=1;entryX=0.5;entryY=0;entryDx=0;entryDy=0;" edge="1" parent="1" source="Ep49lHUHMITaR3YVPtm_-139" target="Ep49lHUHMITaR3YVPtm_-141">
          <mxGeometry relative="1" as="geometry" />
        </mxCell>
        <mxCell id="Ep49lHUHMITaR3YVPtm_-139" value="ul" style="ellipse;whiteSpace=wrap;html=1;aspect=fixed;" vertex="1" parent="1">
          <mxGeometry x="265" y="2900" width="80" height="80" as="geometry" />
        </mxCell>
        <mxCell id="Ep49lHUHMITaR3YVPtm_-141" value="li" style="ellipse;whiteSpace=wrap;html=1;aspect=fixed;" vertex="1" parent="1">
          <mxGeometry x="170" y="3020" width="80" height="80" as="geometry" />
        </mxCell>
        <mxCell id="Ep49lHUHMITaR3YVPtm_-142" value="li" style="ellipse;whiteSpace=wrap;html=1;aspect=fixed;" vertex="1" parent="1">
          <mxGeometry x="265" y="3020" width="80" height="80" as="geometry" />
        </mxCell>
        <mxCell id="Ep49lHUHMITaR3YVPtm_-143" value="li" style="ellipse;whiteSpace=wrap;html=1;aspect=fixed;" vertex="1" parent="1">
          <mxGeometry x="365" y="3010" width="80" height="80" as="geometry" />
        </mxCell>
        <mxCell id="Ep49lHUHMITaR3YVPtm_-167" style="edgeStyle=orthogonalEdgeStyle;rounded=0;orthogonalLoop=1;jettySize=auto;html=1;entryX=0.5;entryY=0;entryDx=0;entryDy=0;" edge="1" parent="1" source="Ep49lHUHMITaR3YVPtm_-147" target="Ep49lHUHMITaR3YVPtm_-148">
          <mxGeometry relative="1" as="geometry" />
        </mxCell>
        <mxCell id="Ep49lHUHMITaR3YVPtm_-168" style="edgeStyle=orthogonalEdgeStyle;rounded=0;orthogonalLoop=1;jettySize=auto;html=1;entryX=0.5;entryY=0;entryDx=0;entryDy=0;" edge="1" parent="1" source="Ep49lHUHMITaR3YVPtm_-147" target="Ep49lHUHMITaR3YVPtm_-149">
          <mxGeometry relative="1" as="geometry" />
        </mxCell>
        <mxCell id="Ep49lHUHMITaR3YVPtm_-147" value="ul" style="ellipse;whiteSpace=wrap;html=1;aspect=fixed;" vertex="1" parent="1">
          <mxGeometry x="845" y="1620" width="80" height="80" as="geometry" />
        </mxCell>
        <mxCell id="Ep49lHUHMITaR3YVPtm_-148" value="li" style="ellipse;whiteSpace=wrap;html=1;aspect=fixed;" vertex="1" parent="1">
          <mxGeometry x="795" y="1730" width="80" height="80" as="geometry" />
        </mxCell>
        <mxCell id="Ep49lHUHMITaR3YVPtm_-149" value="li" style="ellipse;whiteSpace=wrap;html=1;aspect=fixed;" vertex="1" parent="1">
          <mxGeometry x="895" y="1730" width="80" height="80" as="geometry" />
        </mxCell>
        <mxCell id="Ep49lHUHMITaR3YVPtm_-153" value="h4" style="ellipse;whiteSpace=wrap;html=1;aspect=fixed;" vertex="1" parent="1">
          <mxGeometry x="865" y="1255" width="80" height="80" as="geometry" />
        </mxCell>
        <mxCell id="Ep49lHUHMITaR3YVPtm_-160" style="edgeStyle=orthogonalEdgeStyle;rounded=0;orthogonalLoop=1;jettySize=auto;html=1;entryX=0.5;entryY=0;entryDx=0;entryDy=0;" edge="1" parent="1" source="Ep49lHUHMITaR3YVPtm_-154" target="Ep49lHUHMITaR3YVPtm_-155">
          <mxGeometry relative="1" as="geometry" />
        </mxCell>
        <mxCell id="Ep49lHUHMITaR3YVPtm_-161" style="edgeStyle=orthogonalEdgeStyle;rounded=0;orthogonalLoop=1;jettySize=auto;html=1;entryX=0.5;entryY=0;entryDx=0;entryDy=0;" edge="1" parent="1" source="Ep49lHUHMITaR3YVPtm_-154" target="Ep49lHUHMITaR3YVPtm_-158">
          <mxGeometry relative="1" as="geometry" />
        </mxCell>
        <mxCell id="Ep49lHUHMITaR3YVPtm_-162" style="edgeStyle=orthogonalEdgeStyle;rounded=0;orthogonalLoop=1;jettySize=auto;html=1;" edge="1" parent="1" source="Ep49lHUHMITaR3YVPtm_-154" target="Ep49lHUHMITaR3YVPtm_-159">
          <mxGeometry relative="1" as="geometry" />
        </mxCell>
        <mxCell id="Ep49lHUHMITaR3YVPtm_-154" value="ol" style="ellipse;whiteSpace=wrap;html=1;aspect=fixed;" vertex="1" parent="1">
          <mxGeometry x="995" y="1250" width="80" height="80" as="geometry" />
        </mxCell>
        <mxCell id="Ep49lHUHMITaR3YVPtm_-164" style="edgeStyle=orthogonalEdgeStyle;rounded=0;orthogonalLoop=1;jettySize=auto;html=1;entryX=0.5;entryY=0;entryDx=0;entryDy=0;" edge="1" parent="1" source="Ep49lHUHMITaR3YVPtm_-155" target="Ep49lHUHMITaR3YVPtm_-163">
          <mxGeometry relative="1" as="geometry" />
        </mxCell>
        <mxCell id="Ep49lHUHMITaR3YVPtm_-155" value="li" style="ellipse;whiteSpace=wrap;html=1;aspect=fixed;" vertex="1" parent="1">
          <mxGeometry x="995" y="1380" width="80" height="80" as="geometry" />
        </mxCell>
        <mxCell id="Ep49lHUHMITaR3YVPtm_-158" value="li" style="ellipse;whiteSpace=wrap;html=1;aspect=fixed;" vertex="1" parent="1">
          <mxGeometry x="1095" y="1380" width="80" height="80" as="geometry" />
        </mxCell>
        <mxCell id="Ep49lHUHMITaR3YVPtm_-159" value="li" style="ellipse;whiteSpace=wrap;html=1;aspect=fixed;" vertex="1" parent="1">
          <mxGeometry x="1195" y="1380" width="80" height="80" as="geometry" />
        </mxCell>
        <mxCell id="Ep49lHUHMITaR3YVPtm_-966" style="edgeStyle=orthogonalEdgeStyle;rounded=0;orthogonalLoop=1;jettySize=auto;html=1;exitX=0.5;exitY=1;exitDx=0;exitDy=0;entryX=0.5;entryY=0;entryDx=0;entryDy=0;" edge="1" parent="1" source="Ep49lHUHMITaR3YVPtm_-163" target="Ep49lHUHMITaR3YVPtm_-165">
          <mxGeometry relative="1" as="geometry">
            <Array as="points">
              <mxPoint x="1000" y="1570" />
              <mxPoint x="1000" y="1590" />
            </Array>
          </mxGeometry>
        </mxCell>
        <mxCell id="Ep49lHUHMITaR3YVPtm_-967" style="edgeStyle=orthogonalEdgeStyle;rounded=0;orthogonalLoop=1;jettySize=auto;html=1;entryX=0.5;entryY=0;entryDx=0;entryDy=0;" edge="1" parent="1" source="Ep49lHUHMITaR3YVPtm_-163" target="Ep49lHUHMITaR3YVPtm_-166">
          <mxGeometry relative="1" as="geometry">
            <Array as="points">
              <mxPoint x="1105" y="1570" />
            </Array>
          </mxGeometry>
        </mxCell>
        <mxCell id="Ep49lHUHMITaR3YVPtm_-163" value="ol" style="ellipse;whiteSpace=wrap;html=1;aspect=fixed;" vertex="1" parent="1">
          <mxGeometry x="1000" y="1490" width="80" height="80" as="geometry" />
        </mxCell>
        <mxCell id="Ep49lHUHMITaR3YVPtm_-165" value="li" style="ellipse;whiteSpace=wrap;html=1;aspect=fixed;" vertex="1" parent="1">
          <mxGeometry x="965" y="1590" width="80" height="80" as="geometry" />
        </mxCell>
        <mxCell id="Ep49lHUHMITaR3YVPtm_-968" style="edgeStyle=orthogonalEdgeStyle;rounded=0;orthogonalLoop=1;jettySize=auto;html=1;entryX=0.5;entryY=0;entryDx=0;entryDy=0;" edge="1" parent="1" source="Ep49lHUHMITaR3YVPtm_-166" target="Ep49lHUHMITaR3YVPtm_-169">
          <mxGeometry relative="1" as="geometry" />
        </mxCell>
        <mxCell id="Ep49lHUHMITaR3YVPtm_-166" value="li" style="ellipse;whiteSpace=wrap;html=1;aspect=fixed;" vertex="1" parent="1">
          <mxGeometry x="1065" y="1590" width="80" height="80" as="geometry" />
        </mxCell>
        <mxCell id="Ep49lHUHMITaR3YVPtm_-969" style="edgeStyle=orthogonalEdgeStyle;rounded=0;orthogonalLoop=1;jettySize=auto;html=1;exitX=0.5;exitY=1;exitDx=0;exitDy=0;entryX=0.5;entryY=0;entryDx=0;entryDy=0;" edge="1" parent="1" source="Ep49lHUHMITaR3YVPtm_-169" target="Ep49lHUHMITaR3YVPtm_-170">
          <mxGeometry relative="1" as="geometry">
            <Array as="points">
              <mxPoint x="1080" y="1770" />
              <mxPoint x="1080" y="1790" />
            </Array>
          </mxGeometry>
        </mxCell>
        <mxCell id="Ep49lHUHMITaR3YVPtm_-970" style="edgeStyle=orthogonalEdgeStyle;rounded=0;orthogonalLoop=1;jettySize=auto;html=1;entryX=0.5;entryY=0;entryDx=0;entryDy=0;" edge="1" parent="1" source="Ep49lHUHMITaR3YVPtm_-169" target="Ep49lHUHMITaR3YVPtm_-171">
          <mxGeometry relative="1" as="geometry">
            <Array as="points">
              <mxPoint x="1175" y="1770" />
            </Array>
          </mxGeometry>
        </mxCell>
        <mxCell id="Ep49lHUHMITaR3YVPtm_-169" value="ol" style="ellipse;whiteSpace=wrap;html=1;aspect=fixed;" vertex="1" parent="1">
          <mxGeometry x="1070" y="1690" width="80" height="80" as="geometry" />
        </mxCell>
        <mxCell id="Ep49lHUHMITaR3YVPtm_-170" value="li" style="ellipse;whiteSpace=wrap;html=1;aspect=fixed;" vertex="1" parent="1">
          <mxGeometry x="1035" y="1790" width="80" height="80" as="geometry" />
        </mxCell>
        <mxCell id="Ep49lHUHMITaR3YVPtm_-971" style="edgeStyle=orthogonalEdgeStyle;rounded=0;orthogonalLoop=1;jettySize=auto;html=1;entryX=0.5;entryY=0;entryDx=0;entryDy=0;" edge="1" parent="1" source="Ep49lHUHMITaR3YVPtm_-171" target="Ep49lHUHMITaR3YVPtm_-172">
          <mxGeometry relative="1" as="geometry" />
        </mxCell>
        <mxCell id="Ep49lHUHMITaR3YVPtm_-171" value="li" style="ellipse;whiteSpace=wrap;html=1;aspect=fixed;" vertex="1" parent="1">
          <mxGeometry x="1135" y="1790" width="80" height="80" as="geometry" />
        </mxCell>
        <mxCell id="Ep49lHUHMITaR3YVPtm_-972" style="edgeStyle=orthogonalEdgeStyle;rounded=0;orthogonalLoop=1;jettySize=auto;html=1;entryX=0.5;entryY=0;entryDx=0;entryDy=0;" edge="1" parent="1" source="Ep49lHUHMITaR3YVPtm_-172" target="Ep49lHUHMITaR3YVPtm_-173">
          <mxGeometry relative="1" as="geometry" />
        </mxCell>
        <mxCell id="Ep49lHUHMITaR3YVPtm_-973" style="edgeStyle=orthogonalEdgeStyle;rounded=0;orthogonalLoop=1;jettySize=auto;html=1;entryX=0.5;entryY=0;entryDx=0;entryDy=0;" edge="1" parent="1" source="Ep49lHUHMITaR3YVPtm_-172" target="Ep49lHUHMITaR3YVPtm_-174">
          <mxGeometry relative="1" as="geometry" />
        </mxCell>
        <mxCell id="Ep49lHUHMITaR3YVPtm_-172" value="ol" style="ellipse;whiteSpace=wrap;html=1;aspect=fixed;" vertex="1" parent="1">
          <mxGeometry x="1135" y="1900" width="80" height="80" as="geometry" />
        </mxCell>
        <mxCell id="Ep49lHUHMITaR3YVPtm_-173" value="li" style="ellipse;whiteSpace=wrap;html=1;aspect=fixed;" vertex="1" parent="1">
          <mxGeometry x="1090" y="2015" width="80" height="80" as="geometry" />
        </mxCell>
        <mxCell id="Ep49lHUHMITaR3YVPtm_-974" value="" style="edgeStyle=orthogonalEdgeStyle;rounded=0;orthogonalLoop=1;jettySize=auto;html=1;" edge="1" parent="1" source="Ep49lHUHMITaR3YVPtm_-174" target="Ep49lHUHMITaR3YVPtm_-175">
          <mxGeometry relative="1" as="geometry" />
        </mxCell>
        <mxCell id="Ep49lHUHMITaR3YVPtm_-174" value="li" style="ellipse;whiteSpace=wrap;html=1;aspect=fixed;" vertex="1" parent="1">
          <mxGeometry x="1190" y="2015" width="80" height="80" as="geometry" />
        </mxCell>
        <mxCell id="Ep49lHUHMITaR3YVPtm_-975" style="edgeStyle=orthogonalEdgeStyle;rounded=0;orthogonalLoop=1;jettySize=auto;html=1;entryX=0.5;entryY=0;entryDx=0;entryDy=0;" edge="1" parent="1" source="Ep49lHUHMITaR3YVPtm_-175" target="Ep49lHUHMITaR3YVPtm_-176">
          <mxGeometry relative="1" as="geometry" />
        </mxCell>
        <mxCell id="Ep49lHUHMITaR3YVPtm_-976" style="edgeStyle=orthogonalEdgeStyle;rounded=0;orthogonalLoop=1;jettySize=auto;html=1;entryX=0.5;entryY=0;entryDx=0;entryDy=0;" edge="1" parent="1" source="Ep49lHUHMITaR3YVPtm_-175" target="Ep49lHUHMITaR3YVPtm_-177">
          <mxGeometry relative="1" as="geometry" />
        </mxCell>
        <mxCell id="Ep49lHUHMITaR3YVPtm_-175" value="ol" style="ellipse;whiteSpace=wrap;html=1;aspect=fixed;" vertex="1" parent="1">
          <mxGeometry x="1190" y="2120" width="80" height="80" as="geometry" />
        </mxCell>
        <mxCell id="Ep49lHUHMITaR3YVPtm_-176" value="li" style="ellipse;whiteSpace=wrap;html=1;aspect=fixed;" vertex="1" parent="1">
          <mxGeometry x="1145" y="2225" width="80" height="80" as="geometry" />
        </mxCell>
        <mxCell id="Ep49lHUHMITaR3YVPtm_-177" value="li" style="ellipse;whiteSpace=wrap;html=1;aspect=fixed;" vertex="1" parent="1">
          <mxGeometry x="1245" y="2225" width="80" height="80" as="geometry" />
        </mxCell>
        <mxCell id="Ep49lHUHMITaR3YVPtm_-178" style="edgeStyle=orthogonalEdgeStyle;rounded=0;orthogonalLoop=1;jettySize=auto;html=1;entryX=0.5;entryY=0;entryDx=0;entryDy=0;" edge="1" parent="1" source="Ep49lHUHMITaR3YVPtm_-3" target="Ep49lHUHMITaR3YVPtm_-16">
          <mxGeometry relative="1" as="geometry" />
        </mxCell>
        <mxCell id="Ep49lHUHMITaR3YVPtm_-190" style="edgeStyle=orthogonalEdgeStyle;rounded=0;orthogonalLoop=1;jettySize=auto;html=1;" edge="1" parent="1" source="Ep49lHUHMITaR3YVPtm_-2">
          <mxGeometry relative="1" as="geometry">
            <mxPoint x="-1640" y="335" as="targetPoint" />
          </mxGeometry>
        </mxCell>
        <mxCell id="Ep49lHUHMITaR3YVPtm_-199" value="h4" style="ellipse;whiteSpace=wrap;html=1;aspect=fixed;" vertex="1" parent="1">
          <mxGeometry x="1595" y="1102.5" width="80" height="80" as="geometry" />
        </mxCell>
        <mxCell id="Ep49lHUHMITaR3YVPtm_-236" style="edgeStyle=orthogonalEdgeStyle;rounded=0;orthogonalLoop=1;jettySize=auto;html=1;entryX=0.5;entryY=0;entryDx=0;entryDy=0;" edge="1" parent="1" source="Ep49lHUHMITaR3YVPtm_-200" target="Ep49lHUHMITaR3YVPtm_-203">
          <mxGeometry relative="1" as="geometry" />
        </mxCell>
        <mxCell id="Ep49lHUHMITaR3YVPtm_-237" style="edgeStyle=orthogonalEdgeStyle;rounded=0;orthogonalLoop=1;jettySize=auto;html=1;entryX=0.5;entryY=0;entryDx=0;entryDy=0;" edge="1" parent="1" source="Ep49lHUHMITaR3YVPtm_-200" target="Ep49lHUHMITaR3YVPtm_-204">
          <mxGeometry relative="1" as="geometry" />
        </mxCell>
        <mxCell id="Ep49lHUHMITaR3YVPtm_-238" style="edgeStyle=orthogonalEdgeStyle;rounded=0;orthogonalLoop=1;jettySize=auto;html=1;" edge="1" parent="1" source="Ep49lHUHMITaR3YVPtm_-200" target="Ep49lHUHMITaR3YVPtm_-202">
          <mxGeometry relative="1" as="geometry" />
        </mxCell>
        <mxCell id="Ep49lHUHMITaR3YVPtm_-239" style="edgeStyle=orthogonalEdgeStyle;rounded=0;orthogonalLoop=1;jettySize=auto;html=1;entryX=0.5;entryY=0;entryDx=0;entryDy=0;" edge="1" parent="1" source="Ep49lHUHMITaR3YVPtm_-200" target="Ep49lHUHMITaR3YVPtm_-201">
          <mxGeometry relative="1" as="geometry" />
        </mxCell>
        <mxCell id="Ep49lHUHMITaR3YVPtm_-200" value="table" style="ellipse;whiteSpace=wrap;html=1;aspect=fixed;" vertex="1" parent="1">
          <mxGeometry x="1905" y="1160" width="80" height="80" as="geometry" />
        </mxCell>
        <mxCell id="Ep49lHUHMITaR3YVPtm_-201" value="caption" style="ellipse;whiteSpace=wrap;html=1;aspect=fixed;" vertex="1" parent="1">
          <mxGeometry x="1525" y="1300" width="80" height="80" as="geometry" />
        </mxCell>
        <mxCell id="Ep49lHUHMITaR3YVPtm_-216" style="edgeStyle=orthogonalEdgeStyle;rounded=0;orthogonalLoop=1;jettySize=auto;html=1;entryX=0.5;entryY=0;entryDx=0;entryDy=0;" edge="1" parent="1" source="Ep49lHUHMITaR3YVPtm_-202" target="Ep49lHUHMITaR3YVPtm_-205">
          <mxGeometry relative="1" as="geometry" />
        </mxCell>
        <mxCell id="Ep49lHUHMITaR3YVPtm_-977" style="edgeStyle=orthogonalEdgeStyle;rounded=0;orthogonalLoop=1;jettySize=auto;html=1;entryX=0.5;entryY=0;entryDx=0;entryDy=0;exitX=0;exitY=0.5;exitDx=0;exitDy=0;" edge="1" parent="1" source="Ep49lHUHMITaR3YVPtm_-203" target="Ep49lHUHMITaR3YVPtm_-217">
          <mxGeometry relative="1" as="geometry">
            <mxPoint x="2160" y="1340" as="sourcePoint" />
          </mxGeometry>
        </mxCell>
        <mxCell id="Ep49lHUHMITaR3YVPtm_-202" value="thead" style="ellipse;whiteSpace=wrap;html=1;aspect=fixed;" vertex="1" parent="1">
          <mxGeometry x="1655" y="1300" width="80" height="80" as="geometry" />
        </mxCell>
        <mxCell id="Ep49lHUHMITaR3YVPtm_-277" style="edgeStyle=orthogonalEdgeStyle;rounded=0;orthogonalLoop=1;jettySize=auto;html=1;entryX=0.5;entryY=0;entryDx=0;entryDy=0;" edge="1" parent="1" source="Ep49lHUHMITaR3YVPtm_-203" target="Ep49lHUHMITaR3YVPtm_-219">
          <mxGeometry relative="1" as="geometry">
            <Array as="points">
              <mxPoint x="2285" y="1335" />
            </Array>
          </mxGeometry>
        </mxCell>
        <mxCell id="Ep49lHUHMITaR3YVPtm_-278" style="edgeStyle=orthogonalEdgeStyle;rounded=0;orthogonalLoop=1;jettySize=auto;html=1;entryX=0.5;entryY=0;entryDx=0;entryDy=0;" edge="1" parent="1" source="Ep49lHUHMITaR3YVPtm_-203" target="Ep49lHUHMITaR3YVPtm_-220">
          <mxGeometry relative="1" as="geometry" />
        </mxCell>
        <mxCell id="Ep49lHUHMITaR3YVPtm_-279" style="edgeStyle=orthogonalEdgeStyle;rounded=0;orthogonalLoop=1;jettySize=auto;html=1;entryX=0.5;entryY=0;entryDx=0;entryDy=0;" edge="1" parent="1" source="Ep49lHUHMITaR3YVPtm_-203" target="Ep49lHUHMITaR3YVPtm_-218">
          <mxGeometry relative="1" as="geometry" />
        </mxCell>
        <mxCell id="Ep49lHUHMITaR3YVPtm_-203" value="tbody" style="ellipse;whiteSpace=wrap;html=1;aspect=fixed;" vertex="1" parent="1">
          <mxGeometry x="2165" y="1295" width="80" height="80" as="geometry" />
        </mxCell>
        <mxCell id="Ep49lHUHMITaR3YVPtm_-204" value="tfoot" style="ellipse;whiteSpace=wrap;html=1;aspect=fixed;" vertex="1" parent="1">
          <mxGeometry x="2675" y="1255" width="80" height="80" as="geometry" />
        </mxCell>
        <mxCell id="Ep49lHUHMITaR3YVPtm_-211" style="edgeStyle=orthogonalEdgeStyle;rounded=0;orthogonalLoop=1;jettySize=auto;html=1;entryX=0.5;entryY=0;entryDx=0;entryDy=0;" edge="1" parent="1" source="Ep49lHUHMITaR3YVPtm_-205" target="Ep49lHUHMITaR3YVPtm_-209">
          <mxGeometry relative="1" as="geometry" />
        </mxCell>
        <mxCell id="Ep49lHUHMITaR3YVPtm_-212" style="edgeStyle=orthogonalEdgeStyle;rounded=0;orthogonalLoop=1;jettySize=auto;html=1;entryX=0.5;entryY=0;entryDx=0;entryDy=0;" edge="1" parent="1" source="Ep49lHUHMITaR3YVPtm_-205" target="Ep49lHUHMITaR3YVPtm_-208">
          <mxGeometry relative="1" as="geometry" />
        </mxCell>
        <mxCell id="Ep49lHUHMITaR3YVPtm_-213" style="edgeStyle=orthogonalEdgeStyle;rounded=0;orthogonalLoop=1;jettySize=auto;html=1;entryX=0.5;entryY=0;entryDx=0;entryDy=0;" edge="1" parent="1" source="Ep49lHUHMITaR3YVPtm_-205" target="Ep49lHUHMITaR3YVPtm_-207">
          <mxGeometry relative="1" as="geometry" />
        </mxCell>
        <mxCell id="Ep49lHUHMITaR3YVPtm_-214" style="edgeStyle=orthogonalEdgeStyle;rounded=0;orthogonalLoop=1;jettySize=auto;html=1;entryX=0.5;entryY=0;entryDx=0;entryDy=0;" edge="1" parent="1" source="Ep49lHUHMITaR3YVPtm_-205" target="Ep49lHUHMITaR3YVPtm_-206">
          <mxGeometry relative="1" as="geometry" />
        </mxCell>
        <mxCell id="Ep49lHUHMITaR3YVPtm_-215" style="edgeStyle=orthogonalEdgeStyle;rounded=0;orthogonalLoop=1;jettySize=auto;html=1;entryX=0.5;entryY=0;entryDx=0;entryDy=0;" edge="1" parent="1" source="Ep49lHUHMITaR3YVPtm_-205" target="Ep49lHUHMITaR3YVPtm_-210">
          <mxGeometry relative="1" as="geometry" />
        </mxCell>
        <mxCell id="Ep49lHUHMITaR3YVPtm_-205" value="tr" style="ellipse;whiteSpace=wrap;html=1;aspect=fixed;" vertex="1" parent="1">
          <mxGeometry x="1655" y="1420" width="80" height="80" as="geometry" />
        </mxCell>
        <mxCell id="Ep49lHUHMITaR3YVPtm_-206" value="th" style="ellipse;whiteSpace=wrap;html=1;aspect=fixed;" vertex="1" parent="1">
          <mxGeometry x="1380" y="1575" width="80" height="80" as="geometry" />
        </mxCell>
        <mxCell id="Ep49lHUHMITaR3YVPtm_-207" value="th" style="ellipse;whiteSpace=wrap;html=1;aspect=fixed;" vertex="1" parent="1">
          <mxGeometry x="1470" y="1575" width="80" height="80" as="geometry" />
        </mxCell>
        <mxCell id="Ep49lHUHMITaR3YVPtm_-208" value="th" style="ellipse;whiteSpace=wrap;html=1;aspect=fixed;" vertex="1" parent="1">
          <mxGeometry x="1560" y="1575" width="80" height="80" as="geometry" />
        </mxCell>
        <mxCell id="Ep49lHUHMITaR3YVPtm_-209" value="th" style="ellipse;whiteSpace=wrap;html=1;aspect=fixed;" vertex="1" parent="1">
          <mxGeometry x="1655" y="1570" width="80" height="80" as="geometry" />
        </mxCell>
        <mxCell id="Ep49lHUHMITaR3YVPtm_-210" value="th" style="ellipse;whiteSpace=wrap;html=1;aspect=fixed;" vertex="1" parent="1">
          <mxGeometry x="1290" y="1575" width="80" height="80" as="geometry" />
        </mxCell>
        <mxCell id="Ep49lHUHMITaR3YVPtm_-259" style="edgeStyle=orthogonalEdgeStyle;rounded=0;orthogonalLoop=1;jettySize=auto;html=1;entryX=0.5;entryY=0;entryDx=0;entryDy=0;" edge="1" parent="1" source="Ep49lHUHMITaR3YVPtm_-217" target="Ep49lHUHMITaR3YVPtm_-221">
          <mxGeometry relative="1" as="geometry" />
        </mxCell>
        <mxCell id="Ep49lHUHMITaR3YVPtm_-260" style="edgeStyle=orthogonalEdgeStyle;rounded=0;orthogonalLoop=1;jettySize=auto;html=1;entryX=0.5;entryY=0;entryDx=0;entryDy=0;" edge="1" parent="1" source="Ep49lHUHMITaR3YVPtm_-217" target="Ep49lHUHMITaR3YVPtm_-241">
          <mxGeometry relative="1" as="geometry" />
        </mxCell>
        <mxCell id="Ep49lHUHMITaR3YVPtm_-261" style="edgeStyle=orthogonalEdgeStyle;rounded=0;orthogonalLoop=1;jettySize=auto;html=1;entryX=0.5;entryY=0;entryDx=0;entryDy=0;" edge="1" parent="1" source="Ep49lHUHMITaR3YVPtm_-217" target="Ep49lHUHMITaR3YVPtm_-240">
          <mxGeometry relative="1" as="geometry" />
        </mxCell>
        <mxCell id="Ep49lHUHMITaR3YVPtm_-262" style="edgeStyle=orthogonalEdgeStyle;rounded=0;orthogonalLoop=1;jettySize=auto;html=1;entryX=0.5;entryY=0;entryDx=0;entryDy=0;" edge="1" parent="1" source="Ep49lHUHMITaR3YVPtm_-217" target="Ep49lHUHMITaR3YVPtm_-242">
          <mxGeometry relative="1" as="geometry">
            <Array as="points">
              <mxPoint x="1885" y="1525" />
              <mxPoint x="1843" y="1525" />
            </Array>
          </mxGeometry>
        </mxCell>
        <mxCell id="Ep49lHUHMITaR3YVPtm_-263" style="edgeStyle=orthogonalEdgeStyle;rounded=0;orthogonalLoop=1;jettySize=auto;html=1;entryX=0.5;entryY=0;entryDx=0;entryDy=0;" edge="1" parent="1" source="Ep49lHUHMITaR3YVPtm_-217" target="Ep49lHUHMITaR3YVPtm_-243">
          <mxGeometry relative="1" as="geometry">
            <Array as="points">
              <mxPoint x="1885" y="1525" />
              <mxPoint x="1927" y="1525" />
            </Array>
          </mxGeometry>
        </mxCell>
        <mxCell id="Ep49lHUHMITaR3YVPtm_-217" value="tr" style="ellipse;whiteSpace=wrap;html=1;aspect=fixed;" vertex="1" parent="1">
          <mxGeometry x="1845" y="1405" width="80" height="80" as="geometry" />
        </mxCell>
        <mxCell id="Ep49lHUHMITaR3YVPtm_-264" style="edgeStyle=orthogonalEdgeStyle;rounded=0;orthogonalLoop=1;jettySize=auto;html=1;" edge="1" parent="1" source="Ep49lHUHMITaR3YVPtm_-218" target="Ep49lHUHMITaR3YVPtm_-249">
          <mxGeometry relative="1" as="geometry" />
        </mxCell>
        <mxCell id="Ep49lHUHMITaR3YVPtm_-265" style="edgeStyle=orthogonalEdgeStyle;rounded=0;orthogonalLoop=1;jettySize=auto;html=1;entryX=0.5;entryY=0;entryDx=0;entryDy=0;" edge="1" parent="1" source="Ep49lHUHMITaR3YVPtm_-218" target="Ep49lHUHMITaR3YVPtm_-250">
          <mxGeometry relative="1" as="geometry" />
        </mxCell>
        <mxCell id="Ep49lHUHMITaR3YVPtm_-266" style="edgeStyle=orthogonalEdgeStyle;rounded=0;orthogonalLoop=1;jettySize=auto;html=1;entryX=0.5;entryY=0;entryDx=0;entryDy=0;" edge="1" parent="1" source="Ep49lHUHMITaR3YVPtm_-218" target="Ep49lHUHMITaR3YVPtm_-252">
          <mxGeometry relative="1" as="geometry" />
        </mxCell>
        <mxCell id="Ep49lHUHMITaR3YVPtm_-267" style="edgeStyle=orthogonalEdgeStyle;rounded=0;orthogonalLoop=1;jettySize=auto;html=1;entryX=0.5;entryY=0;entryDx=0;entryDy=0;" edge="1" parent="1" source="Ep49lHUHMITaR3YVPtm_-218" target="Ep49lHUHMITaR3YVPtm_-253">
          <mxGeometry relative="1" as="geometry" />
        </mxCell>
        <mxCell id="Ep49lHUHMITaR3YVPtm_-218" value="tr" style="ellipse;whiteSpace=wrap;html=1;aspect=fixed;" vertex="1" parent="1">
          <mxGeometry x="2045" y="1405" width="80" height="80" as="geometry" />
        </mxCell>
        <mxCell id="Ep49lHUHMITaR3YVPtm_-268" style="edgeStyle=orthogonalEdgeStyle;rounded=0;orthogonalLoop=1;jettySize=auto;html=1;entryX=0.5;entryY=0;entryDx=0;entryDy=0;" edge="1" parent="1" source="Ep49lHUHMITaR3YVPtm_-219" target="Ep49lHUHMITaR3YVPtm_-254">
          <mxGeometry relative="1" as="geometry" />
        </mxCell>
        <mxCell id="Ep49lHUHMITaR3YVPtm_-269" style="edgeStyle=orthogonalEdgeStyle;rounded=0;orthogonalLoop=1;jettySize=auto;html=1;entryX=0.5;entryY=0;entryDx=0;entryDy=0;" edge="1" parent="1" source="Ep49lHUHMITaR3YVPtm_-219" target="Ep49lHUHMITaR3YVPtm_-255">
          <mxGeometry relative="1" as="geometry" />
        </mxCell>
        <mxCell id="Ep49lHUHMITaR3YVPtm_-270" style="edgeStyle=orthogonalEdgeStyle;rounded=0;orthogonalLoop=1;jettySize=auto;html=1;entryX=0.5;entryY=0;entryDx=0;entryDy=0;" edge="1" parent="1" source="Ep49lHUHMITaR3YVPtm_-219" target="Ep49lHUHMITaR3YVPtm_-258">
          <mxGeometry relative="1" as="geometry" />
        </mxCell>
        <mxCell id="Ep49lHUHMITaR3YVPtm_-271" style="edgeStyle=orthogonalEdgeStyle;rounded=0;orthogonalLoop=1;jettySize=auto;html=1;entryX=0.5;entryY=0;entryDx=0;entryDy=0;" edge="1" parent="1" source="Ep49lHUHMITaR3YVPtm_-219" target="Ep49lHUHMITaR3YVPtm_-257">
          <mxGeometry relative="1" as="geometry">
            <Array as="points">
              <mxPoint x="2285" y="1530" />
              <mxPoint x="2270" y="1530" />
            </Array>
          </mxGeometry>
        </mxCell>
        <mxCell id="Ep49lHUHMITaR3YVPtm_-219" value="tr" style="ellipse;whiteSpace=wrap;html=1;aspect=fixed;" vertex="1" parent="1">
          <mxGeometry x="2245" y="1407.5" width="80" height="80" as="geometry" />
        </mxCell>
        <mxCell id="Ep49lHUHMITaR3YVPtm_-272" style="edgeStyle=orthogonalEdgeStyle;rounded=0;orthogonalLoop=1;jettySize=auto;html=1;entryX=0.5;entryY=0;entryDx=0;entryDy=0;" edge="1" parent="1" source="Ep49lHUHMITaR3YVPtm_-220" target="Ep49lHUHMITaR3YVPtm_-244">
          <mxGeometry relative="1" as="geometry" />
        </mxCell>
        <mxCell id="Ep49lHUHMITaR3YVPtm_-273" style="edgeStyle=orthogonalEdgeStyle;rounded=0;orthogonalLoop=1;jettySize=auto;html=1;entryX=0.5;entryY=0;entryDx=0;entryDy=0;" edge="1" parent="1" source="Ep49lHUHMITaR3YVPtm_-220" target="Ep49lHUHMITaR3YVPtm_-245">
          <mxGeometry relative="1" as="geometry" />
        </mxCell>
        <mxCell id="Ep49lHUHMITaR3YVPtm_-274" style="edgeStyle=orthogonalEdgeStyle;rounded=0;orthogonalLoop=1;jettySize=auto;html=1;entryX=0.5;entryY=0;entryDx=0;entryDy=0;" edge="1" parent="1" source="Ep49lHUHMITaR3YVPtm_-220" target="Ep49lHUHMITaR3YVPtm_-246">
          <mxGeometry relative="1" as="geometry" />
        </mxCell>
        <mxCell id="Ep49lHUHMITaR3YVPtm_-275" style="edgeStyle=orthogonalEdgeStyle;rounded=0;orthogonalLoop=1;jettySize=auto;html=1;entryX=0.5;entryY=0;entryDx=0;entryDy=0;" edge="1" parent="1" source="Ep49lHUHMITaR3YVPtm_-220" target="Ep49lHUHMITaR3YVPtm_-247">
          <mxGeometry relative="1" as="geometry">
            <Array as="points">
              <mxPoint x="2475" y="1525" />
              <mxPoint x="2433" y="1525" />
            </Array>
          </mxGeometry>
        </mxCell>
        <mxCell id="Ep49lHUHMITaR3YVPtm_-276" style="edgeStyle=orthogonalEdgeStyle;rounded=0;orthogonalLoop=1;jettySize=auto;html=1;entryX=0.5;entryY=0;entryDx=0;entryDy=0;" edge="1" parent="1" source="Ep49lHUHMITaR3YVPtm_-220" target="Ep49lHUHMITaR3YVPtm_-248">
          <mxGeometry relative="1" as="geometry">
            <Array as="points">
              <mxPoint x="2475" y="1525" />
              <mxPoint x="2517" y="1525" />
            </Array>
          </mxGeometry>
        </mxCell>
        <mxCell id="Ep49lHUHMITaR3YVPtm_-220" value="tr" style="ellipse;whiteSpace=wrap;html=1;aspect=fixed;" vertex="1" parent="1">
          <mxGeometry x="2435" y="1407.5" width="80" height="80" as="geometry" />
        </mxCell>
        <mxCell id="Ep49lHUHMITaR3YVPtm_-221" value="td" style="ellipse;whiteSpace=wrap;html=1;aspect=fixed;" vertex="1" parent="1">
          <mxGeometry x="1775" y="1575" width="50" height="50" as="geometry" />
        </mxCell>
        <mxCell id="Ep49lHUHMITaR3YVPtm_-222" style="edgeStyle=orthogonalEdgeStyle;rounded=0;orthogonalLoop=1;jettySize=auto;html=1;entryX=0.5;entryY=0;entryDx=0;entryDy=0;exitX=0.5;exitY=1;exitDx=0;exitDy=0;" edge="1" parent="1" source="Ep49lHUHMITaR3YVPtm_-227" target="Ep49lHUHMITaR3YVPtm_-231">
          <mxGeometry relative="1" as="geometry">
            <mxPoint x="2925" y="1585" as="sourcePoint" />
          </mxGeometry>
        </mxCell>
        <mxCell id="Ep49lHUHMITaR3YVPtm_-223" style="edgeStyle=orthogonalEdgeStyle;rounded=0;orthogonalLoop=1;jettySize=auto;html=1;entryX=0.5;entryY=0;entryDx=0;entryDy=0;exitX=0.5;exitY=1;exitDx=0;exitDy=0;" edge="1" parent="1" source="Ep49lHUHMITaR3YVPtm_-227" target="Ep49lHUHMITaR3YVPtm_-230">
          <mxGeometry relative="1" as="geometry">
            <mxPoint x="2710" y="1490" as="sourcePoint" />
          </mxGeometry>
        </mxCell>
        <mxCell id="Ep49lHUHMITaR3YVPtm_-224" style="edgeStyle=orthogonalEdgeStyle;rounded=0;orthogonalLoop=1;jettySize=auto;html=1;entryX=0.5;entryY=0;entryDx=0;entryDy=0;exitX=0.5;exitY=1;exitDx=0;exitDy=0;" edge="1" parent="1" source="Ep49lHUHMITaR3YVPtm_-227" target="Ep49lHUHMITaR3YVPtm_-229">
          <mxGeometry relative="1" as="geometry">
            <mxPoint x="2885" y="1545" as="sourcePoint" />
          </mxGeometry>
        </mxCell>
        <mxCell id="Ep49lHUHMITaR3YVPtm_-225" style="edgeStyle=orthogonalEdgeStyle;rounded=0;orthogonalLoop=1;jettySize=auto;html=1;entryX=0.5;entryY=0;entryDx=0;entryDy=0;exitX=0.5;exitY=1;exitDx=0;exitDy=0;" edge="1" parent="1" source="Ep49lHUHMITaR3YVPtm_-227" target="Ep49lHUHMITaR3YVPtm_-228">
          <mxGeometry relative="1" as="geometry">
            <mxPoint x="2885" y="1545" as="sourcePoint" />
          </mxGeometry>
        </mxCell>
        <mxCell id="Ep49lHUHMITaR3YVPtm_-227" value="tr" style="ellipse;whiteSpace=wrap;html=1;aspect=fixed;" vertex="1" parent="1">
          <mxGeometry x="2675" y="1405" width="80" height="80" as="geometry" />
        </mxCell>
        <mxCell id="Ep49lHUHMITaR3YVPtm_-228" value="th" style="ellipse;whiteSpace=wrap;html=1;aspect=fixed;" vertex="1" parent="1">
          <mxGeometry x="2595" y="1665" width="80" height="80" as="geometry" />
        </mxCell>
        <mxCell id="Ep49lHUHMITaR3YVPtm_-229" value="th" style="ellipse;whiteSpace=wrap;html=1;aspect=fixed;" vertex="1" parent="1">
          <mxGeometry x="2685" y="1665" width="80" height="80" as="geometry" />
        </mxCell>
        <mxCell id="Ep49lHUHMITaR3YVPtm_-230" value="th" style="ellipse;whiteSpace=wrap;html=1;aspect=fixed;" vertex="1" parent="1">
          <mxGeometry x="2775" y="1665" width="80" height="80" as="geometry" />
        </mxCell>
        <mxCell id="Ep49lHUHMITaR3YVPtm_-231" value="th" style="ellipse;whiteSpace=wrap;html=1;aspect=fixed;" vertex="1" parent="1">
          <mxGeometry x="2865" y="1665" width="80" height="80" as="geometry" />
        </mxCell>
        <mxCell id="Ep49lHUHMITaR3YVPtm_-233" style="edgeStyle=orthogonalEdgeStyle;rounded=0;orthogonalLoop=1;jettySize=auto;html=1;entryX=0.5;entryY=0;entryDx=0;entryDy=0;" edge="1" parent="1" source="Ep49lHUHMITaR3YVPtm_-204" target="Ep49lHUHMITaR3YVPtm_-227">
          <mxGeometry relative="1" as="geometry" />
        </mxCell>
        <mxCell id="Ep49lHUHMITaR3YVPtm_-240" value="td" style="ellipse;whiteSpace=wrap;html=1;aspect=fixed;" vertex="1" parent="1">
          <mxGeometry x="1860" y="1575" width="50" height="50" as="geometry" />
        </mxCell>
        <mxCell id="Ep49lHUHMITaR3YVPtm_-241" value="td" style="ellipse;whiteSpace=wrap;html=1;aspect=fixed;" vertex="1" parent="1">
          <mxGeometry x="1945" y="1575" width="50" height="50" as="geometry" />
        </mxCell>
        <mxCell id="Ep49lHUHMITaR3YVPtm_-242" value="td" style="ellipse;whiteSpace=wrap;html=1;aspect=fixed;" vertex="1" parent="1">
          <mxGeometry x="1817.5" y="1645" width="50" height="50" as="geometry" />
        </mxCell>
        <mxCell id="Ep49lHUHMITaR3YVPtm_-243" value="td" style="ellipse;whiteSpace=wrap;html=1;aspect=fixed;" vertex="1" parent="1">
          <mxGeometry x="1902.5" y="1645" width="50" height="50" as="geometry" />
        </mxCell>
        <mxCell id="Ep49lHUHMITaR3YVPtm_-244" value="td" style="ellipse;whiteSpace=wrap;html=1;aspect=fixed;" vertex="1" parent="1">
          <mxGeometry x="2365" y="1575" width="50" height="50" as="geometry" />
        </mxCell>
        <mxCell id="Ep49lHUHMITaR3YVPtm_-245" value="td" style="ellipse;whiteSpace=wrap;html=1;aspect=fixed;" vertex="1" parent="1">
          <mxGeometry x="2450" y="1575" width="50" height="50" as="geometry" />
        </mxCell>
        <mxCell id="Ep49lHUHMITaR3YVPtm_-246" value="td" style="ellipse;whiteSpace=wrap;html=1;aspect=fixed;" vertex="1" parent="1">
          <mxGeometry x="2535" y="1575" width="50" height="50" as="geometry" />
        </mxCell>
        <mxCell id="Ep49lHUHMITaR3YVPtm_-247" value="td" style="ellipse;whiteSpace=wrap;html=1;aspect=fixed;" vertex="1" parent="1">
          <mxGeometry x="2407.5" y="1645" width="50" height="50" as="geometry" />
        </mxCell>
        <mxCell id="Ep49lHUHMITaR3YVPtm_-248" value="td" style="ellipse;whiteSpace=wrap;html=1;aspect=fixed;" vertex="1" parent="1">
          <mxGeometry x="2492.5" y="1645" width="50" height="50" as="geometry" />
        </mxCell>
        <mxCell id="Ep49lHUHMITaR3YVPtm_-249" value="td" style="ellipse;whiteSpace=wrap;html=1;aspect=fixed;" vertex="1" parent="1">
          <mxGeometry x="2025" y="1575" width="50" height="50" as="geometry" />
        </mxCell>
        <mxCell id="Ep49lHUHMITaR3YVPtm_-250" value="td" style="ellipse;whiteSpace=wrap;html=1;aspect=fixed;" vertex="1" parent="1">
          <mxGeometry x="2110" y="1575" width="50" height="50" as="geometry" />
        </mxCell>
        <mxCell id="Ep49lHUHMITaR3YVPtm_-252" value="td" style="ellipse;whiteSpace=wrap;html=1;aspect=fixed;" vertex="1" parent="1">
          <mxGeometry x="2067.5" y="1645" width="50" height="50" as="geometry" />
        </mxCell>
        <mxCell id="Ep49lHUHMITaR3YVPtm_-253" value="td" style="ellipse;whiteSpace=wrap;html=1;aspect=fixed;" vertex="1" parent="1">
          <mxGeometry x="2152.5" y="1645" width="50" height="50" as="geometry" />
        </mxCell>
        <mxCell id="Ep49lHUHMITaR3YVPtm_-254" value="td" style="ellipse;whiteSpace=wrap;html=1;aspect=fixed;" vertex="1" parent="1">
          <mxGeometry x="2202.5" y="1575" width="50" height="50" as="geometry" />
        </mxCell>
        <mxCell id="Ep49lHUHMITaR3YVPtm_-255" value="td" style="ellipse;whiteSpace=wrap;html=1;aspect=fixed;" vertex="1" parent="1">
          <mxGeometry x="2287.5" y="1575" width="50" height="50" as="geometry" />
        </mxCell>
        <mxCell id="Ep49lHUHMITaR3YVPtm_-257" value="td" style="ellipse;whiteSpace=wrap;html=1;aspect=fixed;" vertex="1" parent="1">
          <mxGeometry x="2245" y="1645" width="50" height="50" as="geometry" />
        </mxCell>
        <mxCell id="Ep49lHUHMITaR3YVPtm_-258" value="td" style="ellipse;whiteSpace=wrap;html=1;aspect=fixed;" vertex="1" parent="1">
          <mxGeometry x="2330" y="1645" width="50" height="50" as="geometry" />
        </mxCell>
        <mxCell id="Ep49lHUHMITaR3YVPtm_-287" value="h4" style="ellipse;whiteSpace=wrap;html=1;aspect=fixed;" vertex="1" parent="1">
          <mxGeometry x="2960" y="1415" width="80" height="80" as="geometry" />
        </mxCell>
        <mxCell id="Ep49lHUHMITaR3YVPtm_-311" style="edgeStyle=orthogonalEdgeStyle;rounded=0;orthogonalLoop=1;jettySize=auto;html=1;entryX=0.5;entryY=0;entryDx=0;entryDy=0;" edge="1" parent="1" source="Ep49lHUHMITaR3YVPtm_-288" target="Ep49lHUHMITaR3YVPtm_-290">
          <mxGeometry relative="1" as="geometry">
            <Array as="points">
              <mxPoint x="3120" y="1520" />
              <mxPoint x="3020" y="1520" />
            </Array>
          </mxGeometry>
        </mxCell>
        <mxCell id="Ep49lHUHMITaR3YVPtm_-312" style="edgeStyle=orthogonalEdgeStyle;rounded=0;orthogonalLoop=1;jettySize=auto;html=1;entryX=0.5;entryY=0;entryDx=0;entryDy=0;" edge="1" parent="1" source="Ep49lHUHMITaR3YVPtm_-288" target="Ep49lHUHMITaR3YVPtm_-291">
          <mxGeometry relative="1" as="geometry" />
        </mxCell>
        <mxCell id="Ep49lHUHMITaR3YVPtm_-313" style="edgeStyle=orthogonalEdgeStyle;rounded=0;orthogonalLoop=1;jettySize=auto;html=1;entryX=0.5;entryY=0;entryDx=0;entryDy=0;" edge="1" parent="1" source="Ep49lHUHMITaR3YVPtm_-288" target="Ep49lHUHMITaR3YVPtm_-292">
          <mxGeometry relative="1" as="geometry" />
        </mxCell>
        <mxCell id="Ep49lHUHMITaR3YVPtm_-288" value="details" style="ellipse;whiteSpace=wrap;html=1;aspect=fixed;" vertex="1" parent="1">
          <mxGeometry x="3080" y="1415" width="80" height="80" as="geometry" />
        </mxCell>
        <mxCell id="Ep49lHUHMITaR3YVPtm_-314" style="edgeStyle=orthogonalEdgeStyle;rounded=0;orthogonalLoop=1;jettySize=auto;html=1;entryX=0.5;entryY=0;entryDx=0;entryDy=0;" edge="1" parent="1" source="Ep49lHUHMITaR3YVPtm_-289" target="Ep49lHUHMITaR3YVPtm_-293">
          <mxGeometry relative="1" as="geometry" />
        </mxCell>
        <mxCell id="Ep49lHUHMITaR3YVPtm_-289" value="details" style="ellipse;whiteSpace=wrap;html=1;aspect=fixed;" vertex="1" parent="1">
          <mxGeometry x="3210" y="1415" width="80" height="80" as="geometry" />
        </mxCell>
        <mxCell id="Ep49lHUHMITaR3YVPtm_-290" value="summary" style="ellipse;whiteSpace=wrap;html=1;aspect=fixed;" vertex="1" parent="1">
          <mxGeometry x="2980" y="1555" width="80" height="80" as="geometry" />
        </mxCell>
        <mxCell id="Ep49lHUHMITaR3YVPtm_-291" value="p" style="ellipse;whiteSpace=wrap;html=1;aspect=fixed;" vertex="1" parent="1">
          <mxGeometry x="3070" y="1555" width="80" height="80" as="geometry" />
        </mxCell>
        <mxCell id="Ep49lHUHMITaR3YVPtm_-316" style="edgeStyle=orthogonalEdgeStyle;rounded=0;orthogonalLoop=1;jettySize=auto;html=1;entryX=0.5;entryY=0;entryDx=0;entryDy=0;" edge="1" parent="1" source="Ep49lHUHMITaR3YVPtm_-292" target="Ep49lHUHMITaR3YVPtm_-296">
          <mxGeometry relative="1" as="geometry" />
        </mxCell>
        <mxCell id="Ep49lHUHMITaR3YVPtm_-317" style="edgeStyle=orthogonalEdgeStyle;rounded=0;orthogonalLoop=1;jettySize=auto;html=1;entryX=0.5;entryY=0;entryDx=0;entryDy=0;" edge="1" parent="1" source="Ep49lHUHMITaR3YVPtm_-292" target="Ep49lHUHMITaR3YVPtm_-297">
          <mxGeometry relative="1" as="geometry" />
        </mxCell>
        <mxCell id="Ep49lHUHMITaR3YVPtm_-318" value="" style="edgeStyle=orthogonalEdgeStyle;rounded=0;orthogonalLoop=1;jettySize=auto;html=1;" edge="1" parent="1" source="Ep49lHUHMITaR3YVPtm_-292" target="Ep49lHUHMITaR3YVPtm_-297">
          <mxGeometry relative="1" as="geometry" />
        </mxCell>
        <mxCell id="Ep49lHUHMITaR3YVPtm_-292" value="details" style="ellipse;whiteSpace=wrap;html=1;aspect=fixed;" vertex="1" parent="1">
          <mxGeometry x="3160" y="1555" width="80" height="80" as="geometry" />
        </mxCell>
        <mxCell id="Ep49lHUHMITaR3YVPtm_-293" value="summary" style="ellipse;whiteSpace=wrap;html=1;aspect=fixed;" vertex="1" parent="1">
          <mxGeometry x="3290" y="1545" width="80" height="80" as="geometry" />
        </mxCell>
        <mxCell id="Ep49lHUHMITaR3YVPtm_-322" style="edgeStyle=orthogonalEdgeStyle;rounded=0;orthogonalLoop=1;jettySize=auto;html=1;entryX=0.5;entryY=0;entryDx=0;entryDy=0;" edge="1" parent="1" source="Ep49lHUHMITaR3YVPtm_-294" target="Ep49lHUHMITaR3YVPtm_-302">
          <mxGeometry relative="1" as="geometry" />
        </mxCell>
        <mxCell id="Ep49lHUHMITaR3YVPtm_-323" style="edgeStyle=orthogonalEdgeStyle;rounded=0;orthogonalLoop=1;jettySize=auto;html=1;entryX=0.5;entryY=0;entryDx=0;entryDy=0;" edge="1" parent="1" source="Ep49lHUHMITaR3YVPtm_-294" target="Ep49lHUHMITaR3YVPtm_-303">
          <mxGeometry relative="1" as="geometry" />
        </mxCell>
        <mxCell id="Ep49lHUHMITaR3YVPtm_-324" style="edgeStyle=orthogonalEdgeStyle;rounded=0;orthogonalLoop=1;jettySize=auto;html=1;entryX=0.5;entryY=0;entryDx=0;entryDy=0;" edge="1" parent="1" source="Ep49lHUHMITaR3YVPtm_-294" target="Ep49lHUHMITaR3YVPtm_-304">
          <mxGeometry relative="1" as="geometry" />
        </mxCell>
        <mxCell id="Ep49lHUHMITaR3YVPtm_-325" style="edgeStyle=orthogonalEdgeStyle;rounded=0;orthogonalLoop=1;jettySize=auto;html=1;entryX=0.5;entryY=0;entryDx=0;entryDy=0;" edge="1" parent="1" source="Ep49lHUHMITaR3YVPtm_-294" target="Ep49lHUHMITaR3YVPtm_-305">
          <mxGeometry relative="1" as="geometry" />
        </mxCell>
        <mxCell id="Ep49lHUHMITaR3YVPtm_-326" style="edgeStyle=orthogonalEdgeStyle;rounded=0;orthogonalLoop=1;jettySize=auto;html=1;entryX=0.5;entryY=0;entryDx=0;entryDy=0;" edge="1" parent="1" source="Ep49lHUHMITaR3YVPtm_-294" target="Ep49lHUHMITaR3YVPtm_-306">
          <mxGeometry relative="1" as="geometry" />
        </mxCell>
        <mxCell id="Ep49lHUHMITaR3YVPtm_-327" style="edgeStyle=orthogonalEdgeStyle;rounded=0;orthogonalLoop=1;jettySize=auto;html=1;entryX=0.5;entryY=0;entryDx=0;entryDy=0;" edge="1" parent="1" source="Ep49lHUHMITaR3YVPtm_-294" target="Ep49lHUHMITaR3YVPtm_-307">
          <mxGeometry relative="1" as="geometry" />
        </mxCell>
        <mxCell id="Ep49lHUHMITaR3YVPtm_-294" value="dl" style="ellipse;whiteSpace=wrap;html=1;aspect=fixed;" vertex="1" parent="1">
          <mxGeometry x="3380" y="1545" width="80" height="80" as="geometry" />
        </mxCell>
        <mxCell id="Ep49lHUHMITaR3YVPtm_-296" value="summary" style="ellipse;whiteSpace=wrap;html=1;aspect=fixed;" vertex="1" parent="1">
          <mxGeometry x="3120" y="1675" width="80" height="80" as="geometry" />
        </mxCell>
        <mxCell id="Ep49lHUHMITaR3YVPtm_-319" style="edgeStyle=orthogonalEdgeStyle;rounded=0;orthogonalLoop=1;jettySize=auto;html=1;entryX=0.5;entryY=0;entryDx=0;entryDy=0;" edge="1" parent="1" source="Ep49lHUHMITaR3YVPtm_-297" target="Ep49lHUHMITaR3YVPtm_-299">
          <mxGeometry relative="1" as="geometry">
            <Array as="points">
              <mxPoint x="3250" y="1770" />
              <mxPoint x="3160" y="1770" />
            </Array>
          </mxGeometry>
        </mxCell>
        <mxCell id="Ep49lHUHMITaR3YVPtm_-320" style="edgeStyle=orthogonalEdgeStyle;rounded=0;orthogonalLoop=1;jettySize=auto;html=1;entryX=0.5;entryY=0;entryDx=0;entryDy=0;" edge="1" parent="1" source="Ep49lHUHMITaR3YVPtm_-297" target="Ep49lHUHMITaR3YVPtm_-300">
          <mxGeometry relative="1" as="geometry" />
        </mxCell>
        <mxCell id="Ep49lHUHMITaR3YVPtm_-321" style="edgeStyle=orthogonalEdgeStyle;rounded=0;orthogonalLoop=1;jettySize=auto;html=1;entryX=0.5;entryY=0;entryDx=0;entryDy=0;" edge="1" parent="1" source="Ep49lHUHMITaR3YVPtm_-297" target="Ep49lHUHMITaR3YVPtm_-301">
          <mxGeometry relative="1" as="geometry">
            <Array as="points">
              <mxPoint x="3250" y="1770" />
              <mxPoint x="3340" y="1770" />
            </Array>
          </mxGeometry>
        </mxCell>
        <mxCell id="Ep49lHUHMITaR3YVPtm_-297" value="ul" style="ellipse;whiteSpace=wrap;html=1;aspect=fixed;" vertex="1" parent="1">
          <mxGeometry x="3210" y="1675" width="80" height="80" as="geometry" />
        </mxCell>
        <mxCell id="Ep49lHUHMITaR3YVPtm_-299" value="li" style="ellipse;whiteSpace=wrap;html=1;aspect=fixed;" vertex="1" parent="1">
          <mxGeometry x="3120" y="1815" width="80" height="80" as="geometry" />
        </mxCell>
        <mxCell id="Ep49lHUHMITaR3YVPtm_-300" value="li" style="ellipse;whiteSpace=wrap;html=1;aspect=fixed;" vertex="1" parent="1">
          <mxGeometry x="3210" y="1815" width="80" height="80" as="geometry" />
        </mxCell>
        <mxCell id="Ep49lHUHMITaR3YVPtm_-301" value="li" style="ellipse;whiteSpace=wrap;html=1;aspect=fixed;" vertex="1" parent="1">
          <mxGeometry x="3300" y="1815" width="80" height="80" as="geometry" />
        </mxCell>
        <mxCell id="Ep49lHUHMITaR3YVPtm_-302" value="dt" style="ellipse;whiteSpace=wrap;html=1;aspect=fixed;" vertex="1" parent="1">
          <mxGeometry x="3350" y="1665" width="50" height="50" as="geometry" />
        </mxCell>
        <mxCell id="Ep49lHUHMITaR3YVPtm_-303" value="dt" style="ellipse;whiteSpace=wrap;html=1;aspect=fixed;" vertex="1" parent="1">
          <mxGeometry x="3435" y="1665" width="50" height="50" as="geometry" />
        </mxCell>
        <mxCell id="Ep49lHUHMITaR3YVPtm_-304" value="dt" style="ellipse;whiteSpace=wrap;html=1;aspect=fixed;" vertex="1" parent="1">
          <mxGeometry x="3520" y="1665" width="50" height="50" as="geometry" />
        </mxCell>
        <mxCell id="Ep49lHUHMITaR3YVPtm_-305" value="dd" style="ellipse;whiteSpace=wrap;html=1;aspect=fixed;" vertex="1" parent="1">
          <mxGeometry x="3392.5" y="1735" width="50" height="50" as="geometry" />
        </mxCell>
        <mxCell id="Ep49lHUHMITaR3YVPtm_-306" value="dd" style="ellipse;whiteSpace=wrap;html=1;aspect=fixed;" vertex="1" parent="1">
          <mxGeometry x="3477.5" y="1735" width="50" height="50" as="geometry" />
        </mxCell>
        <mxCell id="Ep49lHUHMITaR3YVPtm_-307" value="dd" style="ellipse;whiteSpace=wrap;html=1;aspect=fixed;" vertex="1" parent="1">
          <mxGeometry x="3560" y="1735" width="50" height="50" as="geometry" />
        </mxCell>
        <mxCell id="Ep49lHUHMITaR3YVPtm_-315" style="edgeStyle=orthogonalEdgeStyle;rounded=0;orthogonalLoop=1;jettySize=auto;html=1;entryX=0.618;entryY=0.063;entryDx=0;entryDy=0;entryPerimeter=0;" edge="1" parent="1" source="Ep49lHUHMITaR3YVPtm_-289" target="Ep49lHUHMITaR3YVPtm_-294">
          <mxGeometry relative="1" as="geometry" />
        </mxCell>
        <mxCell id="Ep49lHUHMITaR3YVPtm_-332" style="edgeStyle=orthogonalEdgeStyle;rounded=0;orthogonalLoop=1;jettySize=auto;html=1;entryX=0.5;entryY=0;entryDx=0;entryDy=0;" edge="1" parent="1" source="Ep49lHUHMITaR3YVPtm_-329" target="Ep49lHUHMITaR3YVPtm_-330">
          <mxGeometry relative="1" as="geometry" />
        </mxCell>
        <mxCell id="Ep49lHUHMITaR3YVPtm_-329" value="p" style="ellipse;whiteSpace=wrap;html=1;aspect=fixed;" vertex="1" parent="1">
          <mxGeometry x="3640" y="1415" width="80" height="80" as="geometry" />
        </mxCell>
        <mxCell id="Ep49lHUHMITaR3YVPtm_-330" value="time" style="ellipse;whiteSpace=wrap;html=1;aspect=fixed;" vertex="1" parent="1">
          <mxGeometry x="3640" y="1535" width="80" height="80" as="geometry" />
        </mxCell>
        <mxCell id="Ep49lHUHMITaR3YVPtm_-482" value="article" style="ellipse;whiteSpace=wrap;html=1;" vertex="1" parent="1">
          <mxGeometry x="3980" y="885" width="80" height="80" as="geometry" />
        </mxCell>
        <mxCell id="Ep49lHUHMITaR3YVPtm_-483" value="header" style="ellipse;whiteSpace=wrap;html=1;" vertex="1" parent="1">
          <mxGeometry x="3820" y="965" width="80" height="80" as="geometry" />
        </mxCell>
        <mxCell id="Ep49lHUHMITaR3YVPtm_-484" value="h3" style="ellipse;whiteSpace=wrap;html=1;" vertex="1" parent="1">
          <mxGeometry x="3770" y="1110" width="80" height="80" as="geometry" />
        </mxCell>
        <mxCell id="Ep49lHUHMITaR3YVPtm_-485" value="p" style="ellipse;whiteSpace=wrap;html=1;" vertex="1" parent="1">
          <mxGeometry x="3860" y="1110" width="80" height="80" as="geometry" />
        </mxCell>
        <mxCell id="Ep49lHUHMITaR3YVPtm_-486" value="section" style="ellipse;whiteSpace=wrap;html=1;" vertex="1" parent="1">
          <mxGeometry x="4170" y="1055" width="80" height="80" as="geometry" />
        </mxCell>
        <mxCell id="Ep49lHUHMITaR3YVPtm_-487" value="h4" style="ellipse;whiteSpace=wrap;html=1;" vertex="1" parent="1">
          <mxGeometry x="4130" y="1170" width="80" height="80" as="geometry" />
        </mxCell>
        <mxCell id="Ep49lHUHMITaR3YVPtm_-488" value="ol" style="ellipse;whiteSpace=wrap;html=1;" vertex="1" parent="1">
          <mxGeometry x="4230" y="1160" width="80" height="80" as="geometry" />
        </mxCell>
        <mxCell id="Ep49lHUHMITaR3YVPtm_-490" value="li" style="ellipse;whiteSpace=wrap;html=1;" vertex="1" parent="1">
          <mxGeometry x="4240" y="1387.5" width="80" height="80" as="geometry" />
        </mxCell>
        <mxCell id="Ep49lHUHMITaR3YVPtm_-491" value="li" style="ellipse;whiteSpace=wrap;html=1;" vertex="1" parent="1">
          <mxGeometry x="4280" y="1290" width="80" height="80" as="geometry" />
        </mxCell>
        <mxCell id="Ep49lHUHMITaR3YVPtm_-492" value="li" style="ellipse;whiteSpace=wrap;html=1;" vertex="1" parent="1">
          <mxGeometry x="4400" y="1290" width="80" height="80" as="geometry" />
        </mxCell>
        <mxCell id="Ep49lHUHMITaR3YVPtm_-493" value="ul" style="ellipse;whiteSpace=wrap;html=1;" vertex="1" parent="1">
          <mxGeometry x="4110" y="1360" width="80" height="80" as="geometry" />
        </mxCell>
        <mxCell id="Ep49lHUHMITaR3YVPtm_-495" value="li" style="ellipse;whiteSpace=wrap;html=1;" vertex="1" parent="1">
          <mxGeometry x="4320" y="1547.5" width="80" height="80" as="geometry" />
        </mxCell>
        <mxCell id="Ep49lHUHMITaR3YVPtm_-496" value="ul" style="ellipse;whiteSpace=wrap;html=1;" vertex="1" parent="1">
          <mxGeometry x="4610" y="1835" width="80" height="80" as="geometry" />
        </mxCell>
        <mxCell id="Ep49lHUHMITaR3YVPtm_-497" value="li" style="ellipse;whiteSpace=wrap;html=1;" vertex="1" parent="1">
          <mxGeometry x="4560" y="1990" width="80" height="80" as="geometry" />
        </mxCell>
        <mxCell id="Ep49lHUHMITaR3YVPtm_-498" value="li" style="ellipse;whiteSpace=wrap;html=1;" vertex="1" parent="1">
          <mxGeometry x="4660" y="2000" width="80" height="80" as="geometry" />
        </mxCell>
        <mxCell id="Ep49lHUHMITaR3YVPtm_-499" value="li" style="ellipse;whiteSpace=wrap;html=1;" vertex="1" parent="1">
          <mxGeometry x="4780" y="2000" width="80" height="80" as="geometry" />
        </mxCell>
        <mxCell id="Ep49lHUHMITaR3YVPtm_-500" value="ul" style="ellipse;whiteSpace=wrap;html=1;" vertex="1" parent="1">
          <mxGeometry x="4780" y="2170" width="80" height="80" as="geometry" />
        </mxCell>
        <mxCell id="Ep49lHUHMITaR3YVPtm_-501" value="li" style="ellipse;whiteSpace=wrap;html=1;" vertex="1" parent="1">
          <mxGeometry x="4710" y="2305" width="80" height="80" as="geometry" />
        </mxCell>
        <mxCell id="Ep49lHUHMITaR3YVPtm_-502" value="li" style="ellipse;whiteSpace=wrap;html=1;" vertex="1" parent="1">
          <mxGeometry x="4840" y="2300" width="80" height="80" as="geometry" />
        </mxCell>
        <mxCell id="Ep49lHUHMITaR3YVPtm_-503" value="ul" style="ellipse;whiteSpace=wrap;html=1;" vertex="1" parent="1">
          <mxGeometry x="4840" y="2430" width="80" height="80" as="geometry" />
        </mxCell>
        <mxCell id="Ep49lHUHMITaR3YVPtm_-504" value="li" style="ellipse;whiteSpace=wrap;html=1;" vertex="1" parent="1">
          <mxGeometry x="4770" y="2560" width="80" height="80" as="geometry" />
        </mxCell>
        <mxCell id="Ep49lHUHMITaR3YVPtm_-505" value="li" style="ellipse;whiteSpace=wrap;html=1;" vertex="1" parent="1">
          <mxGeometry x="4910" y="2550" width="80" height="80" as="geometry" />
        </mxCell>
        <mxCell id="Ep49lHUHMITaR3YVPtm_-506" value="section" style="ellipse;whiteSpace=wrap;html=1;" vertex="1" parent="1">
          <mxGeometry x="4320" y="1000" width="80" height="80" as="geometry" />
        </mxCell>
        <mxCell id="Ep49lHUHMITaR3YVPtm_-507" value="h4" style="ellipse;whiteSpace=wrap;html=1;" vertex="1" parent="1">
          <mxGeometry x="4410" y="1170" width="80" height="80" as="geometry" />
        </mxCell>
        <mxCell id="Ep49lHUHMITaR3YVPtm_-508" value="article" style="ellipse;whiteSpace=wrap;html=1;" vertex="1" parent="1">
          <mxGeometry x="4590" y="1200" width="80" height="80" as="geometry" />
        </mxCell>
        <mxCell id="Ep49lHUHMITaR3YVPtm_-509" value="article" style="ellipse;whiteSpace=wrap;html=1;" vertex="1" parent="1">
          <mxGeometry x="4680" y="1120" width="80" height="80" as="geometry" />
        </mxCell>
        <mxCell id="Ep49lHUHMITaR3YVPtm_-510" value="h5" style="ellipse;whiteSpace=wrap;html=1;" vertex="1" parent="1">
          <mxGeometry x="4540" y="1370" width="80" height="80" as="geometry" />
        </mxCell>
        <mxCell id="Ep49lHUHMITaR3YVPtm_-511" value="figure" style="ellipse;whiteSpace=wrap;html=1;" vertex="1" parent="1">
          <mxGeometry x="4660" y="1370" width="80" height="80" as="geometry" />
        </mxCell>
        <mxCell id="Ep49lHUHMITaR3YVPtm_-512" value="video" style="ellipse;whiteSpace=wrap;html=1;" vertex="1" parent="1">
          <mxGeometry x="4580" y="1502.5" width="80" height="80" as="geometry" />
        </mxCell>
        <mxCell id="Ep49lHUHMITaR3YVPtm_-513" value="source" style="ellipse;whiteSpace=wrap;html=1;" vertex="1" parent="1">
          <mxGeometry x="4580" y="1610" width="80" height="80" as="geometry" />
        </mxCell>
        <mxCell id="Ep49lHUHMITaR3YVPtm_-514" value="figcaption" style="ellipse;whiteSpace=wrap;html=1;" vertex="1" parent="1">
          <mxGeometry x="4720" y="1495" width="80" height="80" as="geometry" />
        </mxCell>
        <mxCell id="Ep49lHUHMITaR3YVPtm_-515" value="h5" style="ellipse;whiteSpace=wrap;html=1;" vertex="1" parent="1">
          <mxGeometry x="4720" y="1255" width="80" height="80" as="geometry" />
        </mxCell>
        <mxCell id="Ep49lHUHMITaR3YVPtm_-516" value="figure" style="ellipse;whiteSpace=wrap;html=1;" vertex="1" parent="1">
          <mxGeometry x="4830" y="1220" width="80" height="80" as="geometry" />
        </mxCell>
        <mxCell id="Ep49lHUHMITaR3YVPtm_-517" value="img" style="ellipse;whiteSpace=wrap;html=1;" vertex="1" parent="1">
          <mxGeometry x="4820" y="1370" width="80" height="80" as="geometry" />
        </mxCell>
        <mxCell id="Ep49lHUHMITaR3YVPtm_-518" value="figcaption" style="ellipse;whiteSpace=wrap;html=1;" vertex="1" parent="1">
          <mxGeometry x="4940" y="1350" width="80" height="80" as="geometry" />
        </mxCell>
        <mxCell id="Ep49lHUHMITaR3YVPtm_-519" value="section" style="ellipse;whiteSpace=wrap;html=1;" vertex="1" parent="1">
          <mxGeometry x="3940" y="1180" width="80" height="80" as="geometry" />
        </mxCell>
        <mxCell id="Ep49lHUHMITaR3YVPtm_-520" value="h4" style="ellipse;whiteSpace=wrap;html=1;" vertex="1" parent="1">
          <mxGeometry x="3850" y="1300" width="80" height="80" as="geometry" />
        </mxCell>
        <mxCell id="Ep49lHUHMITaR3YVPtm_-521" value="form" style="ellipse;whiteSpace=wrap;html=1;" vertex="1" parent="1">
          <mxGeometry x="3950" y="1320" width="80" height="80" as="geometry" />
        </mxCell>
        <mxCell id="Ep49lHUHMITaR3YVPtm_-522" value="fieldset" style="ellipse;whiteSpace=wrap;html=1;" vertex="1" parent="1">
          <mxGeometry x="3960" y="1680" width="80" height="80" as="geometry" />
        </mxCell>
        <mxCell id="Ep49lHUHMITaR3YVPtm_-523" value="fieldset" style="ellipse;whiteSpace=wrap;html=1;" vertex="1" parent="1">
          <mxGeometry x="4160" y="1615" width="80" height="80" as="geometry" />
        </mxCell>
        <mxCell id="Ep49lHUHMITaR3YVPtm_-524" value="legend" style="ellipse;whiteSpace=wrap;html=1;" vertex="1" parent="1">
          <mxGeometry x="3825" y="1800" width="80" height="80" as="geometry" />
        </mxCell>
        <mxCell id="Ep49lHUHMITaR3YVPtm_-525" value="div" style="ellipse;whiteSpace=wrap;html=1;" vertex="1" parent="1">
          <mxGeometry x="3960" y="1820" width="80" height="80" as="geometry" />
        </mxCell>
        <mxCell id="Ep49lHUHMITaR3YVPtm_-526" value="label" style="ellipse;whiteSpace=wrap;html=1;" vertex="1" parent="1">
          <mxGeometry x="3840" y="1980" width="80" height="80" as="geometry" />
        </mxCell>
        <mxCell id="Ep49lHUHMITaR3YVPtm_-527" value="input" style="ellipse;whiteSpace=wrap;html=1;" vertex="1" parent="1">
          <mxGeometry x="3840" y="2080" width="80" height="80" as="geometry" />
        </mxCell>
        <mxCell id="Ep49lHUHMITaR3YVPtm_-528" value="label" style="ellipse;whiteSpace=wrap;html=1;" vertex="1" parent="1">
          <mxGeometry x="3960" y="1980" width="80" height="80" as="geometry" />
        </mxCell>
        <mxCell id="Ep49lHUHMITaR3YVPtm_-529" value="input" style="ellipse;whiteSpace=wrap;html=1;" vertex="1" parent="1">
          <mxGeometry x="3960" y="2080" width="80" height="80" as="geometry" />
        </mxCell>
        <mxCell id="Ep49lHUHMITaR3YVPtm_-530" value="label" style="ellipse;whiteSpace=wrap;html=1;" vertex="1" parent="1">
          <mxGeometry x="4080" y="1980" width="80" height="80" as="geometry" />
        </mxCell>
        <mxCell id="Ep49lHUHMITaR3YVPtm_-531" value="select" style="ellipse;whiteSpace=wrap;html=1;" vertex="1" parent="1">
          <mxGeometry x="4080" y="2110" width="80" height="80" as="geometry" />
        </mxCell>
        <mxCell id="Ep49lHUHMITaR3YVPtm_-532" value="optgroup" style="ellipse;whiteSpace=wrap;html=1;" vertex="1" parent="1">
          <mxGeometry x="4030" y="2240" width="80" height="80" as="geometry" />
        </mxCell>
        <mxCell id="Ep49lHUHMITaR3YVPtm_-533" value="option" style="ellipse;whiteSpace=wrap;html=1;" vertex="1" parent="1">
          <mxGeometry x="3860" y="2350" width="80" height="80" as="geometry" />
        </mxCell>
        <mxCell id="Ep49lHUHMITaR3YVPtm_-534" value="option" style="ellipse;whiteSpace=wrap;html=1;" vertex="1" parent="1">
          <mxGeometry x="4050" y="2350" width="80" height="80" as="geometry" />
        </mxCell>
        <mxCell id="Ep49lHUHMITaR3YVPtm_-535" value="option" style="ellipse;whiteSpace=wrap;html=1;" vertex="1" parent="1">
          <mxGeometry x="3950" y="2360" width="80" height="80" as="geometry" />
        </mxCell>
        <mxCell id="Ep49lHUHMITaR3YVPtm_-536" value="optgroup" style="ellipse;whiteSpace=wrap;html=1;" vertex="1" parent="1">
          <mxGeometry x="4140" y="2240" width="80" height="80" as="geometry" />
        </mxCell>
        <mxCell id="Ep49lHUHMITaR3YVPtm_-537" value="option" style="ellipse;whiteSpace=wrap;html=1;" vertex="1" parent="1">
          <mxGeometry x="4140" y="2360" width="80" height="80" as="geometry" />
        </mxCell>
        <mxCell id="Ep49lHUHMITaR3YVPtm_-538" value="option" style="ellipse;whiteSpace=wrap;html=1;" vertex="1" parent="1">
          <mxGeometry x="4240" y="2360" width="80" height="80" as="geometry" />
        </mxCell>
        <mxCell id="Ep49lHUHMITaR3YVPtm_-539" value="legend" style="ellipse;whiteSpace=wrap;html=1;" vertex="1" parent="1">
          <mxGeometry x="4100" y="1755" width="80" height="80" as="geometry" />
        </mxCell>
        <mxCell id="Ep49lHUHMITaR3YVPtm_-540" value="div" style="ellipse;whiteSpace=wrap;html=1;" vertex="1" parent="1">
          <mxGeometry x="4280" y="1770" width="80" height="80" as="geometry" />
        </mxCell>
        <mxCell id="Ep49lHUHMITaR3YVPtm_-541" value="label" style="ellipse;whiteSpace=wrap;html=1;" vertex="1" parent="1">
          <mxGeometry x="4190" y="1910" width="80" height="80" as="geometry" />
        </mxCell>
        <mxCell id="Ep49lHUHMITaR3YVPtm_-542" value="input" style="ellipse;whiteSpace=wrap;html=1;" vertex="1" parent="1">
          <mxGeometry x="4190" y="2130" width="80" height="80" as="geometry" />
        </mxCell>
        <mxCell id="Ep49lHUHMITaR3YVPtm_-543" value="label" style="ellipse;whiteSpace=wrap;html=1;" vertex="1" parent="1">
          <mxGeometry x="4260" y="2030" width="80" height="80" as="geometry" />
        </mxCell>
        <mxCell id="Ep49lHUHMITaR3YVPtm_-544" value="input" style="ellipse;whiteSpace=wrap;html=1;" vertex="1" parent="1">
          <mxGeometry x="4260" y="2220" width="80" height="80" as="geometry" />
        </mxCell>
        <mxCell id="Ep49lHUHMITaR3YVPtm_-545" value="label" style="ellipse;whiteSpace=wrap;html=1;" vertex="1" parent="1">
          <mxGeometry x="4310" y="1930" width="80" height="80" as="geometry" />
        </mxCell>
        <mxCell id="Ep49lHUHMITaR3YVPtm_-546" value="input" style="ellipse;whiteSpace=wrap;html=1;" vertex="1" parent="1">
          <mxGeometry x="4320" y="2130" width="80" height="80" as="geometry" />
        </mxCell>
        <mxCell id="Ep49lHUHMITaR3YVPtm_-547" value="label" style="ellipse;whiteSpace=wrap;html=1;" vertex="1" parent="1">
          <mxGeometry x="4390" y="2010" width="80" height="80" as="geometry" />
        </mxCell>
        <mxCell id="Ep49lHUHMITaR3YVPtm_-548" value="textarea" style="ellipse;whiteSpace=wrap;html=1;" vertex="1" parent="1">
          <mxGeometry x="4390" y="2220" width="80" height="80" as="geometry" />
        </mxCell>
        <mxCell id="Ep49lHUHMITaR3YVPtm_-549" value="label" style="ellipse;whiteSpace=wrap;html=1;" vertex="1" parent="1">
          <mxGeometry x="4440" y="1920" width="80" height="80" as="geometry" />
        </mxCell>
        <mxCell id="Ep49lHUHMITaR3YVPtm_-550" value="input" style="ellipse;whiteSpace=wrap;html=1;" vertex="1" parent="1">
          <mxGeometry x="4440" y="2120" width="80" height="80" as="geometry" />
        </mxCell>
        <mxCell id="Ep49lHUHMITaR3YVPtm_-551" value="div" style="ellipse;whiteSpace=wrap;html=1;" vertex="1" parent="1">
          <mxGeometry x="3860" y="1450" width="80" height="80" as="geometry" />
        </mxCell>
        <mxCell id="Ep49lHUHMITaR3YVPtm_-552" value="button" style="ellipse;whiteSpace=wrap;html=1;" vertex="1" parent="1">
          <mxGeometry x="3900" y="1565" width="80" height="80" as="geometry" />
        </mxCell>
        <mxCell id="Ep49lHUHMITaR3YVPtm_-553" value="button" style="ellipse;whiteSpace=wrap;html=1;" vertex="1" parent="1">
          <mxGeometry x="3800" y="1565" width="80" height="80" as="geometry" />
        </mxCell>
        <mxCell id="Ep49lHUHMITaR3YVPtm_-554" value="footer" style="ellipse;whiteSpace=wrap;html=1;" vertex="1" parent="1">
          <mxGeometry x="4560" y="930" width="80" height="80" as="geometry" />
        </mxCell>
        <mxCell id="Ep49lHUHMITaR3YVPtm_-555" value="p" style="ellipse;whiteSpace=wrap;html=1;" vertex="1" parent="1">
          <mxGeometry x="4675" y="965" width="80" height="80" as="geometry" />
        </mxCell>
        <mxCell id="Ep49lHUHMITaR3YVPtm_-556" value="a" style="ellipse;whiteSpace=wrap;html=1;" vertex="1" parent="1">
          <mxGeometry x="4780" y="1030" width="80" height="80" as="geometry" />
        </mxCell>
        <mxCell id="Ep49lHUHMITaR3YVPtm_-557" style="endArrow=classic;" edge="1" parent="1" source="Ep49lHUHMITaR3YVPtm_-482" target="Ep49lHUHMITaR3YVPtm_-483">
          <mxGeometry relative="1" as="geometry" />
        </mxCell>
        <mxCell id="Ep49lHUHMITaR3YVPtm_-558" style="endArrow=classic;" edge="1" parent="1" source="Ep49lHUHMITaR3YVPtm_-483" target="Ep49lHUHMITaR3YVPtm_-484">
          <mxGeometry relative="1" as="geometry" />
        </mxCell>
        <mxCell id="Ep49lHUHMITaR3YVPtm_-559" style="endArrow=classic;" edge="1" parent="1" source="Ep49lHUHMITaR3YVPtm_-483" target="Ep49lHUHMITaR3YVPtm_-485">
          <mxGeometry relative="1" as="geometry" />
        </mxCell>
        <mxCell id="Ep49lHUHMITaR3YVPtm_-560" style="endArrow=classic;" edge="1" parent="1" source="Ep49lHUHMITaR3YVPtm_-482" target="Ep49lHUHMITaR3YVPtm_-486">
          <mxGeometry relative="1" as="geometry" />
        </mxCell>
        <mxCell id="Ep49lHUHMITaR3YVPtm_-561" style="endArrow=classic;" edge="1" parent="1" source="Ep49lHUHMITaR3YVPtm_-486" target="Ep49lHUHMITaR3YVPtm_-487">
          <mxGeometry relative="1" as="geometry" />
        </mxCell>
        <mxCell id="Ep49lHUHMITaR3YVPtm_-562" style="endArrow=classic;" edge="1" parent="1" source="Ep49lHUHMITaR3YVPtm_-486" target="Ep49lHUHMITaR3YVPtm_-488">
          <mxGeometry relative="1" as="geometry" />
        </mxCell>
        <mxCell id="Ep49lHUHMITaR3YVPtm_-563" style="endArrow=classic;" edge="1" parent="1" source="Ep49lHUHMITaR3YVPtm_-488" target="Ep49lHUHMITaR3YVPtm_-489">
          <mxGeometry relative="1" as="geometry" />
        </mxCell>
        <mxCell id="Ep49lHUHMITaR3YVPtm_-564" style="endArrow=classic;" edge="1" parent="1" source="Ep49lHUHMITaR3YVPtm_-489" target="Ep49lHUHMITaR3YVPtm_-490">
          <mxGeometry relative="1" as="geometry" />
        </mxCell>
        <mxCell id="Ep49lHUHMITaR3YVPtm_-565" style="endArrow=classic;" edge="1" parent="1" source="Ep49lHUHMITaR3YVPtm_-488" target="Ep49lHUHMITaR3YVPtm_-491">
          <mxGeometry relative="1" as="geometry" />
        </mxCell>
        <mxCell id="Ep49lHUHMITaR3YVPtm_-566" style="endArrow=classic;" edge="1" parent="1" source="Ep49lHUHMITaR3YVPtm_-488" target="Ep49lHUHMITaR3YVPtm_-492">
          <mxGeometry relative="1" as="geometry" />
        </mxCell>
        <mxCell id="Ep49lHUHMITaR3YVPtm_-567" style="endArrow=classic;" edge="1" parent="1" source="Ep49lHUHMITaR3YVPtm_-489" target="Ep49lHUHMITaR3YVPtm_-493">
          <mxGeometry relative="1" as="geometry" />
        </mxCell>
        <mxCell id="Ep49lHUHMITaR3YVPtm_-569" style="endArrow=classic;" edge="1" parent="1" source="Ep49lHUHMITaR3YVPtm_-493" target="Ep49lHUHMITaR3YVPtm_-495">
          <mxGeometry relative="1" as="geometry" />
        </mxCell>
        <mxCell id="Ep49lHUHMITaR3YVPtm_-570" style="endArrow=classic;" edge="1" parent="1" source="Ep49lHUHMITaR3YVPtm_-495" target="Ep49lHUHMITaR3YVPtm_-496">
          <mxGeometry relative="1" as="geometry" />
        </mxCell>
        <mxCell id="Ep49lHUHMITaR3YVPtm_-571" style="endArrow=classic;" edge="1" parent="1" source="Ep49lHUHMITaR3YVPtm_-496" target="Ep49lHUHMITaR3YVPtm_-497">
          <mxGeometry relative="1" as="geometry" />
        </mxCell>
        <mxCell id="Ep49lHUHMITaR3YVPtm_-572" style="endArrow=classic;" edge="1" parent="1" source="Ep49lHUHMITaR3YVPtm_-496" target="Ep49lHUHMITaR3YVPtm_-498">
          <mxGeometry relative="1" as="geometry" />
        </mxCell>
        <mxCell id="Ep49lHUHMITaR3YVPtm_-573" style="endArrow=classic;" edge="1" parent="1" source="Ep49lHUHMITaR3YVPtm_-496" target="Ep49lHUHMITaR3YVPtm_-499">
          <mxGeometry relative="1" as="geometry" />
        </mxCell>
        <mxCell id="Ep49lHUHMITaR3YVPtm_-574" style="endArrow=classic;" edge="1" parent="1" source="Ep49lHUHMITaR3YVPtm_-499" target="Ep49lHUHMITaR3YVPtm_-500">
          <mxGeometry relative="1" as="geometry" />
        </mxCell>
        <mxCell id="Ep49lHUHMITaR3YVPtm_-575" style="endArrow=classic;" edge="1" parent="1" source="Ep49lHUHMITaR3YVPtm_-500" target="Ep49lHUHMITaR3YVPtm_-501">
          <mxGeometry relative="1" as="geometry" />
        </mxCell>
        <mxCell id="Ep49lHUHMITaR3YVPtm_-576" style="endArrow=classic;" edge="1" parent="1" source="Ep49lHUHMITaR3YVPtm_-500" target="Ep49lHUHMITaR3YVPtm_-502">
          <mxGeometry relative="1" as="geometry" />
        </mxCell>
        <mxCell id="Ep49lHUHMITaR3YVPtm_-577" style="endArrow=classic;" edge="1" parent="1" source="Ep49lHUHMITaR3YVPtm_-502" target="Ep49lHUHMITaR3YVPtm_-503">
          <mxGeometry relative="1" as="geometry" />
        </mxCell>
        <mxCell id="Ep49lHUHMITaR3YVPtm_-578" style="endArrow=classic;" edge="1" parent="1" source="Ep49lHUHMITaR3YVPtm_-503" target="Ep49lHUHMITaR3YVPtm_-504">
          <mxGeometry relative="1" as="geometry" />
        </mxCell>
        <mxCell id="Ep49lHUHMITaR3YVPtm_-579" style="endArrow=classic;" edge="1" parent="1" source="Ep49lHUHMITaR3YVPtm_-503" target="Ep49lHUHMITaR3YVPtm_-505">
          <mxGeometry relative="1" as="geometry" />
        </mxCell>
        <mxCell id="Ep49lHUHMITaR3YVPtm_-580" style="endArrow=classic;" edge="1" parent="1" source="Ep49lHUHMITaR3YVPtm_-482" target="Ep49lHUHMITaR3YVPtm_-506">
          <mxGeometry relative="1" as="geometry" />
        </mxCell>
        <mxCell id="Ep49lHUHMITaR3YVPtm_-581" style="endArrow=classic;" edge="1" parent="1" source="Ep49lHUHMITaR3YVPtm_-506" target="Ep49lHUHMITaR3YVPtm_-507">
          <mxGeometry relative="1" as="geometry" />
        </mxCell>
        <mxCell id="Ep49lHUHMITaR3YVPtm_-582" style="endArrow=classic;" edge="1" parent="1" source="Ep49lHUHMITaR3YVPtm_-506" target="Ep49lHUHMITaR3YVPtm_-508">
          <mxGeometry relative="1" as="geometry" />
        </mxCell>
        <mxCell id="Ep49lHUHMITaR3YVPtm_-583" style="endArrow=classic;" edge="1" parent="1" source="Ep49lHUHMITaR3YVPtm_-506" target="Ep49lHUHMITaR3YVPtm_-509">
          <mxGeometry relative="1" as="geometry" />
        </mxCell>
        <mxCell id="Ep49lHUHMITaR3YVPtm_-584" style="endArrow=classic;" edge="1" parent="1" source="Ep49lHUHMITaR3YVPtm_-508" target="Ep49lHUHMITaR3YVPtm_-510">
          <mxGeometry relative="1" as="geometry" />
        </mxCell>
        <mxCell id="Ep49lHUHMITaR3YVPtm_-585" style="endArrow=classic;" edge="1" parent="1" source="Ep49lHUHMITaR3YVPtm_-508" target="Ep49lHUHMITaR3YVPtm_-511">
          <mxGeometry relative="1" as="geometry" />
        </mxCell>
        <mxCell id="Ep49lHUHMITaR3YVPtm_-586" style="endArrow=classic;" edge="1" parent="1" source="Ep49lHUHMITaR3YVPtm_-511" target="Ep49lHUHMITaR3YVPtm_-512">
          <mxGeometry relative="1" as="geometry" />
        </mxCell>
        <mxCell id="Ep49lHUHMITaR3YVPtm_-587" style="endArrow=classic;" edge="1" parent="1" source="Ep49lHUHMITaR3YVPtm_-512" target="Ep49lHUHMITaR3YVPtm_-513">
          <mxGeometry relative="1" as="geometry" />
        </mxCell>
        <mxCell id="Ep49lHUHMITaR3YVPtm_-588" style="endArrow=classic;" edge="1" parent="1" source="Ep49lHUHMITaR3YVPtm_-511" target="Ep49lHUHMITaR3YVPtm_-514">
          <mxGeometry relative="1" as="geometry" />
        </mxCell>
        <mxCell id="Ep49lHUHMITaR3YVPtm_-589" style="endArrow=classic;" edge="1" parent="1" source="Ep49lHUHMITaR3YVPtm_-509" target="Ep49lHUHMITaR3YVPtm_-515">
          <mxGeometry relative="1" as="geometry" />
        </mxCell>
        <mxCell id="Ep49lHUHMITaR3YVPtm_-590" style="endArrow=classic;" edge="1" parent="1" source="Ep49lHUHMITaR3YVPtm_-509" target="Ep49lHUHMITaR3YVPtm_-516">
          <mxGeometry relative="1" as="geometry" />
        </mxCell>
        <mxCell id="Ep49lHUHMITaR3YVPtm_-591" style="endArrow=classic;" edge="1" parent="1" source="Ep49lHUHMITaR3YVPtm_-516" target="Ep49lHUHMITaR3YVPtm_-517">
          <mxGeometry relative="1" as="geometry" />
        </mxCell>
        <mxCell id="Ep49lHUHMITaR3YVPtm_-592" style="endArrow=classic;" edge="1" parent="1" source="Ep49lHUHMITaR3YVPtm_-516" target="Ep49lHUHMITaR3YVPtm_-518">
          <mxGeometry relative="1" as="geometry" />
        </mxCell>
        <mxCell id="Ep49lHUHMITaR3YVPtm_-593" style="endArrow=classic;" edge="1" parent="1" source="Ep49lHUHMITaR3YVPtm_-482" target="Ep49lHUHMITaR3YVPtm_-519">
          <mxGeometry relative="1" as="geometry" />
        </mxCell>
        <mxCell id="Ep49lHUHMITaR3YVPtm_-594" style="endArrow=classic;" edge="1" parent="1" source="Ep49lHUHMITaR3YVPtm_-519" target="Ep49lHUHMITaR3YVPtm_-520">
          <mxGeometry relative="1" as="geometry" />
        </mxCell>
        <mxCell id="Ep49lHUHMITaR3YVPtm_-595" style="endArrow=classic;" edge="1" parent="1" source="Ep49lHUHMITaR3YVPtm_-519" target="Ep49lHUHMITaR3YVPtm_-521">
          <mxGeometry relative="1" as="geometry" />
        </mxCell>
        <mxCell id="Ep49lHUHMITaR3YVPtm_-596" style="endArrow=classic;" edge="1" parent="1" source="Ep49lHUHMITaR3YVPtm_-521" target="Ep49lHUHMITaR3YVPtm_-522">
          <mxGeometry relative="1" as="geometry" />
        </mxCell>
        <mxCell id="Ep49lHUHMITaR3YVPtm_-597" style="endArrow=classic;" edge="1" parent="1" source="Ep49lHUHMITaR3YVPtm_-494" target="Ep49lHUHMITaR3YVPtm_-523">
          <mxGeometry relative="1" as="geometry" />
        </mxCell>
        <mxCell id="Ep49lHUHMITaR3YVPtm_-598" style="endArrow=classic;" edge="1" parent="1" source="Ep49lHUHMITaR3YVPtm_-522" target="Ep49lHUHMITaR3YVPtm_-524">
          <mxGeometry relative="1" as="geometry" />
        </mxCell>
        <mxCell id="Ep49lHUHMITaR3YVPtm_-599" style="endArrow=classic;" edge="1" parent="1" source="Ep49lHUHMITaR3YVPtm_-522" target="Ep49lHUHMITaR3YVPtm_-525">
          <mxGeometry relative="1" as="geometry" />
        </mxCell>
        <mxCell id="Ep49lHUHMITaR3YVPtm_-600" style="endArrow=classic;" edge="1" parent="1" source="Ep49lHUHMITaR3YVPtm_-525" target="Ep49lHUHMITaR3YVPtm_-526">
          <mxGeometry relative="1" as="geometry" />
        </mxCell>
        <mxCell id="Ep49lHUHMITaR3YVPtm_-601" style="endArrow=classic;" edge="1" parent="1" source="Ep49lHUHMITaR3YVPtm_-526" target="Ep49lHUHMITaR3YVPtm_-527">
          <mxGeometry relative="1" as="geometry" />
        </mxCell>
        <mxCell id="Ep49lHUHMITaR3YVPtm_-602" style="endArrow=classic;" edge="1" parent="1" source="Ep49lHUHMITaR3YVPtm_-525" target="Ep49lHUHMITaR3YVPtm_-528">
          <mxGeometry relative="1" as="geometry" />
        </mxCell>
        <mxCell id="Ep49lHUHMITaR3YVPtm_-603" style="endArrow=classic;" edge="1" parent="1" source="Ep49lHUHMITaR3YVPtm_-528" target="Ep49lHUHMITaR3YVPtm_-529">
          <mxGeometry relative="1" as="geometry" />
        </mxCell>
        <mxCell id="Ep49lHUHMITaR3YVPtm_-604" style="endArrow=classic;" edge="1" parent="1" source="Ep49lHUHMITaR3YVPtm_-525" target="Ep49lHUHMITaR3YVPtm_-530">
          <mxGeometry relative="1" as="geometry" />
        </mxCell>
        <mxCell id="Ep49lHUHMITaR3YVPtm_-605" style="endArrow=classic;" edge="1" parent="1" source="Ep49lHUHMITaR3YVPtm_-530" target="Ep49lHUHMITaR3YVPtm_-531">
          <mxGeometry relative="1" as="geometry" />
        </mxCell>
        <mxCell id="Ep49lHUHMITaR3YVPtm_-606" style="endArrow=classic;" edge="1" parent="1" source="Ep49lHUHMITaR3YVPtm_-531" target="Ep49lHUHMITaR3YVPtm_-532">
          <mxGeometry relative="1" as="geometry" />
        </mxCell>
        <mxCell id="Ep49lHUHMITaR3YVPtm_-607" style="endArrow=classic;" edge="1" parent="1" source="Ep49lHUHMITaR3YVPtm_-532" target="Ep49lHUHMITaR3YVPtm_-533">
          <mxGeometry relative="1" as="geometry" />
        </mxCell>
        <mxCell id="Ep49lHUHMITaR3YVPtm_-608" style="endArrow=classic;" edge="1" parent="1" source="Ep49lHUHMITaR3YVPtm_-532" target="Ep49lHUHMITaR3YVPtm_-534">
          <mxGeometry relative="1" as="geometry" />
        </mxCell>
        <mxCell id="Ep49lHUHMITaR3YVPtm_-609" style="endArrow=classic;" edge="1" parent="1" source="Ep49lHUHMITaR3YVPtm_-532" target="Ep49lHUHMITaR3YVPtm_-535">
          <mxGeometry relative="1" as="geometry" />
        </mxCell>
        <mxCell id="Ep49lHUHMITaR3YVPtm_-610" style="endArrow=classic;" edge="1" parent="1" source="Ep49lHUHMITaR3YVPtm_-531" target="Ep49lHUHMITaR3YVPtm_-536">
          <mxGeometry relative="1" as="geometry" />
        </mxCell>
        <mxCell id="Ep49lHUHMITaR3YVPtm_-611" style="endArrow=classic;" edge="1" parent="1" source="Ep49lHUHMITaR3YVPtm_-536" target="Ep49lHUHMITaR3YVPtm_-537">
          <mxGeometry relative="1" as="geometry" />
        </mxCell>
        <mxCell id="Ep49lHUHMITaR3YVPtm_-612" style="endArrow=classic;" edge="1" parent="1" source="Ep49lHUHMITaR3YVPtm_-536" target="Ep49lHUHMITaR3YVPtm_-538">
          <mxGeometry relative="1" as="geometry" />
        </mxCell>
        <mxCell id="Ep49lHUHMITaR3YVPtm_-613" style="endArrow=classic;" edge="1" parent="1" source="Ep49lHUHMITaR3YVPtm_-523" target="Ep49lHUHMITaR3YVPtm_-539">
          <mxGeometry relative="1" as="geometry" />
        </mxCell>
        <mxCell id="Ep49lHUHMITaR3YVPtm_-614" style="endArrow=classic;" edge="1" parent="1" source="Ep49lHUHMITaR3YVPtm_-523" target="Ep49lHUHMITaR3YVPtm_-540">
          <mxGeometry relative="1" as="geometry" />
        </mxCell>
        <mxCell id="Ep49lHUHMITaR3YVPtm_-615" style="endArrow=classic;" edge="1" parent="1" source="Ep49lHUHMITaR3YVPtm_-540" target="Ep49lHUHMITaR3YVPtm_-541">
          <mxGeometry relative="1" as="geometry" />
        </mxCell>
        <mxCell id="Ep49lHUHMITaR3YVPtm_-616" style="endArrow=classic;" edge="1" parent="1" source="Ep49lHUHMITaR3YVPtm_-541" target="Ep49lHUHMITaR3YVPtm_-542">
          <mxGeometry relative="1" as="geometry" />
        </mxCell>
        <mxCell id="Ep49lHUHMITaR3YVPtm_-617" style="endArrow=classic;" edge="1" parent="1" source="Ep49lHUHMITaR3YVPtm_-540" target="Ep49lHUHMITaR3YVPtm_-543">
          <mxGeometry relative="1" as="geometry" />
        </mxCell>
        <mxCell id="Ep49lHUHMITaR3YVPtm_-618" style="endArrow=classic;" edge="1" parent="1" source="Ep49lHUHMITaR3YVPtm_-543" target="Ep49lHUHMITaR3YVPtm_-544">
          <mxGeometry relative="1" as="geometry" />
        </mxCell>
        <mxCell id="Ep49lHUHMITaR3YVPtm_-619" style="endArrow=classic;" edge="1" parent="1" source="Ep49lHUHMITaR3YVPtm_-540" target="Ep49lHUHMITaR3YVPtm_-545">
          <mxGeometry relative="1" as="geometry" />
        </mxCell>
        <mxCell id="Ep49lHUHMITaR3YVPtm_-620" style="endArrow=classic;" edge="1" parent="1" source="Ep49lHUHMITaR3YVPtm_-545" target="Ep49lHUHMITaR3YVPtm_-546">
          <mxGeometry relative="1" as="geometry" />
        </mxCell>
        <mxCell id="Ep49lHUHMITaR3YVPtm_-621" style="endArrow=classic;" edge="1" parent="1" source="Ep49lHUHMITaR3YVPtm_-540" target="Ep49lHUHMITaR3YVPtm_-547">
          <mxGeometry relative="1" as="geometry" />
        </mxCell>
        <mxCell id="Ep49lHUHMITaR3YVPtm_-622" style="endArrow=classic;" edge="1" parent="1" source="Ep49lHUHMITaR3YVPtm_-547" target="Ep49lHUHMITaR3YVPtm_-548">
          <mxGeometry relative="1" as="geometry" />
        </mxCell>
        <mxCell id="Ep49lHUHMITaR3YVPtm_-623" style="endArrow=classic;" edge="1" parent="1" source="Ep49lHUHMITaR3YVPtm_-540" target="Ep49lHUHMITaR3YVPtm_-549">
          <mxGeometry relative="1" as="geometry" />
        </mxCell>
        <mxCell id="Ep49lHUHMITaR3YVPtm_-624" style="endArrow=classic;" edge="1" parent="1" source="Ep49lHUHMITaR3YVPtm_-549" target="Ep49lHUHMITaR3YVPtm_-550">
          <mxGeometry relative="1" as="geometry" />
        </mxCell>
        <mxCell id="Ep49lHUHMITaR3YVPtm_-625" style="endArrow=classic;" edge="1" parent="1" source="Ep49lHUHMITaR3YVPtm_-521" target="Ep49lHUHMITaR3YVPtm_-551">
          <mxGeometry relative="1" as="geometry" />
        </mxCell>
        <mxCell id="Ep49lHUHMITaR3YVPtm_-626" style="endArrow=classic;" edge="1" parent="1" source="Ep49lHUHMITaR3YVPtm_-551" target="Ep49lHUHMITaR3YVPtm_-552">
          <mxGeometry relative="1" as="geometry" />
        </mxCell>
        <mxCell id="Ep49lHUHMITaR3YVPtm_-627" style="endArrow=classic;" edge="1" parent="1" source="Ep49lHUHMITaR3YVPtm_-551" target="Ep49lHUHMITaR3YVPtm_-553">
          <mxGeometry relative="1" as="geometry" />
        </mxCell>
        <mxCell id="Ep49lHUHMITaR3YVPtm_-628" style="endArrow=classic;" edge="1" parent="1" source="Ep49lHUHMITaR3YVPtm_-482" target="Ep49lHUHMITaR3YVPtm_-554">
          <mxGeometry relative="1" as="geometry" />
        </mxCell>
        <mxCell id="Ep49lHUHMITaR3YVPtm_-629" style="endArrow=classic;" edge="1" parent="1" source="Ep49lHUHMITaR3YVPtm_-554" target="Ep49lHUHMITaR3YVPtm_-555">
          <mxGeometry relative="1" as="geometry" />
        </mxCell>
        <mxCell id="Ep49lHUHMITaR3YVPtm_-630" style="endArrow=classic;" edge="1" parent="1" source="Ep49lHUHMITaR3YVPtm_-555" target="Ep49lHUHMITaR3YVPtm_-556">
          <mxGeometry relative="1" as="geometry" />
        </mxCell>
        <mxCell id="Ep49lHUHMITaR3YVPtm_-631" value="article" style="ellipse;whiteSpace=wrap;html=1;" vertex="1" parent="1">
          <mxGeometry x="5440" y="905" width="80" height="80" as="geometry" />
        </mxCell>
        <mxCell id="Ep49lHUHMITaR3YVPtm_-632" value="header" style="ellipse;whiteSpace=wrap;html=1;" vertex="1" parent="1">
          <mxGeometry x="5220" y="992.5" width="80" height="80" as="geometry" />
        </mxCell>
        <mxCell id="Ep49lHUHMITaR3YVPtm_-633" value="h3" style="ellipse;whiteSpace=wrap;html=1;" vertex="1" parent="1">
          <mxGeometry x="5090" y="1080" width="80" height="80" as="geometry" />
        </mxCell>
        <mxCell id="Ep49lHUHMITaR3YVPtm_-634" value="p" style="ellipse;whiteSpace=wrap;html=1;" vertex="1" parent="1">
          <mxGeometry x="5220" y="1130" width="80" height="80" as="geometry" />
        </mxCell>
        <mxCell id="Ep49lHUHMITaR3YVPtm_-635" value="section" style="ellipse;whiteSpace=wrap;html=1;" vertex="1" parent="1">
          <mxGeometry x="5440" y="1067.5" width="80" height="80" as="geometry" />
        </mxCell>
        <mxCell id="Ep49lHUHMITaR3YVPtm_-636" value="h4" style="ellipse;whiteSpace=wrap;html=1;" vertex="1" parent="1">
          <mxGeometry x="5330" y="1180" width="80" height="80" as="geometry" />
        </mxCell>
        <mxCell id="Ep49lHUHMITaR3YVPtm_-637" value="ul" style="ellipse;whiteSpace=wrap;html=1;" vertex="1" parent="1">
          <mxGeometry x="5440" y="1240" width="80" height="80" as="geometry" />
        </mxCell>
        <mxCell id="Ep49lHUHMITaR3YVPtm_-638" value="li" style="ellipse;whiteSpace=wrap;html=1;" vertex="1" parent="1">
          <mxGeometry x="5240" y="1505" width="80" height="80" as="geometry" />
        </mxCell>
        <mxCell id="Ep49lHUHMITaR3YVPtm_-639" value="li" style="ellipse;whiteSpace=wrap;html=1;" vertex="1" parent="1">
          <mxGeometry x="5340" y="1505" width="80" height="80" as="geometry" />
        </mxCell>
        <mxCell id="Ep49lHUHMITaR3YVPtm_-640" value="li" style="ellipse;whiteSpace=wrap;html=1;" vertex="1" parent="1">
          <mxGeometry x="5440" y="1505" width="80" height="80" as="geometry" />
        </mxCell>
        <mxCell id="Ep49lHUHMITaR3YVPtm_-641" value="ul" style="ellipse;whiteSpace=wrap;html=1;" vertex="1" parent="1">
          <mxGeometry x="5240" y="1625" width="80" height="80" as="geometry" />
        </mxCell>
        <mxCell id="Ep49lHUHMITaR3YVPtm_-642" value="li" style="ellipse;whiteSpace=wrap;html=1;" vertex="1" parent="1">
          <mxGeometry x="5120" y="1735" width="80" height="80" as="geometry" />
        </mxCell>
        <mxCell id="Ep49lHUHMITaR3YVPtm_-643" value="li" style="ellipse;whiteSpace=wrap;html=1;" vertex="1" parent="1">
          <mxGeometry x="5210" y="1745" width="80" height="80" as="geometry" />
        </mxCell>
        <mxCell id="Ep49lHUHMITaR3YVPtm_-644" value="li" style="ellipse;whiteSpace=wrap;html=1;" vertex="1" parent="1">
          <mxGeometry x="5290" y="1745" width="80" height="80" as="geometry" />
        </mxCell>
        <mxCell id="Ep49lHUHMITaR3YVPtm_-645" value="li" style="ellipse;whiteSpace=wrap;html=1;" vertex="1" parent="1">
          <mxGeometry x="5350" y="1655" width="80" height="80" as="geometry" />
        </mxCell>
        <mxCell id="Ep49lHUHMITaR3YVPtm_-646" value="ul" style="ellipse;whiteSpace=wrap;html=1;" vertex="1" parent="1">
          <mxGeometry x="5240" y="1865" width="80" height="80" as="geometry" />
        </mxCell>
        <mxCell id="Ep49lHUHMITaR3YVPtm_-647" value="li" style="ellipse;whiteSpace=wrap;html=1;" vertex="1" parent="1">
          <mxGeometry x="5210" y="1985" width="80" height="80" as="geometry" />
        </mxCell>
        <mxCell id="Ep49lHUHMITaR3YVPtm_-648" value="li" style="ellipse;whiteSpace=wrap;html=1;" vertex="1" parent="1">
          <mxGeometry x="5260" y="1985" width="80" height="80" as="geometry" />
        </mxCell>
        <mxCell id="Ep49lHUHMITaR3YVPtm_-649" value="ul" style="ellipse;whiteSpace=wrap;html=1;" vertex="1" parent="1">
          <mxGeometry x="5260" y="2105" width="80" height="80" as="geometry" />
        </mxCell>
        <mxCell id="Ep49lHUHMITaR3YVPtm_-650" value="li" style="ellipse;whiteSpace=wrap;html=1;" vertex="1" parent="1">
          <mxGeometry x="5240" y="2225" width="80" height="80" as="geometry" />
        </mxCell>
        <mxCell id="Ep49lHUHMITaR3YVPtm_-651" value="li" style="ellipse;whiteSpace=wrap;html=1;" vertex="1" parent="1">
          <mxGeometry x="5260" y="2225" width="80" height="80" as="geometry" />
        </mxCell>
        <mxCell id="Ep49lHUHMITaR3YVPtm_-652" value="li" style="ellipse;whiteSpace=wrap;html=1;" vertex="1" parent="1">
          <mxGeometry x="5280" y="2225" width="80" height="80" as="geometry" />
        </mxCell>
        <mxCell id="Ep49lHUHMITaR3YVPtm_-653" value="section" style="ellipse;whiteSpace=wrap;html=1;" vertex="1" parent="1">
          <mxGeometry x="5730" y="1060" width="80" height="80" as="geometry" />
        </mxCell>
        <mxCell id="Ep49lHUHMITaR3YVPtm_-654" value="article" style="ellipse;whiteSpace=wrap;html=1;" vertex="1" parent="1">
          <mxGeometry x="5640" y="1175" width="80" height="80" as="geometry" />
        </mxCell>
        <mxCell id="Ep49lHUHMITaR3YVPtm_-655" value="article" style="ellipse;whiteSpace=wrap;html=1;" vertex="1" parent="1">
          <mxGeometry x="5800" y="1170" width="80" height="80" as="geometry" />
        </mxCell>
        <mxCell id="Ep49lHUHMITaR3YVPtm_-656" value="h5" style="ellipse;whiteSpace=wrap;html=1;" vertex="1" parent="1">
          <mxGeometry x="5570" y="1302.5" width="80" height="80" as="geometry" />
        </mxCell>
        <mxCell id="Ep49lHUHMITaR3YVPtm_-657" value="ul" style="ellipse;whiteSpace=wrap;html=1;" vertex="1" parent="1">
          <mxGeometry x="5640" y="1400" width="80" height="80" as="geometry" />
        </mxCell>
        <mxCell id="Ep49lHUHMITaR3YVPtm_-658" value="li" style="ellipse;whiteSpace=wrap;html=1;" vertex="1" parent="1">
          <mxGeometry x="5550" y="1500" width="80" height="80" as="geometry" />
        </mxCell>
        <mxCell id="Ep49lHUHMITaR3YVPtm_-659" value="li" style="ellipse;whiteSpace=wrap;html=1;" vertex="1" parent="1">
          <mxGeometry x="5570" y="1630" width="80" height="80" as="geometry" />
        </mxCell>
        <mxCell id="Ep49lHUHMITaR3YVPtm_-660" value="li" style="ellipse;whiteSpace=wrap;html=1;" vertex="1" parent="1">
          <mxGeometry x="5720" y="1502.5" width="80" height="80" as="geometry" />
        </mxCell>
        <mxCell id="Ep49lHUHMITaR3YVPtm_-661" value="li" style="ellipse;whiteSpace=wrap;html=1;" vertex="1" parent="1">
          <mxGeometry x="5680" y="1630" width="80" height="80" as="geometry" />
        </mxCell>
        <mxCell id="Ep49lHUHMITaR3YVPtm_-662" value="h5" style="ellipse;whiteSpace=wrap;html=1;" vertex="1" parent="1">
          <mxGeometry x="5740" y="1300" width="80" height="80" as="geometry" />
        </mxCell>
        <mxCell id="Ep49lHUHMITaR3YVPtm_-663" value="details" style="ellipse;whiteSpace=wrap;html=1;" vertex="1" parent="1">
          <mxGeometry x="5850" y="1325" width="80" height="80" as="geometry" />
        </mxCell>
        <mxCell id="Ep49lHUHMITaR3YVPtm_-664" value="summary" style="ellipse;whiteSpace=wrap;html=1;" vertex="1" parent="1">
          <mxGeometry x="5970" y="1440" width="80" height="80" as="geometry" />
        </mxCell>
        <mxCell id="Ep49lHUHMITaR3YVPtm_-665" value="p" style="ellipse;whiteSpace=wrap;html=1;" vertex="1" parent="1">
          <mxGeometry x="5970" y="1280" width="80" height="80" as="geometry" />
        </mxCell>
        <mxCell id="Ep49lHUHMITaR3YVPtm_-666" value="details" style="ellipse;whiteSpace=wrap;html=1;" vertex="1" parent="1">
          <mxGeometry x="5850" y="1500" width="80" height="80" as="geometry" />
        </mxCell>
        <mxCell id="Ep49lHUHMITaR3YVPtm_-667" value="summary" style="ellipse;whiteSpace=wrap;html=1;" vertex="1" parent="1">
          <mxGeometry x="6020" y="1655" width="80" height="80" as="geometry" />
        </mxCell>
        <mxCell id="Ep49lHUHMITaR3YVPtm_-668" value="p" style="ellipse;whiteSpace=wrap;html=1;" vertex="1" parent="1">
          <mxGeometry x="5850" y="1655" width="80" height="80" as="geometry" />
        </mxCell>
        <mxCell id="Ep49lHUHMITaR3YVPtm_-669" value="strong" style="ellipse;whiteSpace=wrap;html=1;" vertex="1" parent="1">
          <mxGeometry x="5950" y="1790" width="80" height="80" as="geometry" />
        </mxCell>
        <mxCell id="Ep49lHUHMITaR3YVPtm_-670" value="em" style="ellipse;whiteSpace=wrap;html=1;" vertex="1" parent="1">
          <mxGeometry x="5850" y="1800" width="80" height="80" as="geometry" />
        </mxCell>
        <mxCell id="Ep49lHUHMITaR3YVPtm_-671" value="code" style="ellipse;whiteSpace=wrap;html=1;" vertex="1" parent="1">
          <mxGeometry x="5740" y="1787.5" width="80" height="80" as="geometry" />
        </mxCell>
        <mxCell id="Ep49lHUHMITaR3YVPtm_-672" value="template" style="ellipse;whiteSpace=wrap;html=1;" vertex="1" parent="1">
          <mxGeometry x="6000" y="1045" width="80" height="80" as="geometry" />
        </mxCell>
        <mxCell id="Ep49lHUHMITaR3YVPtm_-673" value="tr" style="ellipse;whiteSpace=wrap;html=1;" vertex="1" parent="1">
          <mxGeometry x="6000" y="1170" width="80" height="80" as="geometry" />
        </mxCell>
        <mxCell id="Ep49lHUHMITaR3YVPtm_-674" value="td" style="ellipse;whiteSpace=wrap;html=1;" vertex="1" parent="1">
          <mxGeometry x="6100" y="1387.5" width="80" height="80" as="geometry" />
        </mxCell>
        <mxCell id="Ep49lHUHMITaR3YVPtm_-675" value="td" style="ellipse;whiteSpace=wrap;html=1;" vertex="1" parent="1">
          <mxGeometry x="6295" y="1440" width="80" height="80" as="geometry" />
        </mxCell>
        <mxCell id="Ep49lHUHMITaR3YVPtm_-676" value="footer" style="ellipse;whiteSpace=wrap;html=1;" vertex="1" parent="1">
          <mxGeometry x="6190" y="1000" width="80" height="80" as="geometry" />
        </mxCell>
        <mxCell id="Ep49lHUHMITaR3YVPtm_-677" value="p" style="ellipse;whiteSpace=wrap;html=1;" vertex="1" parent="1">
          <mxGeometry x="6200" y="1107.5" width="80" height="80" as="geometry" />
        </mxCell>
        <mxCell id="Ep49lHUHMITaR3YVPtm_-678" value="time" style="ellipse;whiteSpace=wrap;html=1;" vertex="1" parent="1">
          <mxGeometry x="6210" y="1230" width="80" height="80" as="geometry" />
        </mxCell>
        <mxCell id="Ep49lHUHMITaR3YVPtm_-679" style="endArrow=classic;" edge="1" parent="1" source="Ep49lHUHMITaR3YVPtm_-631" target="Ep49lHUHMITaR3YVPtm_-632">
          <mxGeometry relative="1" as="geometry" />
        </mxCell>
        <mxCell id="Ep49lHUHMITaR3YVPtm_-680" style="endArrow=classic;" edge="1" parent="1" source="Ep49lHUHMITaR3YVPtm_-632" target="Ep49lHUHMITaR3YVPtm_-633">
          <mxGeometry relative="1" as="geometry" />
        </mxCell>
        <mxCell id="Ep49lHUHMITaR3YVPtm_-681" style="endArrow=classic;" edge="1" parent="1" source="Ep49lHUHMITaR3YVPtm_-632" target="Ep49lHUHMITaR3YVPtm_-634">
          <mxGeometry relative="1" as="geometry" />
        </mxCell>
        <mxCell id="Ep49lHUHMITaR3YVPtm_-682" style="endArrow=classic;" edge="1" parent="1" source="Ep49lHUHMITaR3YVPtm_-631" target="Ep49lHUHMITaR3YVPtm_-635">
          <mxGeometry relative="1" as="geometry" />
        </mxCell>
        <mxCell id="Ep49lHUHMITaR3YVPtm_-683" style="endArrow=classic;" edge="1" parent="1" source="Ep49lHUHMITaR3YVPtm_-635" target="Ep49lHUHMITaR3YVPtm_-636">
          <mxGeometry relative="1" as="geometry" />
        </mxCell>
        <mxCell id="Ep49lHUHMITaR3YVPtm_-684" style="endArrow=classic;" edge="1" parent="1" source="Ep49lHUHMITaR3YVPtm_-635" target="Ep49lHUHMITaR3YVPtm_-637">
          <mxGeometry relative="1" as="geometry" />
        </mxCell>
        <mxCell id="Ep49lHUHMITaR3YVPtm_-685" style="endArrow=classic;" edge="1" parent="1" source="Ep49lHUHMITaR3YVPtm_-637" target="Ep49lHUHMITaR3YVPtm_-638">
          <mxGeometry relative="1" as="geometry" />
        </mxCell>
        <mxCell id="Ep49lHUHMITaR3YVPtm_-686" style="endArrow=classic;" edge="1" parent="1" source="Ep49lHUHMITaR3YVPtm_-637" target="Ep49lHUHMITaR3YVPtm_-639">
          <mxGeometry relative="1" as="geometry" />
        </mxCell>
        <mxCell id="Ep49lHUHMITaR3YVPtm_-687" style="endArrow=classic;" edge="1" parent="1" source="Ep49lHUHMITaR3YVPtm_-637" target="Ep49lHUHMITaR3YVPtm_-640">
          <mxGeometry relative="1" as="geometry" />
        </mxCell>
        <mxCell id="Ep49lHUHMITaR3YVPtm_-688" style="endArrow=classic;" edge="1" parent="1" source="Ep49lHUHMITaR3YVPtm_-638" target="Ep49lHUHMITaR3YVPtm_-641">
          <mxGeometry relative="1" as="geometry" />
        </mxCell>
        <mxCell id="Ep49lHUHMITaR3YVPtm_-689" style="endArrow=classic;" edge="1" parent="1" source="Ep49lHUHMITaR3YVPtm_-641" target="Ep49lHUHMITaR3YVPtm_-642">
          <mxGeometry relative="1" as="geometry" />
        </mxCell>
        <mxCell id="Ep49lHUHMITaR3YVPtm_-690" style="endArrow=classic;" edge="1" parent="1" source="Ep49lHUHMITaR3YVPtm_-641" target="Ep49lHUHMITaR3YVPtm_-643">
          <mxGeometry relative="1" as="geometry" />
        </mxCell>
        <mxCell id="Ep49lHUHMITaR3YVPtm_-691" style="endArrow=classic;" edge="1" parent="1" source="Ep49lHUHMITaR3YVPtm_-641" target="Ep49lHUHMITaR3YVPtm_-644">
          <mxGeometry relative="1" as="geometry" />
        </mxCell>
        <mxCell id="Ep49lHUHMITaR3YVPtm_-692" style="endArrow=classic;" edge="1" parent="1" source="Ep49lHUHMITaR3YVPtm_-641" target="Ep49lHUHMITaR3YVPtm_-645">
          <mxGeometry relative="1" as="geometry" />
        </mxCell>
        <mxCell id="Ep49lHUHMITaR3YVPtm_-693" style="endArrow=classic;" edge="1" parent="1" source="Ep49lHUHMITaR3YVPtm_-643" target="Ep49lHUHMITaR3YVPtm_-646">
          <mxGeometry relative="1" as="geometry" />
        </mxCell>
        <mxCell id="Ep49lHUHMITaR3YVPtm_-694" style="endArrow=classic;" edge="1" parent="1" source="Ep49lHUHMITaR3YVPtm_-646" target="Ep49lHUHMITaR3YVPtm_-647">
          <mxGeometry relative="1" as="geometry" />
        </mxCell>
        <mxCell id="Ep49lHUHMITaR3YVPtm_-695" style="endArrow=classic;" edge="1" parent="1" source="Ep49lHUHMITaR3YVPtm_-646" target="Ep49lHUHMITaR3YVPtm_-648">
          <mxGeometry relative="1" as="geometry" />
        </mxCell>
        <mxCell id="Ep49lHUHMITaR3YVPtm_-696" style="endArrow=classic;" edge="1" parent="1" source="Ep49lHUHMITaR3YVPtm_-648" target="Ep49lHUHMITaR3YVPtm_-649">
          <mxGeometry relative="1" as="geometry" />
        </mxCell>
        <mxCell id="Ep49lHUHMITaR3YVPtm_-697" style="endArrow=classic;" edge="1" parent="1" source="Ep49lHUHMITaR3YVPtm_-649" target="Ep49lHUHMITaR3YVPtm_-650">
          <mxGeometry relative="1" as="geometry" />
        </mxCell>
        <mxCell id="Ep49lHUHMITaR3YVPtm_-698" style="endArrow=classic;" edge="1" parent="1" source="Ep49lHUHMITaR3YVPtm_-649" target="Ep49lHUHMITaR3YVPtm_-651">
          <mxGeometry relative="1" as="geometry" />
        </mxCell>
        <mxCell id="Ep49lHUHMITaR3YVPtm_-699" style="endArrow=classic;" edge="1" parent="1" source="Ep49lHUHMITaR3YVPtm_-649" target="Ep49lHUHMITaR3YVPtm_-652">
          <mxGeometry relative="1" as="geometry" />
        </mxCell>
        <mxCell id="Ep49lHUHMITaR3YVPtm_-700" style="endArrow=classic;" edge="1" parent="1" source="Ep49lHUHMITaR3YVPtm_-631" target="Ep49lHUHMITaR3YVPtm_-653">
          <mxGeometry relative="1" as="geometry" />
        </mxCell>
        <mxCell id="Ep49lHUHMITaR3YVPtm_-701" style="endArrow=classic;" edge="1" parent="1" source="Ep49lHUHMITaR3YVPtm_-653" target="Ep49lHUHMITaR3YVPtm_-654">
          <mxGeometry relative="1" as="geometry" />
        </mxCell>
        <mxCell id="Ep49lHUHMITaR3YVPtm_-702" style="endArrow=classic;" edge="1" parent="1" source="Ep49lHUHMITaR3YVPtm_-653" target="Ep49lHUHMITaR3YVPtm_-655">
          <mxGeometry relative="1" as="geometry" />
        </mxCell>
        <mxCell id="Ep49lHUHMITaR3YVPtm_-703" style="endArrow=classic;" edge="1" parent="1" source="Ep49lHUHMITaR3YVPtm_-654" target="Ep49lHUHMITaR3YVPtm_-656">
          <mxGeometry relative="1" as="geometry" />
        </mxCell>
        <mxCell id="Ep49lHUHMITaR3YVPtm_-704" style="endArrow=classic;" edge="1" parent="1" source="Ep49lHUHMITaR3YVPtm_-654" target="Ep49lHUHMITaR3YVPtm_-657">
          <mxGeometry relative="1" as="geometry" />
        </mxCell>
        <mxCell id="Ep49lHUHMITaR3YVPtm_-705" style="endArrow=classic;" edge="1" parent="1" source="Ep49lHUHMITaR3YVPtm_-657" target="Ep49lHUHMITaR3YVPtm_-658">
          <mxGeometry relative="1" as="geometry" />
        </mxCell>
        <mxCell id="Ep49lHUHMITaR3YVPtm_-706" style="endArrow=classic;" edge="1" parent="1" source="Ep49lHUHMITaR3YVPtm_-657" target="Ep49lHUHMITaR3YVPtm_-659">
          <mxGeometry relative="1" as="geometry" />
        </mxCell>
        <mxCell id="Ep49lHUHMITaR3YVPtm_-707" style="endArrow=classic;" edge="1" parent="1" source="Ep49lHUHMITaR3YVPtm_-657" target="Ep49lHUHMITaR3YVPtm_-660">
          <mxGeometry relative="1" as="geometry" />
        </mxCell>
        <mxCell id="Ep49lHUHMITaR3YVPtm_-708" style="endArrow=classic;" edge="1" parent="1" source="Ep49lHUHMITaR3YVPtm_-657" target="Ep49lHUHMITaR3YVPtm_-661">
          <mxGeometry relative="1" as="geometry" />
        </mxCell>
        <mxCell id="Ep49lHUHMITaR3YVPtm_-709" style="endArrow=classic;" edge="1" parent="1" source="Ep49lHUHMITaR3YVPtm_-655" target="Ep49lHUHMITaR3YVPtm_-662">
          <mxGeometry relative="1" as="geometry" />
        </mxCell>
        <mxCell id="Ep49lHUHMITaR3YVPtm_-710" style="endArrow=classic;" edge="1" parent="1" source="Ep49lHUHMITaR3YVPtm_-655" target="Ep49lHUHMITaR3YVPtm_-663">
          <mxGeometry relative="1" as="geometry" />
        </mxCell>
        <mxCell id="Ep49lHUHMITaR3YVPtm_-711" style="endArrow=classic;" edge="1" parent="1" source="Ep49lHUHMITaR3YVPtm_-663" target="Ep49lHUHMITaR3YVPtm_-664">
          <mxGeometry relative="1" as="geometry" />
        </mxCell>
        <mxCell id="Ep49lHUHMITaR3YVPtm_-712" style="endArrow=classic;" edge="1" parent="1" source="Ep49lHUHMITaR3YVPtm_-663" target="Ep49lHUHMITaR3YVPtm_-665">
          <mxGeometry relative="1" as="geometry" />
        </mxCell>
        <mxCell id="Ep49lHUHMITaR3YVPtm_-713" style="endArrow=classic;" edge="1" parent="1" source="Ep49lHUHMITaR3YVPtm_-663" target="Ep49lHUHMITaR3YVPtm_-666">
          <mxGeometry relative="1" as="geometry" />
        </mxCell>
        <mxCell id="Ep49lHUHMITaR3YVPtm_-714" style="endArrow=classic;" edge="1" parent="1" source="Ep49lHUHMITaR3YVPtm_-666" target="Ep49lHUHMITaR3YVPtm_-667">
          <mxGeometry relative="1" as="geometry" />
        </mxCell>
        <mxCell id="Ep49lHUHMITaR3YVPtm_-715" style="endArrow=classic;" edge="1" parent="1" source="Ep49lHUHMITaR3YVPtm_-666" target="Ep49lHUHMITaR3YVPtm_-668">
          <mxGeometry relative="1" as="geometry" />
        </mxCell>
        <mxCell id="Ep49lHUHMITaR3YVPtm_-716" style="endArrow=classic;" edge="1" parent="1" source="Ep49lHUHMITaR3YVPtm_-668" target="Ep49lHUHMITaR3YVPtm_-669">
          <mxGeometry relative="1" as="geometry" />
        </mxCell>
        <mxCell id="Ep49lHUHMITaR3YVPtm_-717" style="endArrow=classic;" edge="1" parent="1" source="Ep49lHUHMITaR3YVPtm_-668" target="Ep49lHUHMITaR3YVPtm_-670">
          <mxGeometry relative="1" as="geometry" />
        </mxCell>
        <mxCell id="Ep49lHUHMITaR3YVPtm_-718" style="endArrow=classic;" edge="1" parent="1" source="Ep49lHUHMITaR3YVPtm_-668" target="Ep49lHUHMITaR3YVPtm_-671">
          <mxGeometry relative="1" as="geometry" />
        </mxCell>
        <mxCell id="Ep49lHUHMITaR3YVPtm_-719" style="endArrow=classic;" edge="1" parent="1" source="Ep49lHUHMITaR3YVPtm_-631" target="Ep49lHUHMITaR3YVPtm_-672">
          <mxGeometry relative="1" as="geometry" />
        </mxCell>
        <mxCell id="Ep49lHUHMITaR3YVPtm_-720" style="endArrow=classic;" edge="1" parent="1" source="Ep49lHUHMITaR3YVPtm_-672" target="Ep49lHUHMITaR3YVPtm_-673">
          <mxGeometry relative="1" as="geometry" />
        </mxCell>
        <mxCell id="Ep49lHUHMITaR3YVPtm_-721" style="endArrow=classic;" edge="1" parent="1" source="Ep49lHUHMITaR3YVPtm_-673" target="Ep49lHUHMITaR3YVPtm_-674">
          <mxGeometry relative="1" as="geometry" />
        </mxCell>
        <mxCell id="Ep49lHUHMITaR3YVPtm_-722" style="endArrow=classic;" edge="1" parent="1" source="Ep49lHUHMITaR3YVPtm_-673" target="Ep49lHUHMITaR3YVPtm_-675">
          <mxGeometry relative="1" as="geometry" />
        </mxCell>
        <mxCell id="Ep49lHUHMITaR3YVPtm_-723" style="endArrow=classic;" edge="1" parent="1" source="Ep49lHUHMITaR3YVPtm_-631" target="Ep49lHUHMITaR3YVPtm_-676">
          <mxGeometry relative="1" as="geometry" />
        </mxCell>
        <mxCell id="Ep49lHUHMITaR3YVPtm_-724" style="endArrow=classic;" edge="1" parent="1" source="Ep49lHUHMITaR3YVPtm_-676" target="Ep49lHUHMITaR3YVPtm_-677">
          <mxGeometry relative="1" as="geometry" />
        </mxCell>
        <mxCell id="Ep49lHUHMITaR3YVPtm_-725" style="endArrow=classic;" edge="1" parent="1" source="Ep49lHUHMITaR3YVPtm_-677" target="Ep49lHUHMITaR3YVPtm_-678">
          <mxGeometry relative="1" as="geometry" />
        </mxCell>
        <mxCell id="Ep49lHUHMITaR3YVPtm_-727" value="" style="endArrow=classic;" edge="1" parent="1" source="Ep49lHUHMITaR3YVPtm_-488" target="Ep49lHUHMITaR3YVPtm_-489">
          <mxGeometry relative="1" as="geometry">
            <mxPoint x="4255" y="1237" as="sourcePoint" />
            <mxPoint x="4075" y="1683" as="targetPoint" />
          </mxGeometry>
        </mxCell>
        <mxCell id="Ep49lHUHMITaR3YVPtm_-489" value="li" style="ellipse;whiteSpace=wrap;html=1;" vertex="1" parent="1">
          <mxGeometry x="4160" y="1290" width="80" height="80" as="geometry" />
        </mxCell>
        <mxCell id="Ep49lHUHMITaR3YVPtm_-728" value="" style="endArrow=classic;" edge="1" parent="1" source="Ep49lHUHMITaR3YVPtm_-521" target="Ep49lHUHMITaR3YVPtm_-494">
          <mxGeometry relative="1" as="geometry">
            <mxPoint x="4022" y="1383" as="sourcePoint" />
            <mxPoint x="4288" y="1777" as="targetPoint" />
          </mxGeometry>
        </mxCell>
        <mxCell id="Ep49lHUHMITaR3YVPtm_-494" value="li" style="ellipse;whiteSpace=wrap;html=1;" vertex="1" parent="1">
          <mxGeometry x="4080" y="1500" width="80" height="80" as="geometry" />
        </mxCell>
        <mxCell id="Ep49lHUHMITaR3YVPtm_-729" value="section" style="ellipse;whiteSpace=wrap;html=1;fillColor=#d5e8d4;strokeColor=#82b366;" vertex="1" parent="1">
          <mxGeometry x="7200" y="547.5" width="80" height="80" as="geometry" />
        </mxCell>
        <mxCell id="Ep49lHUHMITaR3YVPtm_-730" value="h2" style="ellipse;whiteSpace=wrap;html=1;" vertex="1" parent="1">
          <mxGeometry x="6710" y="632.5" width="80" height="80" as="geometry" />
        </mxCell>
        <mxCell id="Ep49lHUHMITaR3YVPtm_-731" value="article" style="ellipse;whiteSpace=wrap;html=1;" vertex="1" parent="1">
          <mxGeometry x="6930" y="725" width="80" height="80" as="geometry" />
        </mxCell>
        <mxCell id="Ep49lHUHMITaR3YVPtm_-732" value="header" style="ellipse;whiteSpace=wrap;html=1;" vertex="1" parent="1">
          <mxGeometry x="6720" y="840" width="80" height="80" as="geometry" />
        </mxCell>
        <mxCell id="Ep49lHUHMITaR3YVPtm_-733" value="h3" style="ellipse;whiteSpace=wrap;html=1;" vertex="1" parent="1">
          <mxGeometry x="6720" y="955" width="80" height="80" as="geometry" />
        </mxCell>
        <mxCell id="Ep49lHUHMITaR3YVPtm_-734" value="ul" style="ellipse;whiteSpace=wrap;html=1;" vertex="1" parent="1">
          <mxGeometry x="6910" y="870" width="80" height="80" as="geometry" />
        </mxCell>
        <mxCell id="Ep49lHUHMITaR3YVPtm_-735" value="li" style="ellipse;whiteSpace=wrap;html=1;" vertex="1" parent="1">
          <mxGeometry x="6760" y="1115" width="80" height="80" as="geometry" />
        </mxCell>
        <mxCell id="Ep49lHUHMITaR3YVPtm_-736" value="li" style="ellipse;whiteSpace=wrap;html=1;" vertex="1" parent="1">
          <mxGeometry x="6990" y="1020" width="80" height="80" as="geometry" />
        </mxCell>
        <mxCell id="Ep49lHUHMITaR3YVPtm_-737" value="ul" style="ellipse;whiteSpace=wrap;html=1;" vertex="1" parent="1">
          <mxGeometry x="6760" y="1240" width="80" height="80" as="geometry" />
        </mxCell>
        <mxCell id="Ep49lHUHMITaR3YVPtm_-738" value="li" style="ellipse;whiteSpace=wrap;html=1;" vertex="1" parent="1">
          <mxGeometry x="6610" y="1342.5" width="80" height="80" as="geometry" />
        </mxCell>
        <mxCell id="Ep49lHUHMITaR3YVPtm_-739" value="li" style="ellipse;whiteSpace=wrap;html=1;" vertex="1" parent="1">
          <mxGeometry x="6790" y="1370" width="80" height="80" as="geometry" />
        </mxCell>
        <mxCell id="Ep49lHUHMITaR3YVPtm_-740" value="ul" style="ellipse;whiteSpace=wrap;html=1;" vertex="1" parent="1">
          <mxGeometry x="6450" y="1500.05" width="80" height="80" as="geometry" />
        </mxCell>
        <mxCell id="Ep49lHUHMITaR3YVPtm_-741" value="li" style="ellipse;whiteSpace=wrap;html=1;" vertex="1" parent="1">
          <mxGeometry x="6450" y="1635.05" width="80" height="80" as="geometry" />
        </mxCell>
        <mxCell id="Ep49lHUHMITaR3YVPtm_-742" value="li" style="ellipse;whiteSpace=wrap;html=1;" vertex="1" parent="1">
          <mxGeometry x="6580" y="1610.05" width="80" height="80" as="geometry" />
        </mxCell>
        <mxCell id="Ep49lHUHMITaR3YVPtm_-743" value="ul" style="ellipse;whiteSpace=wrap;html=1;" vertex="1" parent="1">
          <mxGeometry x="6440" y="1752.55" width="80" height="80" as="geometry" />
        </mxCell>
        <mxCell id="Ep49lHUHMITaR3YVPtm_-744" value="li" style="ellipse;whiteSpace=wrap;html=1;" vertex="1" parent="1">
          <mxGeometry x="6360" y="1872.55" width="80" height="80" as="geometry" />
        </mxCell>
        <mxCell id="Ep49lHUHMITaR3YVPtm_-745" value="li" style="ellipse;whiteSpace=wrap;html=1;" vertex="1" parent="1">
          <mxGeometry x="6460" y="1872.55" width="80" height="80" as="geometry" />
        </mxCell>
        <mxCell id="Ep49lHUHMITaR3YVPtm_-746" value="ul" style="ellipse;whiteSpace=wrap;html=1;" vertex="1" parent="1">
          <mxGeometry x="6460" y="1992.55" width="80" height="80" as="geometry" />
        </mxCell>
        <mxCell id="Ep49lHUHMITaR3YVPtm_-747" value="li" style="ellipse;whiteSpace=wrap;html=1;" vertex="1" parent="1">
          <mxGeometry x="6390" y="2105.05" width="80" height="80" as="geometry" />
        </mxCell>
        <mxCell id="Ep49lHUHMITaR3YVPtm_-748" value="li" style="ellipse;whiteSpace=wrap;html=1;" vertex="1" parent="1">
          <mxGeometry x="6480" y="2112.55" width="80" height="80" as="geometry" />
        </mxCell>
        <mxCell id="Ep49lHUHMITaR3YVPtm_-749" value="ul" style="ellipse;whiteSpace=wrap;html=1;" vertex="1" parent="1">
          <mxGeometry x="6640" y="1710.05" width="80" height="80" as="geometry" />
        </mxCell>
        <mxCell id="Ep49lHUHMITaR3YVPtm_-750" value="li" style="ellipse;whiteSpace=wrap;html=1;" vertex="1" parent="1">
          <mxGeometry x="6570" y="1825.05" width="80" height="80" as="geometry" />
        </mxCell>
        <mxCell id="Ep49lHUHMITaR3YVPtm_-751" value="li" style="ellipse;whiteSpace=wrap;html=1;" vertex="1" parent="1">
          <mxGeometry x="6700" y="1825.05" width="80" height="80" as="geometry" />
        </mxCell>
        <mxCell id="Ep49lHUHMITaR3YVPtm_-752" value="ul" style="ellipse;whiteSpace=wrap;html=1;" vertex="1" parent="1">
          <mxGeometry x="6800" y="1487.5" width="80" height="80" as="geometry" />
        </mxCell>
        <mxCell id="Ep49lHUHMITaR3YVPtm_-753" value="li" style="ellipse;whiteSpace=wrap;html=1;" vertex="1" parent="1">
          <mxGeometry x="6750" y="1610" width="80" height="80" as="geometry" />
        </mxCell>
        <mxCell id="Ep49lHUHMITaR3YVPtm_-754" value="li" style="ellipse;whiteSpace=wrap;html=1;" vertex="1" parent="1">
          <mxGeometry x="6860" y="1670" width="80" height="80" as="geometry" />
        </mxCell>
        <mxCell id="Ep49lHUHMITaR3YVPtm_-755" value="ul" style="ellipse;whiteSpace=wrap;html=1;" vertex="1" parent="1">
          <mxGeometry x="7000" y="1150" width="80" height="80" as="geometry" />
        </mxCell>
        <mxCell id="Ep49lHUHMITaR3YVPtm_-756" value="li" style="ellipse;whiteSpace=wrap;html=1;" vertex="1" parent="1">
          <mxGeometry x="6940" y="1260" width="80" height="80" as="geometry" />
        </mxCell>
        <mxCell id="Ep49lHUHMITaR3YVPtm_-757" value="li" style="ellipse;whiteSpace=wrap;html=1;" vertex="1" parent="1">
          <mxGeometry x="7070" y="1267.5" width="80" height="80" as="geometry" />
        </mxCell>
        <mxCell id="Ep49lHUHMITaR3YVPtm_-758" value="ul" style="ellipse;whiteSpace=wrap;html=1;" vertex="1" parent="1">
          <mxGeometry x="7070" y="1387.5" width="80" height="80" as="geometry" />
        </mxCell>
        <mxCell id="Ep49lHUHMITaR3YVPtm_-759" value="li" style="ellipse;whiteSpace=wrap;html=1;" vertex="1" parent="1">
          <mxGeometry x="6990" y="1507.5" width="80" height="80" as="geometry" />
        </mxCell>
        <mxCell id="Ep49lHUHMITaR3YVPtm_-760" value="li" style="ellipse;whiteSpace=wrap;html=1;" vertex="1" parent="1">
          <mxGeometry x="7090" y="1507.5" width="80" height="80" as="geometry" />
        </mxCell>
        <mxCell id="Ep49lHUHMITaR3YVPtm_-761" value="footer" style="ellipse;whiteSpace=wrap;html=1;" vertex="1" parent="1">
          <mxGeometry x="7100" y="850" width="80" height="80" as="geometry" />
        </mxCell>
        <mxCell id="Ep49lHUHMITaR3YVPtm_-762" value="small" style="ellipse;whiteSpace=wrap;html=1;" vertex="1" parent="1">
          <mxGeometry x="7100" y="965" width="80" height="80" as="geometry" />
        </mxCell>
        <mxCell id="Ep49lHUHMITaR3YVPtm_-763" value="article" style="ellipse;whiteSpace=wrap;html=1;" vertex="1" parent="1">
          <mxGeometry x="7320" y="725" width="80" height="80" as="geometry" />
        </mxCell>
        <mxCell id="Ep49lHUHMITaR3YVPtm_-764" value="header" style="ellipse;whiteSpace=wrap;html=1;" vertex="1" parent="1">
          <mxGeometry x="7200" y="1027.5" width="80" height="80" as="geometry" />
        </mxCell>
        <mxCell id="Ep49lHUHMITaR3YVPtm_-765" value="h3" style="ellipse;whiteSpace=wrap;html=1;" vertex="1" parent="1">
          <mxGeometry x="7145" y="1115" width="80" height="80" as="geometry" />
        </mxCell>
        <mxCell id="Ep49lHUHMITaR3YVPtm_-766" value="p" style="ellipse;whiteSpace=wrap;html=1;" vertex="1" parent="1">
          <mxGeometry x="7260" y="1147.5" width="80" height="80" as="geometry" />
        </mxCell>
        <mxCell id="Ep49lHUHMITaR3YVPtm_-767" value="ol" style="ellipse;whiteSpace=wrap;html=1;" vertex="1" parent="1">
          <mxGeometry x="7370" y="1110" width="80" height="80" as="geometry" />
        </mxCell>
        <mxCell id="Ep49lHUHMITaR3YVPtm_-768" value="li" style="ellipse;whiteSpace=wrap;html=1;" vertex="1" parent="1">
          <mxGeometry x="7220" y="1312.5" width="80" height="80" as="geometry" />
        </mxCell>
        <mxCell id="Ep49lHUHMITaR3YVPtm_-769" value="ol" style="ellipse;whiteSpace=wrap;html=1;" vertex="1" parent="1">
          <mxGeometry x="7225" y="1475" width="80" height="80" as="geometry" />
        </mxCell>
        <mxCell id="Ep49lHUHMITaR3YVPtm_-770" value="li" style="ellipse;whiteSpace=wrap;html=1;" vertex="1" parent="1">
          <mxGeometry x="7120" y="1625" width="80" height="80" as="geometry" />
        </mxCell>
        <mxCell id="Ep49lHUHMITaR3YVPtm_-771" value="li" style="ellipse;whiteSpace=wrap;html=1;" vertex="1" parent="1">
          <mxGeometry x="7210" y="1715" width="80" height="80" as="geometry" />
        </mxCell>
        <mxCell id="Ep49lHUHMITaR3YVPtm_-772" value="li" style="ellipse;whiteSpace=wrap;html=1;" vertex="1" parent="1">
          <mxGeometry x="7290" y="1627.5" width="80" height="80" as="geometry" />
        </mxCell>
        <mxCell id="Ep49lHUHMITaR3YVPtm_-773" value="ol" style="ellipse;whiteSpace=wrap;html=1;" vertex="1" parent="1">
          <mxGeometry x="7290" y="1780" width="80" height="80" as="geometry" />
        </mxCell>
        <mxCell id="Ep49lHUHMITaR3YVPtm_-774" value="li" style="ellipse;whiteSpace=wrap;html=1;" vertex="1" parent="1">
          <mxGeometry x="7190" y="1890" width="80" height="80" as="geometry" />
        </mxCell>
        <mxCell id="Ep49lHUHMITaR3YVPtm_-775" value="li" style="ellipse;whiteSpace=wrap;html=1;" vertex="1" parent="1">
          <mxGeometry x="7290" y="1950" width="80" height="80" as="geometry" />
        </mxCell>
        <mxCell id="Ep49lHUHMITaR3YVPtm_-776" value="li" style="ellipse;whiteSpace=wrap;html=1;" vertex="1" parent="1">
          <mxGeometry x="7390" y="1915" width="80" height="80" as="geometry" />
        </mxCell>
        <mxCell id="Ep49lHUHMITaR3YVPtm_-777" value="li" style="ellipse;whiteSpace=wrap;html=1;" vertex="1" parent="1">
          <mxGeometry x="7340" y="1280" width="80" height="80" as="geometry" />
        </mxCell>
        <mxCell id="Ep49lHUHMITaR3YVPtm_-778" value="li" style="ellipse;whiteSpace=wrap;html=1;" vertex="1" parent="1">
          <mxGeometry x="7420" y="1342.5" width="80" height="80" as="geometry" />
        </mxCell>
        <mxCell id="Ep49lHUHMITaR3YVPtm_-779" value="article" style="ellipse;whiteSpace=wrap;html=1;" vertex="1" parent="1">
          <mxGeometry x="7520" y="672.5" width="80" height="80" as="geometry" />
        </mxCell>
        <mxCell id="Ep49lHUHMITaR3YVPtm_-780" value="header" style="ellipse;whiteSpace=wrap;html=1;" vertex="1" parent="1">
          <mxGeometry x="7420" y="825" width="80" height="80" as="geometry" />
        </mxCell>
        <mxCell id="Ep49lHUHMITaR3YVPtm_-781" value="h3" style="ellipse;whiteSpace=wrap;html=1;" vertex="1" parent="1">
          <mxGeometry x="7420" y="952.5" width="80" height="80" as="geometry" />
        </mxCell>
        <mxCell id="Ep49lHUHMITaR3YVPtm_-782" value="aside" style="ellipse;whiteSpace=wrap;html=1;" vertex="1" parent="1">
          <mxGeometry x="7590" y="920" width="80" height="80" as="geometry" />
        </mxCell>
        <mxCell id="Ep49lHUHMITaR3YVPtm_-783" value="h4" style="ellipse;whiteSpace=wrap;html=1;" vertex="1" parent="1">
          <mxGeometry x="7480" y="1050" width="80" height="80" as="geometry" />
        </mxCell>
        <mxCell id="Ep49lHUHMITaR3YVPtm_-784" value="ul" style="ellipse;whiteSpace=wrap;html=1;" vertex="1" parent="1">
          <mxGeometry x="7570" y="1140" width="80" height="80" as="geometry" />
        </mxCell>
        <mxCell id="Ep49lHUHMITaR3YVPtm_-785" value="li" style="ellipse;whiteSpace=wrap;html=1;" vertex="1" parent="1">
          <mxGeometry x="7520" y="1307.5" width="80" height="80" as="geometry" />
        </mxCell>
        <mxCell id="Ep49lHUHMITaR3YVPtm_-786" value="li" style="ellipse;whiteSpace=wrap;html=1;" vertex="1" parent="1">
          <mxGeometry x="7610" y="1307.5" width="80" height="80" as="geometry" />
        </mxCell>
        <mxCell id="Ep49lHUHMITaR3YVPtm_-787" value="ul" style="ellipse;whiteSpace=wrap;html=1;" vertex="1" parent="1">
          <mxGeometry x="7520" y="1427.5" width="80" height="80" as="geometry" />
        </mxCell>
        <mxCell id="Ep49lHUHMITaR3YVPtm_-788" value="li" style="ellipse;whiteSpace=wrap;html=1;" vertex="1" parent="1">
          <mxGeometry x="7410" y="1540" width="80" height="80" as="geometry" />
        </mxCell>
        <mxCell id="Ep49lHUHMITaR3YVPtm_-789" value="li" style="ellipse;whiteSpace=wrap;html=1;" vertex="1" parent="1">
          <mxGeometry x="7540" y="1547.5" width="80" height="80" as="geometry" />
        </mxCell>
        <mxCell id="Ep49lHUHMITaR3YVPtm_-790" value="ul" style="ellipse;whiteSpace=wrap;html=1;" vertex="1" parent="1">
          <mxGeometry x="7540" y="1667.5" width="80" height="80" as="geometry" />
        </mxCell>
        <mxCell id="Ep49lHUHMITaR3YVPtm_-791" value="li" style="ellipse;whiteSpace=wrap;html=1;" vertex="1" parent="1">
          <mxGeometry x="7460" y="1785" width="80" height="80" as="geometry" />
        </mxCell>
        <mxCell id="Ep49lHUHMITaR3YVPtm_-792" value="li" style="ellipse;whiteSpace=wrap;html=1;" vertex="1" parent="1">
          <mxGeometry x="7620" y="1787.5" width="80" height="80" as="geometry" />
        </mxCell>
        <mxCell id="Ep49lHUHMITaR3YVPtm_-793" value="ul" style="ellipse;whiteSpace=wrap;html=1;" vertex="1" parent="1">
          <mxGeometry x="7630" y="1440" width="80" height="80" as="geometry" />
        </mxCell>
        <mxCell id="Ep49lHUHMITaR3YVPtm_-794" value="li" style="ellipse;whiteSpace=wrap;html=1;" vertex="1" parent="1">
          <mxGeometry x="7630" y="1547.5" width="80" height="80" as="geometry" />
        </mxCell>
        <mxCell id="Ep49lHUHMITaR3YVPtm_-795" value="li" style="ellipse;whiteSpace=wrap;html=1;" vertex="1" parent="1">
          <mxGeometry x="7720" y="1545" width="80" height="80" as="geometry" />
        </mxCell>
        <mxCell id="Ep49lHUHMITaR3YVPtm_-796" value="section" style="ellipse;whiteSpace=wrap;html=1;" vertex="1" parent="1">
          <mxGeometry x="7760" y="895" width="80" height="80" as="geometry" />
        </mxCell>
        <mxCell id="Ep49lHUHMITaR3YVPtm_-797" value="h4" style="ellipse;whiteSpace=wrap;html=1;" vertex="1" parent="1">
          <mxGeometry x="7700" y="1000" width="80" height="80" as="geometry" />
        </mxCell>
        <mxCell id="Ep49lHUHMITaR3YVPtm_-798" value="dl" style="ellipse;whiteSpace=wrap;html=1;" vertex="1" parent="1">
          <mxGeometry x="7790" y="1090" width="80" height="80" as="geometry" />
        </mxCell>
        <mxCell id="Ep49lHUHMITaR3YVPtm_-799" value="dt" style="ellipse;whiteSpace=wrap;html=1;" vertex="1" parent="1">
          <mxGeometry x="7680" y="1180" width="80" height="80" as="geometry" />
        </mxCell>
        <mxCell id="Ep49lHUHMITaR3YVPtm_-800" value="dd" style="ellipse;whiteSpace=wrap;html=1;" vertex="1" parent="1">
          <mxGeometry x="7720" y="1302.5" width="80" height="80" as="geometry" />
        </mxCell>
        <mxCell id="Ep49lHUHMITaR3YVPtm_-801" value="dt" style="ellipse;whiteSpace=wrap;html=1;" vertex="1" parent="1">
          <mxGeometry x="7780" y="1387.5" width="80" height="80" as="geometry" />
        </mxCell>
        <mxCell id="Ep49lHUHMITaR3YVPtm_-802" value="dd" style="ellipse;whiteSpace=wrap;html=1;" vertex="1" parent="1">
          <mxGeometry x="7840" y="1280" width="80" height="80" as="geometry" />
        </mxCell>
        <mxCell id="Ep49lHUHMITaR3YVPtm_-803" style="endArrow=classic;" edge="1" parent="1" source="Ep49lHUHMITaR3YVPtm_-729" target="Ep49lHUHMITaR3YVPtm_-730">
          <mxGeometry relative="1" as="geometry" />
        </mxCell>
        <mxCell id="Ep49lHUHMITaR3YVPtm_-804" style="endArrow=classic;" edge="1" parent="1" source="Ep49lHUHMITaR3YVPtm_-729" target="Ep49lHUHMITaR3YVPtm_-731">
          <mxGeometry relative="1" as="geometry" />
        </mxCell>
        <mxCell id="Ep49lHUHMITaR3YVPtm_-805" style="endArrow=classic;" edge="1" parent="1" source="Ep49lHUHMITaR3YVPtm_-731" target="Ep49lHUHMITaR3YVPtm_-732">
          <mxGeometry relative="1" as="geometry" />
        </mxCell>
        <mxCell id="Ep49lHUHMITaR3YVPtm_-806" style="endArrow=classic;" edge="1" parent="1" source="Ep49lHUHMITaR3YVPtm_-732" target="Ep49lHUHMITaR3YVPtm_-733">
          <mxGeometry relative="1" as="geometry" />
        </mxCell>
        <mxCell id="Ep49lHUHMITaR3YVPtm_-807" style="endArrow=classic;" edge="1" parent="1" source="Ep49lHUHMITaR3YVPtm_-731" target="Ep49lHUHMITaR3YVPtm_-734">
          <mxGeometry relative="1" as="geometry" />
        </mxCell>
        <mxCell id="Ep49lHUHMITaR3YVPtm_-808" style="endArrow=classic;" edge="1" parent="1" source="Ep49lHUHMITaR3YVPtm_-734" target="Ep49lHUHMITaR3YVPtm_-735">
          <mxGeometry relative="1" as="geometry" />
        </mxCell>
        <mxCell id="Ep49lHUHMITaR3YVPtm_-809" style="endArrow=classic;" edge="1" parent="1" source="Ep49lHUHMITaR3YVPtm_-734" target="Ep49lHUHMITaR3YVPtm_-736">
          <mxGeometry relative="1" as="geometry" />
        </mxCell>
        <mxCell id="Ep49lHUHMITaR3YVPtm_-810" style="endArrow=classic;" edge="1" parent="1" source="Ep49lHUHMITaR3YVPtm_-735" target="Ep49lHUHMITaR3YVPtm_-737">
          <mxGeometry relative="1" as="geometry" />
        </mxCell>
        <mxCell id="Ep49lHUHMITaR3YVPtm_-811" style="endArrow=classic;" edge="1" parent="1" source="Ep49lHUHMITaR3YVPtm_-737" target="Ep49lHUHMITaR3YVPtm_-738">
          <mxGeometry relative="1" as="geometry" />
        </mxCell>
        <mxCell id="Ep49lHUHMITaR3YVPtm_-812" style="endArrow=classic;" edge="1" parent="1" source="Ep49lHUHMITaR3YVPtm_-737" target="Ep49lHUHMITaR3YVPtm_-739">
          <mxGeometry relative="1" as="geometry" />
        </mxCell>
        <mxCell id="Ep49lHUHMITaR3YVPtm_-813" style="endArrow=classic;exitX=0.5;exitY=1;exitDx=0;exitDy=0;" edge="1" parent="1" source="Ep49lHUHMITaR3YVPtm_-738" target="Ep49lHUHMITaR3YVPtm_-740">
          <mxGeometry relative="1" as="geometry">
            <mxPoint x="6497.2160694860395" y="1467.4530040334523" as="sourcePoint" />
          </mxGeometry>
        </mxCell>
        <mxCell id="Ep49lHUHMITaR3YVPtm_-814" style="endArrow=classic;" edge="1" parent="1" source="Ep49lHUHMITaR3YVPtm_-740" target="Ep49lHUHMITaR3YVPtm_-741">
          <mxGeometry relative="1" as="geometry" />
        </mxCell>
        <mxCell id="Ep49lHUHMITaR3YVPtm_-815" style="endArrow=classic;" edge="1" parent="1" source="Ep49lHUHMITaR3YVPtm_-740" target="Ep49lHUHMITaR3YVPtm_-742">
          <mxGeometry relative="1" as="geometry" />
        </mxCell>
        <mxCell id="Ep49lHUHMITaR3YVPtm_-816" style="endArrow=classic;" edge="1" parent="1" source="Ep49lHUHMITaR3YVPtm_-741" target="Ep49lHUHMITaR3YVPtm_-743">
          <mxGeometry relative="1" as="geometry" />
        </mxCell>
        <mxCell id="Ep49lHUHMITaR3YVPtm_-817" style="endArrow=classic;" edge="1" parent="1" source="Ep49lHUHMITaR3YVPtm_-743" target="Ep49lHUHMITaR3YVPtm_-744">
          <mxGeometry relative="1" as="geometry" />
        </mxCell>
        <mxCell id="Ep49lHUHMITaR3YVPtm_-818" style="endArrow=classic;" edge="1" parent="1" source="Ep49lHUHMITaR3YVPtm_-743" target="Ep49lHUHMITaR3YVPtm_-745">
          <mxGeometry relative="1" as="geometry" />
        </mxCell>
        <mxCell id="Ep49lHUHMITaR3YVPtm_-819" style="endArrow=classic;" edge="1" parent="1" source="Ep49lHUHMITaR3YVPtm_-745" target="Ep49lHUHMITaR3YVPtm_-746">
          <mxGeometry relative="1" as="geometry" />
        </mxCell>
        <mxCell id="Ep49lHUHMITaR3YVPtm_-820" style="endArrow=classic;" edge="1" parent="1" source="Ep49lHUHMITaR3YVPtm_-746" target="Ep49lHUHMITaR3YVPtm_-747">
          <mxGeometry relative="1" as="geometry" />
        </mxCell>
        <mxCell id="Ep49lHUHMITaR3YVPtm_-821" style="endArrow=classic;" edge="1" parent="1" source="Ep49lHUHMITaR3YVPtm_-746" target="Ep49lHUHMITaR3YVPtm_-748">
          <mxGeometry relative="1" as="geometry" />
        </mxCell>
        <mxCell id="Ep49lHUHMITaR3YVPtm_-822" style="endArrow=classic;" edge="1" parent="1" source="Ep49lHUHMITaR3YVPtm_-742" target="Ep49lHUHMITaR3YVPtm_-749">
          <mxGeometry relative="1" as="geometry" />
        </mxCell>
        <mxCell id="Ep49lHUHMITaR3YVPtm_-823" style="endArrow=classic;" edge="1" parent="1" source="Ep49lHUHMITaR3YVPtm_-749" target="Ep49lHUHMITaR3YVPtm_-750">
          <mxGeometry relative="1" as="geometry" />
        </mxCell>
        <mxCell id="Ep49lHUHMITaR3YVPtm_-824" style="endArrow=classic;" edge="1" parent="1" source="Ep49lHUHMITaR3YVPtm_-749" target="Ep49lHUHMITaR3YVPtm_-751">
          <mxGeometry relative="1" as="geometry" />
        </mxCell>
        <mxCell id="Ep49lHUHMITaR3YVPtm_-825" style="endArrow=classic;" edge="1" parent="1" source="Ep49lHUHMITaR3YVPtm_-739" target="Ep49lHUHMITaR3YVPtm_-752">
          <mxGeometry relative="1" as="geometry" />
        </mxCell>
        <mxCell id="Ep49lHUHMITaR3YVPtm_-826" style="endArrow=classic;" edge="1" parent="1" source="Ep49lHUHMITaR3YVPtm_-752" target="Ep49lHUHMITaR3YVPtm_-753">
          <mxGeometry relative="1" as="geometry" />
        </mxCell>
        <mxCell id="Ep49lHUHMITaR3YVPtm_-827" style="endArrow=classic;" edge="1" parent="1" source="Ep49lHUHMITaR3YVPtm_-752" target="Ep49lHUHMITaR3YVPtm_-754">
          <mxGeometry relative="1" as="geometry" />
        </mxCell>
        <mxCell id="Ep49lHUHMITaR3YVPtm_-828" style="endArrow=classic;" edge="1" parent="1" source="Ep49lHUHMITaR3YVPtm_-736" target="Ep49lHUHMITaR3YVPtm_-755">
          <mxGeometry relative="1" as="geometry" />
        </mxCell>
        <mxCell id="Ep49lHUHMITaR3YVPtm_-829" style="endArrow=classic;" edge="1" parent="1" source="Ep49lHUHMITaR3YVPtm_-755" target="Ep49lHUHMITaR3YVPtm_-756">
          <mxGeometry relative="1" as="geometry" />
        </mxCell>
        <mxCell id="Ep49lHUHMITaR3YVPtm_-830" style="endArrow=classic;" edge="1" parent="1" source="Ep49lHUHMITaR3YVPtm_-755" target="Ep49lHUHMITaR3YVPtm_-757">
          <mxGeometry relative="1" as="geometry" />
        </mxCell>
        <mxCell id="Ep49lHUHMITaR3YVPtm_-831" style="endArrow=classic;" edge="1" parent="1" source="Ep49lHUHMITaR3YVPtm_-757" target="Ep49lHUHMITaR3YVPtm_-758">
          <mxGeometry relative="1" as="geometry" />
        </mxCell>
        <mxCell id="Ep49lHUHMITaR3YVPtm_-832" style="endArrow=classic;" edge="1" parent="1" source="Ep49lHUHMITaR3YVPtm_-758" target="Ep49lHUHMITaR3YVPtm_-759">
          <mxGeometry relative="1" as="geometry" />
        </mxCell>
        <mxCell id="Ep49lHUHMITaR3YVPtm_-833" style="endArrow=classic;" edge="1" parent="1" source="Ep49lHUHMITaR3YVPtm_-758" target="Ep49lHUHMITaR3YVPtm_-760">
          <mxGeometry relative="1" as="geometry" />
        </mxCell>
        <mxCell id="Ep49lHUHMITaR3YVPtm_-834" style="endArrow=classic;" edge="1" parent="1" source="Ep49lHUHMITaR3YVPtm_-731" target="Ep49lHUHMITaR3YVPtm_-761">
          <mxGeometry relative="1" as="geometry" />
        </mxCell>
        <mxCell id="Ep49lHUHMITaR3YVPtm_-835" style="endArrow=classic;" edge="1" parent="1" source="Ep49lHUHMITaR3YVPtm_-761" target="Ep49lHUHMITaR3YVPtm_-762">
          <mxGeometry relative="1" as="geometry" />
        </mxCell>
        <mxCell id="Ep49lHUHMITaR3YVPtm_-836" style="endArrow=classic;" edge="1" parent="1" source="Ep49lHUHMITaR3YVPtm_-729" target="Ep49lHUHMITaR3YVPtm_-763">
          <mxGeometry relative="1" as="geometry" />
        </mxCell>
        <mxCell id="Ep49lHUHMITaR3YVPtm_-837" style="endArrow=classic;" edge="1" parent="1" source="Ep49lHUHMITaR3YVPtm_-763" target="Ep49lHUHMITaR3YVPtm_-764">
          <mxGeometry relative="1" as="geometry" />
        </mxCell>
        <mxCell id="Ep49lHUHMITaR3YVPtm_-838" style="endArrow=classic;" edge="1" parent="1" source="Ep49lHUHMITaR3YVPtm_-764" target="Ep49lHUHMITaR3YVPtm_-765">
          <mxGeometry relative="1" as="geometry" />
        </mxCell>
        <mxCell id="Ep49lHUHMITaR3YVPtm_-839" style="endArrow=classic;" edge="1" parent="1" source="Ep49lHUHMITaR3YVPtm_-763" target="Ep49lHUHMITaR3YVPtm_-766">
          <mxGeometry relative="1" as="geometry" />
        </mxCell>
        <mxCell id="Ep49lHUHMITaR3YVPtm_-840" style="endArrow=classic;" edge="1" parent="1" source="Ep49lHUHMITaR3YVPtm_-763" target="Ep49lHUHMITaR3YVPtm_-767">
          <mxGeometry relative="1" as="geometry" />
        </mxCell>
        <mxCell id="Ep49lHUHMITaR3YVPtm_-841" style="endArrow=classic;" edge="1" parent="1" source="Ep49lHUHMITaR3YVPtm_-767" target="Ep49lHUHMITaR3YVPtm_-768">
          <mxGeometry relative="1" as="geometry" />
        </mxCell>
        <mxCell id="Ep49lHUHMITaR3YVPtm_-842" style="endArrow=classic;" edge="1" parent="1" source="Ep49lHUHMITaR3YVPtm_-768" target="Ep49lHUHMITaR3YVPtm_-769">
          <mxGeometry relative="1" as="geometry" />
        </mxCell>
        <mxCell id="Ep49lHUHMITaR3YVPtm_-843" style="endArrow=classic;" edge="1" parent="1" source="Ep49lHUHMITaR3YVPtm_-769" target="Ep49lHUHMITaR3YVPtm_-770">
          <mxGeometry relative="1" as="geometry" />
        </mxCell>
        <mxCell id="Ep49lHUHMITaR3YVPtm_-844" style="endArrow=classic;" edge="1" parent="1" source="Ep49lHUHMITaR3YVPtm_-769" target="Ep49lHUHMITaR3YVPtm_-771">
          <mxGeometry relative="1" as="geometry" />
        </mxCell>
        <mxCell id="Ep49lHUHMITaR3YVPtm_-845" style="endArrow=classic;" edge="1" parent="1" source="Ep49lHUHMITaR3YVPtm_-769" target="Ep49lHUHMITaR3YVPtm_-772">
          <mxGeometry relative="1" as="geometry" />
        </mxCell>
        <mxCell id="Ep49lHUHMITaR3YVPtm_-846" style="endArrow=classic;" edge="1" parent="1" source="Ep49lHUHMITaR3YVPtm_-772" target="Ep49lHUHMITaR3YVPtm_-773">
          <mxGeometry relative="1" as="geometry" />
        </mxCell>
        <mxCell id="Ep49lHUHMITaR3YVPtm_-847" style="endArrow=classic;" edge="1" parent="1" source="Ep49lHUHMITaR3YVPtm_-773" target="Ep49lHUHMITaR3YVPtm_-774">
          <mxGeometry relative="1" as="geometry" />
        </mxCell>
        <mxCell id="Ep49lHUHMITaR3YVPtm_-848" style="endArrow=classic;" edge="1" parent="1" source="Ep49lHUHMITaR3YVPtm_-773" target="Ep49lHUHMITaR3YVPtm_-775">
          <mxGeometry relative="1" as="geometry" />
        </mxCell>
        <mxCell id="Ep49lHUHMITaR3YVPtm_-849" style="endArrow=classic;" edge="1" parent="1" source="Ep49lHUHMITaR3YVPtm_-773" target="Ep49lHUHMITaR3YVPtm_-776">
          <mxGeometry relative="1" as="geometry" />
        </mxCell>
        <mxCell id="Ep49lHUHMITaR3YVPtm_-850" style="endArrow=classic;" edge="1" parent="1" source="Ep49lHUHMITaR3YVPtm_-767" target="Ep49lHUHMITaR3YVPtm_-777">
          <mxGeometry relative="1" as="geometry" />
        </mxCell>
        <mxCell id="Ep49lHUHMITaR3YVPtm_-851" style="endArrow=classic;" edge="1" parent="1" source="Ep49lHUHMITaR3YVPtm_-767" target="Ep49lHUHMITaR3YVPtm_-778">
          <mxGeometry relative="1" as="geometry" />
        </mxCell>
        <mxCell id="Ep49lHUHMITaR3YVPtm_-852" style="endArrow=classic;" edge="1" parent="1" source="Ep49lHUHMITaR3YVPtm_-729" target="Ep49lHUHMITaR3YVPtm_-779">
          <mxGeometry relative="1" as="geometry" />
        </mxCell>
        <mxCell id="Ep49lHUHMITaR3YVPtm_-853" style="endArrow=classic;" edge="1" parent="1" source="Ep49lHUHMITaR3YVPtm_-779" target="Ep49lHUHMITaR3YVPtm_-780">
          <mxGeometry relative="1" as="geometry" />
        </mxCell>
        <mxCell id="Ep49lHUHMITaR3YVPtm_-854" style="endArrow=classic;" edge="1" parent="1" source="Ep49lHUHMITaR3YVPtm_-780" target="Ep49lHUHMITaR3YVPtm_-781">
          <mxGeometry relative="1" as="geometry" />
        </mxCell>
        <mxCell id="Ep49lHUHMITaR3YVPtm_-855" style="endArrow=classic;" edge="1" parent="1" source="Ep49lHUHMITaR3YVPtm_-779" target="Ep49lHUHMITaR3YVPtm_-782">
          <mxGeometry relative="1" as="geometry" />
        </mxCell>
        <mxCell id="Ep49lHUHMITaR3YVPtm_-856" style="endArrow=classic;" edge="1" parent="1" source="Ep49lHUHMITaR3YVPtm_-782" target="Ep49lHUHMITaR3YVPtm_-783">
          <mxGeometry relative="1" as="geometry" />
        </mxCell>
        <mxCell id="Ep49lHUHMITaR3YVPtm_-857" style="endArrow=classic;" edge="1" parent="1" source="Ep49lHUHMITaR3YVPtm_-782" target="Ep49lHUHMITaR3YVPtm_-784">
          <mxGeometry relative="1" as="geometry" />
        </mxCell>
        <mxCell id="Ep49lHUHMITaR3YVPtm_-858" style="endArrow=classic;" edge="1" parent="1" source="Ep49lHUHMITaR3YVPtm_-784" target="Ep49lHUHMITaR3YVPtm_-785">
          <mxGeometry relative="1" as="geometry" />
        </mxCell>
        <mxCell id="Ep49lHUHMITaR3YVPtm_-859" style="endArrow=classic;" edge="1" parent="1" source="Ep49lHUHMITaR3YVPtm_-784" target="Ep49lHUHMITaR3YVPtm_-786">
          <mxGeometry relative="1" as="geometry" />
        </mxCell>
        <mxCell id="Ep49lHUHMITaR3YVPtm_-860" style="endArrow=classic;" edge="1" parent="1" source="Ep49lHUHMITaR3YVPtm_-785" target="Ep49lHUHMITaR3YVPtm_-787">
          <mxGeometry relative="1" as="geometry" />
        </mxCell>
        <mxCell id="Ep49lHUHMITaR3YVPtm_-861" style="endArrow=classic;" edge="1" parent="1" source="Ep49lHUHMITaR3YVPtm_-787" target="Ep49lHUHMITaR3YVPtm_-788">
          <mxGeometry relative="1" as="geometry" />
        </mxCell>
        <mxCell id="Ep49lHUHMITaR3YVPtm_-862" style="endArrow=classic;" edge="1" parent="1" source="Ep49lHUHMITaR3YVPtm_-787" target="Ep49lHUHMITaR3YVPtm_-789">
          <mxGeometry relative="1" as="geometry" />
        </mxCell>
        <mxCell id="Ep49lHUHMITaR3YVPtm_-863" style="endArrow=classic;" edge="1" parent="1" source="Ep49lHUHMITaR3YVPtm_-789" target="Ep49lHUHMITaR3YVPtm_-790">
          <mxGeometry relative="1" as="geometry" />
        </mxCell>
        <mxCell id="Ep49lHUHMITaR3YVPtm_-864" style="endArrow=classic;" edge="1" parent="1" source="Ep49lHUHMITaR3YVPtm_-790" target="Ep49lHUHMITaR3YVPtm_-791">
          <mxGeometry relative="1" as="geometry" />
        </mxCell>
        <mxCell id="Ep49lHUHMITaR3YVPtm_-865" style="endArrow=classic;" edge="1" parent="1" source="Ep49lHUHMITaR3YVPtm_-790" target="Ep49lHUHMITaR3YVPtm_-792">
          <mxGeometry relative="1" as="geometry" />
        </mxCell>
        <mxCell id="Ep49lHUHMITaR3YVPtm_-866" style="endArrow=classic;" edge="1" parent="1" source="Ep49lHUHMITaR3YVPtm_-786" target="Ep49lHUHMITaR3YVPtm_-793">
          <mxGeometry relative="1" as="geometry" />
        </mxCell>
        <mxCell id="Ep49lHUHMITaR3YVPtm_-867" style="endArrow=classic;" edge="1" parent="1" source="Ep49lHUHMITaR3YVPtm_-793" target="Ep49lHUHMITaR3YVPtm_-794">
          <mxGeometry relative="1" as="geometry" />
        </mxCell>
        <mxCell id="Ep49lHUHMITaR3YVPtm_-868" style="endArrow=classic;" edge="1" parent="1" source="Ep49lHUHMITaR3YVPtm_-793" target="Ep49lHUHMITaR3YVPtm_-795">
          <mxGeometry relative="1" as="geometry" />
        </mxCell>
        <mxCell id="Ep49lHUHMITaR3YVPtm_-869" style="endArrow=classic;" edge="1" parent="1" source="Ep49lHUHMITaR3YVPtm_-779" target="Ep49lHUHMITaR3YVPtm_-796">
          <mxGeometry relative="1" as="geometry" />
        </mxCell>
        <mxCell id="Ep49lHUHMITaR3YVPtm_-870" style="endArrow=classic;" edge="1" parent="1" source="Ep49lHUHMITaR3YVPtm_-796" target="Ep49lHUHMITaR3YVPtm_-797">
          <mxGeometry relative="1" as="geometry" />
        </mxCell>
        <mxCell id="Ep49lHUHMITaR3YVPtm_-871" style="endArrow=classic;" edge="1" parent="1" source="Ep49lHUHMITaR3YVPtm_-796" target="Ep49lHUHMITaR3YVPtm_-798">
          <mxGeometry relative="1" as="geometry" />
        </mxCell>
        <mxCell id="Ep49lHUHMITaR3YVPtm_-872" style="endArrow=classic;" edge="1" parent="1" source="Ep49lHUHMITaR3YVPtm_-798" target="Ep49lHUHMITaR3YVPtm_-799">
          <mxGeometry relative="1" as="geometry" />
        </mxCell>
        <mxCell id="Ep49lHUHMITaR3YVPtm_-873" style="endArrow=classic;" edge="1" parent="1" source="Ep49lHUHMITaR3YVPtm_-798" target="Ep49lHUHMITaR3YVPtm_-800">
          <mxGeometry relative="1" as="geometry" />
        </mxCell>
        <mxCell id="Ep49lHUHMITaR3YVPtm_-874" style="endArrow=classic;" edge="1" parent="1" source="Ep49lHUHMITaR3YVPtm_-798" target="Ep49lHUHMITaR3YVPtm_-801">
          <mxGeometry relative="1" as="geometry" />
        </mxCell>
        <mxCell id="Ep49lHUHMITaR3YVPtm_-875" style="endArrow=classic;" edge="1" parent="1" source="Ep49lHUHMITaR3YVPtm_-798" target="Ep49lHUHMITaR3YVPtm_-802">
          <mxGeometry relative="1" as="geometry" />
        </mxCell>
        <mxCell id="Ep49lHUHMITaR3YVPtm_-876" value="section" style="ellipse;whiteSpace=wrap;html=1;fillColor=#d5e8d4;strokeColor=#82b366;" vertex="1" parent="1">
          <mxGeometry x="7990" y="512.5" width="80" height="80" as="geometry" />
        </mxCell>
        <mxCell id="Ep49lHUHMITaR3YVPtm_-877" value="h2" style="ellipse;whiteSpace=wrap;html=1;" vertex="1" parent="1">
          <mxGeometry x="7790" y="620" width="80" height="80" as="geometry" />
        </mxCell>
        <mxCell id="Ep49lHUHMITaR3YVPtm_-878" value="details" style="ellipse;whiteSpace=wrap;html=1;" vertex="1" parent="1">
          <mxGeometry x="8160" y="632.5" width="80" height="80" as="geometry" />
        </mxCell>
        <mxCell id="Ep49lHUHMITaR3YVPtm_-879" value="summary" style="ellipse;whiteSpace=wrap;html=1;" vertex="1" parent="1">
          <mxGeometry x="8090" y="745" width="80" height="80" as="geometry" />
        </mxCell>
        <mxCell id="Ep49lHUHMITaR3YVPtm_-880" value="ul" style="ellipse;whiteSpace=wrap;html=1;" vertex="1" parent="1">
          <mxGeometry x="8280" y="780" width="80" height="80" as="geometry" />
        </mxCell>
        <mxCell id="Ep49lHUHMITaR3YVPtm_-881" value="li" style="ellipse;whiteSpace=wrap;html=1;" vertex="1" parent="1">
          <mxGeometry x="8260" y="930" width="80" height="80" as="geometry" />
        </mxCell>
        <mxCell id="Ep49lHUHMITaR3YVPtm_-882" value="li" style="ellipse;whiteSpace=wrap;html=1;" vertex="1" parent="1">
          <mxGeometry x="8390" y="930" width="80" height="80" as="geometry" />
        </mxCell>
        <mxCell id="Ep49lHUHMITaR3YVPtm_-883" value="ul" style="ellipse;whiteSpace=wrap;html=1;" vertex="1" parent="1">
          <mxGeometry x="8270" y="1067.5" width="80" height="80" as="geometry" />
        </mxCell>
        <mxCell id="Ep49lHUHMITaR3YVPtm_-884" value="li" style="ellipse;whiteSpace=wrap;html=1;" vertex="1" parent="1">
          <mxGeometry x="8270" y="1182.5" width="80" height="80" as="geometry" />
        </mxCell>
        <mxCell id="Ep49lHUHMITaR3YVPtm_-885" value="strong" style="ellipse;whiteSpace=wrap;html=1;" vertex="1" parent="1">
          <mxGeometry x="8170" y="1375" width="80" height="80" as="geometry" />
        </mxCell>
        <mxCell id="Ep49lHUHMITaR3YVPtm_-886" value="em" style="ellipse;whiteSpace=wrap;html=1;" vertex="1" parent="1">
          <mxGeometry x="8310" y="1350" width="80" height="80" as="geometry" />
        </mxCell>
        <mxCell id="Ep49lHUHMITaR3YVPtm_-887" value="ul" style="ellipse;whiteSpace=wrap;html=1;" vertex="1" parent="1">
          <mxGeometry x="8450" y="1080" width="80" height="80" as="geometry" />
        </mxCell>
        <mxCell id="Ep49lHUHMITaR3YVPtm_-888" value="li" style="ellipse;whiteSpace=wrap;html=1;" vertex="1" parent="1">
          <mxGeometry x="8460" y="1210" width="80" height="80" as="geometry" />
        </mxCell>
        <mxCell id="Ep49lHUHMITaR3YVPtm_-889" value="a" style="ellipse;whiteSpace=wrap;html=1;" vertex="1" parent="1">
          <mxGeometry x="8460" y="1335" width="80" height="80" as="geometry" />
        </mxCell>
        <mxCell id="Ep49lHUHMITaR3YVPtm_-890" value="aside" style="ellipse;whiteSpace=wrap;html=1;" vertex="1" parent="1">
          <mxGeometry x="7960" y="645" width="80" height="80" as="geometry" />
        </mxCell>
        <mxCell id="Ep49lHUHMITaR3YVPtm_-891" value="h3" style="ellipse;whiteSpace=wrap;html=1;" vertex="1" parent="1">
          <mxGeometry x="7850" y="770" width="80" height="80" as="geometry" />
        </mxCell>
        <mxCell id="Ep49lHUHMITaR3YVPtm_-892" value="ul" style="ellipse;whiteSpace=wrap;html=1;" vertex="1" parent="1">
          <mxGeometry x="7960" y="815" width="80" height="80" as="geometry" />
        </mxCell>
        <mxCell id="Ep49lHUHMITaR3YVPtm_-893" value="li" style="ellipse;whiteSpace=wrap;html=1;" vertex="1" parent="1">
          <mxGeometry x="7950" y="1080" width="80" height="80" as="geometry" />
        </mxCell>
        <mxCell id="Ep49lHUHMITaR3YVPtm_-894" value="a" style="ellipse;whiteSpace=wrap;html=1;" vertex="1" parent="1">
          <mxGeometry x="7950" y="1210" width="80" height="80" as="geometry" />
        </mxCell>
        <mxCell id="Ep49lHUHMITaR3YVPtm_-896" value="a" style="ellipse;whiteSpace=wrap;html=1;" vertex="1" parent="1">
          <mxGeometry x="8070" y="1102.5" width="80" height="80" as="geometry" />
        </mxCell>
        <mxCell id="Ep49lHUHMITaR3YVPtm_-897" style="endArrow=classic;" edge="1" parent="1" source="Ep49lHUHMITaR3YVPtm_-876" target="Ep49lHUHMITaR3YVPtm_-877">
          <mxGeometry relative="1" as="geometry" />
        </mxCell>
        <mxCell id="Ep49lHUHMITaR3YVPtm_-898" style="endArrow=classic;" edge="1" parent="1" source="Ep49lHUHMITaR3YVPtm_-876" target="Ep49lHUHMITaR3YVPtm_-878">
          <mxGeometry relative="1" as="geometry" />
        </mxCell>
        <mxCell id="Ep49lHUHMITaR3YVPtm_-899" style="endArrow=classic;" edge="1" parent="1" source="Ep49lHUHMITaR3YVPtm_-878" target="Ep49lHUHMITaR3YVPtm_-879">
          <mxGeometry relative="1" as="geometry" />
        </mxCell>
        <mxCell id="Ep49lHUHMITaR3YVPtm_-900" style="endArrow=classic;" edge="1" parent="1" source="Ep49lHUHMITaR3YVPtm_-878" target="Ep49lHUHMITaR3YVPtm_-880">
          <mxGeometry relative="1" as="geometry" />
        </mxCell>
        <mxCell id="Ep49lHUHMITaR3YVPtm_-901" style="endArrow=classic;" edge="1" parent="1" source="Ep49lHUHMITaR3YVPtm_-880" target="Ep49lHUHMITaR3YVPtm_-881">
          <mxGeometry relative="1" as="geometry" />
        </mxCell>
        <mxCell id="Ep49lHUHMITaR3YVPtm_-902" style="endArrow=classic;" edge="1" parent="1" source="Ep49lHUHMITaR3YVPtm_-880" target="Ep49lHUHMITaR3YVPtm_-882">
          <mxGeometry relative="1" as="geometry" />
        </mxCell>
        <mxCell id="Ep49lHUHMITaR3YVPtm_-903" style="endArrow=classic;" edge="1" parent="1" source="Ep49lHUHMITaR3YVPtm_-881" target="Ep49lHUHMITaR3YVPtm_-883">
          <mxGeometry relative="1" as="geometry" />
        </mxCell>
        <mxCell id="Ep49lHUHMITaR3YVPtm_-904" style="endArrow=classic;" edge="1" parent="1" source="Ep49lHUHMITaR3YVPtm_-883" target="Ep49lHUHMITaR3YVPtm_-884">
          <mxGeometry relative="1" as="geometry" />
        </mxCell>
        <mxCell id="Ep49lHUHMITaR3YVPtm_-905" style="endArrow=classic;" edge="1" parent="1" source="Ep49lHUHMITaR3YVPtm_-884" target="Ep49lHUHMITaR3YVPtm_-885">
          <mxGeometry relative="1" as="geometry" />
        </mxCell>
        <mxCell id="Ep49lHUHMITaR3YVPtm_-906" style="endArrow=classic;" edge="1" parent="1" source="Ep49lHUHMITaR3YVPtm_-884" target="Ep49lHUHMITaR3YVPtm_-886">
          <mxGeometry relative="1" as="geometry" />
        </mxCell>
        <mxCell id="Ep49lHUHMITaR3YVPtm_-907" style="endArrow=classic;" edge="1" parent="1" source="Ep49lHUHMITaR3YVPtm_-882" target="Ep49lHUHMITaR3YVPtm_-887">
          <mxGeometry relative="1" as="geometry" />
        </mxCell>
        <mxCell id="Ep49lHUHMITaR3YVPtm_-908" style="endArrow=classic;" edge="1" parent="1" source="Ep49lHUHMITaR3YVPtm_-887" target="Ep49lHUHMITaR3YVPtm_-888">
          <mxGeometry relative="1" as="geometry" />
        </mxCell>
        <mxCell id="Ep49lHUHMITaR3YVPtm_-909" style="endArrow=classic;" edge="1" parent="1" source="Ep49lHUHMITaR3YVPtm_-888" target="Ep49lHUHMITaR3YVPtm_-889">
          <mxGeometry relative="1" as="geometry" />
        </mxCell>
        <mxCell id="Ep49lHUHMITaR3YVPtm_-910" style="endArrow=classic;" edge="1" parent="1" source="Ep49lHUHMITaR3YVPtm_-876" target="Ep49lHUHMITaR3YVPtm_-890">
          <mxGeometry relative="1" as="geometry" />
        </mxCell>
        <mxCell id="Ep49lHUHMITaR3YVPtm_-911" style="endArrow=classic;" edge="1" parent="1" source="Ep49lHUHMITaR3YVPtm_-890" target="Ep49lHUHMITaR3YVPtm_-891">
          <mxGeometry relative="1" as="geometry" />
        </mxCell>
        <mxCell id="Ep49lHUHMITaR3YVPtm_-912" style="endArrow=classic;" edge="1" parent="1" source="Ep49lHUHMITaR3YVPtm_-890" target="Ep49lHUHMITaR3YVPtm_-892">
          <mxGeometry relative="1" as="geometry" />
        </mxCell>
        <mxCell id="Ep49lHUHMITaR3YVPtm_-913" style="endArrow=classic;" edge="1" parent="1" source="Ep49lHUHMITaR3YVPtm_-895" target="Ep49lHUHMITaR3YVPtm_-893">
          <mxGeometry relative="1" as="geometry" />
        </mxCell>
        <mxCell id="Ep49lHUHMITaR3YVPtm_-914" style="endArrow=classic;" edge="1" parent="1" source="Ep49lHUHMITaR3YVPtm_-893" target="Ep49lHUHMITaR3YVPtm_-894">
          <mxGeometry relative="1" as="geometry" />
        </mxCell>
        <mxCell id="Ep49lHUHMITaR3YVPtm_-915" style="endArrow=classic;" edge="1" parent="1" source="Ep49lHUHMITaR3YVPtm_-892" target="Ep49lHUHMITaR3YVPtm_-895">
          <mxGeometry relative="1" as="geometry" />
        </mxCell>
        <mxCell id="Ep49lHUHMITaR3YVPtm_-987" value="Text" style="edgeLabel;html=1;align=center;verticalAlign=middle;resizable=0;points=[];" vertex="1" connectable="0" parent="Ep49lHUHMITaR3YVPtm_-915">
          <mxGeometry x="0.2382" y="14" relative="1" as="geometry">
            <mxPoint as="offset" />
          </mxGeometry>
        </mxCell>
        <mxCell id="Ep49lHUHMITaR3YVPtm_-916" style="endArrow=classic;" edge="1" parent="1" source="Ep49lHUHMITaR3YVPtm_-895" target="Ep49lHUHMITaR3YVPtm_-896">
          <mxGeometry relative="1" as="geometry" />
        </mxCell>
        <mxCell id="Ep49lHUHMITaR3YVPtm_-917" value="footer" style="ellipse;whiteSpace=wrap;html=1;fillColor=#e1d5e7;strokeColor=#9673a6;" vertex="1" parent="1">
          <mxGeometry x="8430" y="325" width="80" height="80" as="geometry" />
        </mxCell>
        <mxCell id="Ep49lHUHMITaR3YVPtm_-918" value="p" style="ellipse;whiteSpace=wrap;html=1;" vertex="1" parent="1">
          <mxGeometry x="8370" y="432.5" width="80" height="80" as="geometry" />
        </mxCell>
        <mxCell id="Ep49lHUHMITaR3YVPtm_-919" value="span" style="ellipse;whiteSpace=wrap;html=1;" vertex="1" parent="1">
          <mxGeometry x="8280" y="490" width="80" height="80" as="geometry" />
        </mxCell>
        <mxCell id="Ep49lHUHMITaR3YVPtm_-920" value="time" style="ellipse;whiteSpace=wrap;html=1;" vertex="1" parent="1">
          <mxGeometry x="8370" y="565" width="80" height="80" as="geometry" />
        </mxCell>
        <mxCell id="Ep49lHUHMITaR3YVPtm_-921" value="address" style="ellipse;whiteSpace=wrap;html=1;" vertex="1" parent="1">
          <mxGeometry x="8500" y="445" width="80" height="80" as="geometry" />
        </mxCell>
        <mxCell id="Ep49lHUHMITaR3YVPtm_-922" value="p" style="ellipse;whiteSpace=wrap;html=1;" vertex="1" parent="1">
          <mxGeometry x="8570" y="530" width="80" height="80" as="geometry" />
        </mxCell>
        <mxCell id="Ep49lHUHMITaR3YVPtm_-923" value="p" style="ellipse;whiteSpace=wrap;html=1;" vertex="1" parent="1">
          <mxGeometry x="8480" y="575" width="80" height="80" as="geometry" />
        </mxCell>
        <mxCell id="Ep49lHUHMITaR3YVPtm_-924" value="a" style="ellipse;whiteSpace=wrap;html=1;" vertex="1" parent="1">
          <mxGeometry x="8460" y="735" width="80" height="80" as="geometry" />
        </mxCell>
        <mxCell id="Ep49lHUHMITaR3YVPtm_-925" value="section" style="ellipse;whiteSpace=wrap;html=1;fillColor=#e1d5e7;strokeColor=#9673a6;" vertex="1" parent="1">
          <mxGeometry x="8630" y="325" width="80" height="80" as="geometry" />
        </mxCell>
        <mxCell id="Ep49lHUHMITaR3YVPtm_-926" value="ul" style="ellipse;whiteSpace=wrap;html=1;" vertex="1" parent="1">
          <mxGeometry x="8630" y="445" width="80" height="80" as="geometry" />
        </mxCell>
        <mxCell id="Ep49lHUHMITaR3YVPtm_-927" value="li" style="ellipse;whiteSpace=wrap;html=1;" vertex="1" parent="1">
          <mxGeometry x="8620" y="640" width="80" height="80" as="geometry" />
        </mxCell>
        <mxCell id="Ep49lHUHMITaR3YVPtm_-928" value="span" style="ellipse;whiteSpace=wrap;html=1;" vertex="1" parent="1">
          <mxGeometry x="8630" y="832.5" width="80" height="80" as="geometry" />
        </mxCell>
        <mxCell id="Ep49lHUHMITaR3YVPtm_-929" value="li" style="ellipse;whiteSpace=wrap;html=1;" vertex="1" parent="1">
          <mxGeometry x="8720" y="575" width="80" height="80" as="geometry" />
        </mxCell>
        <mxCell id="Ep49lHUHMITaR3YVPtm_-930" value="span" style="ellipse;whiteSpace=wrap;html=1;" vertex="1" parent="1">
          <mxGeometry x="8720" y="735" width="80" height="80" as="geometry" />
        </mxCell>
        <mxCell id="Ep49lHUHMITaR3YVPtm_-931" value="li" style="ellipse;whiteSpace=wrap;html=1;" vertex="1" parent="1">
          <mxGeometry x="8840" y="512.5" width="80" height="80" as="geometry" />
        </mxCell>
        <mxCell id="Ep49lHUHMITaR3YVPtm_-932" value="span" style="ellipse;whiteSpace=wrap;html=1;" vertex="1" parent="1">
          <mxGeometry x="8830" y="665" width="80" height="80" as="geometry" />
        </mxCell>
        <mxCell id="Ep49lHUHMITaR3YVPtm_-933" value="script" style="ellipse;whiteSpace=wrap;html=1;fillColor=#e1d5e7;strokeColor=#9673a6;" vertex="1" parent="1">
          <mxGeometry x="8830" y="325" width="80" height="80" as="geometry" />
        </mxCell>
        <mxCell id="Ep49lHUHMITaR3YVPtm_-934" style="endArrow=classic;" edge="1" parent="1" source="Ep49lHUHMITaR3YVPtm_-917" target="Ep49lHUHMITaR3YVPtm_-918">
          <mxGeometry relative="1" as="geometry" />
        </mxCell>
        <mxCell id="Ep49lHUHMITaR3YVPtm_-935" style="endArrow=classic;" edge="1" parent="1" source="Ep49lHUHMITaR3YVPtm_-918" target="Ep49lHUHMITaR3YVPtm_-919">
          <mxGeometry relative="1" as="geometry" />
        </mxCell>
        <mxCell id="Ep49lHUHMITaR3YVPtm_-936" style="endArrow=classic;" edge="1" parent="1" source="Ep49lHUHMITaR3YVPtm_-918" target="Ep49lHUHMITaR3YVPtm_-920">
          <mxGeometry relative="1" as="geometry" />
        </mxCell>
        <mxCell id="Ep49lHUHMITaR3YVPtm_-937" style="endArrow=classic;" edge="1" parent="1" source="Ep49lHUHMITaR3YVPtm_-917" target="Ep49lHUHMITaR3YVPtm_-921">
          <mxGeometry relative="1" as="geometry" />
        </mxCell>
        <mxCell id="Ep49lHUHMITaR3YVPtm_-938" style="endArrow=classic;" edge="1" parent="1" source="Ep49lHUHMITaR3YVPtm_-921" target="Ep49lHUHMITaR3YVPtm_-922">
          <mxGeometry relative="1" as="geometry" />
        </mxCell>
        <mxCell id="Ep49lHUHMITaR3YVPtm_-939" style="endArrow=classic;" edge="1" parent="1" source="Ep49lHUHMITaR3YVPtm_-921" target="Ep49lHUHMITaR3YVPtm_-923">
          <mxGeometry relative="1" as="geometry" />
        </mxCell>
        <mxCell id="Ep49lHUHMITaR3YVPtm_-940" style="endArrow=classic;" edge="1" parent="1" source="Ep49lHUHMITaR3YVPtm_-923" target="Ep49lHUHMITaR3YVPtm_-924">
          <mxGeometry relative="1" as="geometry" />
        </mxCell>
        <mxCell id="Ep49lHUHMITaR3YVPtm_-941" style="endArrow=classic;" edge="1" parent="1" source="Ep49lHUHMITaR3YVPtm_-925" target="Ep49lHUHMITaR3YVPtm_-926">
          <mxGeometry relative="1" as="geometry" />
        </mxCell>
        <mxCell id="Ep49lHUHMITaR3YVPtm_-942" style="endArrow=classic;" edge="1" parent="1" source="Ep49lHUHMITaR3YVPtm_-926" target="Ep49lHUHMITaR3YVPtm_-927">
          <mxGeometry relative="1" as="geometry" />
        </mxCell>
        <mxCell id="Ep49lHUHMITaR3YVPtm_-943" style="endArrow=classic;" edge="1" parent="1" source="Ep49lHUHMITaR3YVPtm_-927" target="Ep49lHUHMITaR3YVPtm_-928">
          <mxGeometry relative="1" as="geometry" />
        </mxCell>
        <mxCell id="Ep49lHUHMITaR3YVPtm_-944" style="endArrow=classic;" edge="1" parent="1" source="Ep49lHUHMITaR3YVPtm_-926" target="Ep49lHUHMITaR3YVPtm_-929">
          <mxGeometry relative="1" as="geometry" />
        </mxCell>
        <mxCell id="Ep49lHUHMITaR3YVPtm_-945" style="endArrow=classic;" edge="1" parent="1" source="Ep49lHUHMITaR3YVPtm_-929" target="Ep49lHUHMITaR3YVPtm_-930">
          <mxGeometry relative="1" as="geometry" />
        </mxCell>
        <mxCell id="Ep49lHUHMITaR3YVPtm_-946" style="endArrow=classic;" edge="1" parent="1" source="Ep49lHUHMITaR3YVPtm_-926" target="Ep49lHUHMITaR3YVPtm_-931">
          <mxGeometry relative="1" as="geometry" />
        </mxCell>
        <mxCell id="Ep49lHUHMITaR3YVPtm_-947" style="endArrow=classic;" edge="1" parent="1" source="Ep49lHUHMITaR3YVPtm_-931" target="Ep49lHUHMITaR3YVPtm_-932">
          <mxGeometry relative="1" as="geometry" />
        </mxCell>
        <mxCell id="Ep49lHUHMITaR3YVPtm_-954" style="edgeStyle=orthogonalEdgeStyle;rounded=0;orthogonalLoop=1;jettySize=auto;html=1;entryX=0.494;entryY=0.102;entryDx=0;entryDy=0;entryPerimeter=0;" edge="1" parent="1" source="Ep49lHUHMITaR3YVPtm_-129" target="Ep49lHUHMITaR3YVPtm_-131">
          <mxGeometry relative="1" as="geometry" />
        </mxCell>
        <mxCell id="Ep49lHUHMITaR3YVPtm_-958" style="edgeStyle=orthogonalEdgeStyle;rounded=0;orthogonalLoop=1;jettySize=auto;html=1;entryX=0.633;entryY=0.067;entryDx=0;entryDy=0;entryPerimeter=0;" edge="1" parent="1" source="Ep49lHUHMITaR3YVPtm_-133" target="Ep49lHUHMITaR3YVPtm_-135">
          <mxGeometry relative="1" as="geometry" />
        </mxCell>
        <mxCell id="Ep49lHUHMITaR3YVPtm_-988" value="" style="endArrow=classic;" edge="1" parent="1" source="Ep49lHUHMITaR3YVPtm_-892" target="Ep49lHUHMITaR3YVPtm_-895">
          <mxGeometry relative="1" as="geometry">
            <mxPoint x="8002" y="895" as="sourcePoint" />
            <mxPoint x="8028" y="1303" as="targetPoint" />
          </mxGeometry>
        </mxCell>
        <mxCell id="Ep49lHUHMITaR3YVPtm_-895" value="li" style="ellipse;whiteSpace=wrap;html=1;" vertex="1" parent="1">
          <mxGeometry x="8030" y="940" width="80" height="80" as="geometry" />
        </mxCell>
      </root>
    </mxGraphModel>
  </diagram>
</mxfile>
